<?xml version="1.0" encoding="UTF-8"?>
<svg width="100px" height="119px" viewBox="0 0 100 119" version="1.1" xmlns="http://www.w3.org/2000/svg" xmlns:xlink="http://www.w3.org/1999/xlink">
    <!-- Generator: Sketch 44.1 (41455) - http://www.bohemiancoding.com/sketch -->
    <title>noun_820381_cc</title>
    <desc>Created with Sketch.</desc>
    <defs>
        <path d="M2.92307692,116.615385 L97.2307692,116.615385 C98.1538462,116.615385 98.7692308,116 98.7692308,115.076923 L98.7692308,104 C98.7692308,103.076923 98.1538462,102.461538 97.2307692,102.461538 L69.0769231,102.461538 C83.6923077,96.9230769 94.1538462,82.7692308 94.1538462,66.1538462 C94.1538462,50.7692308 85.0769231,37.0769231 71.0769231,30.7692308 C71.2307692,30.1538462 71.2307692,29.6923077 71.2307692,29.0769231 C71.2307692,27.2307692 70.7692308,25.5384615 69.6923077,24.1538462 C69.6923077,24.1538462 69.6923077,24.1538462 69.6923077,24.1538462 L78.1538462,16 C78.7692308,15.3846154 78.7692308,14.4615385 78.1538462,13.8461538 L77.5384615,13.2307692 L78.6153846,12.1538462 C80.7692308,10.1538462 80.9230769,6.61538462 78.7692308,4.46153846 L76.3076923,1.84615385 C75.3846154,0.769230769 74,0.153846154 72.4615385,0.153846154 C71.0769231,0.153846154 69.6923077,0.615384615 68.6153846,1.69230769 L67.5384615,2.76923077 L66.9230769,2.15384615 C66.6153846,1.84615385 66.3076923,1.69230769 65.8461538,1.69230769 C65.3846154,1.69230769 65.0769231,1.84615385 64.7692308,2.15384615 L16.7692308,48 C16.1538462,48.6153846 16.1538462,49.5384615 16.7692308,50.1538462 L18.1538462,51.6923077 L14.7692308,54.9230769 C14.1538462,55.5384615 14.1538462,56.4615385 14.7692308,57.0769231 L21.3846154,64 C21.6923077,64.3076923 22,64.4615385 22.4615385,64.4615385 C22.4615385,64.4615385 22.4615385,64.4615385 22.4615385,64.4615385 C22.9230769,64.4615385 23.2307692,64.3076923 23.5384615,64 L26.9230769,60.7692308 L28,61.8461538 C28.3076923,62.1538462 28.6153846,62.3076923 29.0769231,62.3076923 C29.0769231,62.3076923 29.0769231,62.3076923 29.0769231,62.3076923 C29.5384615,62.3076923 29.8461538,62.1538462 30.1538462,61.8461538 L57.2307692,36 C58.7692308,37.0769231 60.6153846,37.8461538 62.4615385,37.8461538 C65.6923077,37.8461538 68.4615385,36.1538462 70,33.5384615 C82.7692308,39.2307692 91.0769231,51.8461538 91.0769231,66 C91.0769231,85.5384615 75.0769231,101.538462 55.5384615,101.538462 C42.9230769,101.538462 31.3846154,94.9230769 24.9230769,84 L41.6923077,84 C42.6153846,84 43.2307692,83.3846154 43.2307692,82.4615385 L43.2307692,74.1538462 C43.2307692,73.2307692 42.6153846,72.6153846 41.6923077,72.6153846 L4.61538462,72.6153846 C3.69230769,72.6153846 3.07692308,73.2307692 3.07692308,74.1538462 L3.07692308,82.4615385 C3.07692308,83.3846154 3.69230769,84 4.61538462,84 L21.5384615,84 C21.5384615,84.1538462 21.5384615,84.3076923 21.6923077,84.4615385 C26.1538462,92.7692308 33.5384615,98.9230769 42.1538462,102.153846 L2.92307692,102.153846 C2,102.153846 1.38461538,102.769231 1.38461538,103.692308 L1.38461538,114.769231 C1.38461538,115.846154 2,116.615385 2.92307692,116.615385 Z M71.0769231,4.15384615 C71.5384615,3.69230769 72.1538462,3.53846154 72.7692308,3.53846154 C73.3846154,3.53846154 74,3.84615385 74.4615385,4.30769231 L76.9230769,6.92307692 C77.8461538,7.84615385 77.8461538,9.38461538 76.7692308,10.3076923 L75.6923077,11.3846154 L70,5.38461538 L71.0769231,4.15384615 Z M22.4615385,60.7692308 L18,56.1538462 L20.3076923,54 L24.7692308,58.6153846 L22.4615385,60.7692308 Z M29.0769231,58.7692308 L20,49.2307692 L66,5.53846154 L75.0769231,15.0769231 L29.0769231,58.7692308 Z M62.4615385,34.9230769 C61.3846154,34.9230769 60.3076923,34.6153846 59.3846154,34 L67.3846154,26.3076923 C67.8461538,27.2307692 68.1538462,28.1538462 68.1538462,29.0769231 C68.3076923,32.4615385 65.6923077,34.9230769 62.4615385,34.9230769 Z M6.15384615,76 L40.3076923,76 L40.3076923,81.2307692 L6.15384615,81.2307692 L6.15384615,76 Z M4.46153846,105.538462 L95.6923077,105.538462 L95.6923077,113.538462 L4.46153846,113.538462 L4.46153846,105.538462 Z" id="path-1"></path>
    </defs>
    <g id="Page-1" stroke="none" stroke-width="1" fill="none" fill-rule="evenodd">
        <g id="Desktop-HD" transform="translate(-756.000000, -432.000000)" fill-rule="nonzero">
            <g id="noun_820381_cc" transform="translate(756.000000, 433.000000)">
                <g id="Shape">
                    <use stroke="#979797" stroke-width="1" fill="#3C4145" fill-rule="evenodd" xlink:href="#path-1"></use>
                    <use stroke="#979797" stroke-width="1" xlink:href="#path-1"></use>
                    <use stroke="#979797" stroke-width="1" xlink:href="#path-1"></use>
                    <use stroke="#979797" stroke-width="1" xlink:href="#path-1"></use>
                    <use stroke="#979797" stroke-width="1" xlink:href="#path-1"></use>
                    <use stroke="#979797" stroke-width="1" xlink:href="#path-1"></use>
                    <use stroke="#979797" stroke-width="1" xlink:href="#path-1"></use>
                    <use stroke="#979797" stroke-width="1" xlink:href="#path-1"></use>
                    <use stroke="#979797" stroke-width="1" xlink:href="#path-1"></use>
                    <use stroke="#979797" stroke-width="1" xlink:href="#path-1"></use>
                    <use stroke="#979797" stroke-width="1" xlink:href="#path-1"></use>
                    <use stroke="#979797" stroke-width="1" xlink:href="#path-1"></use>
                    <use stroke="#3C4145" stroke-width="1" xlink:href="#path-1"></use>
                    <use stroke="#3C4145" stroke-width="2" xlink:href="#path-1"></use>
                </g>
            </g>
        </g>
    </g>
</svg>