<?xml version="1.0" encoding="UTF-8"?>
<svg width="65px" height="57px" viewBox="0 0 65 57" version="1.1" xmlns="http://www.w3.org/2000/svg" xmlns:xlink="http://www.w3.org/1999/xlink">
    <!-- Generator: Sketch 42 (36781) - http://www.bohemiancoding.com/sketch -->
    <title>Page 1</title>
    <desc>Created with Sketch.</desc>
    <defs>
        <polygon id="path-1" points="1.74641895e-19 0.200748299 1.74641895e-19 24.6145125 12.1266501 24.6145125 24.2533003 24.6145125 24.2533003 0.200748299 0 0.200748299"></polygon>
    </defs>
    <g id="Page-1" stroke="none" stroke-width="1" fill="none" fill-rule="evenodd">
        <g id="Programa-ValBio" transform="translate(-356.000000, -2515.000000)">
            <g id="sección_conocemás" transform="translate(249.000000, 2344.000000)">
                <g id="card_conocemás" transform="translate(0.000000, 89.000000)">
                    <g id="Page-1" transform="translate(107.000000, 82.000000)">
                        <path d="M17.3542988,20.3445873 L12.1289052,20.3445873 C11.011019,20.3445873 10.1057566,21.2557664 10.1057566,22.3777166 C10.1057566,23.5029093 11.011019,24.4140884 12.1289052,24.4140884 L24.2549111,24.4140884 L24.2549111,12.205585 C24.2549111,11.0836349 23.3496487,10.1724558 22.2317624,10.1724558 C21.1170977,10.1724558 20.2118353,11.0836349 20.2118353,12.205585 L20.2118353,17.4683741 L3.44998397,0.596968254 C2.66069825,-0.19747619 1.38173324,-0.19747619 0.592447522,0.596968254 C-0.196838192,1.3914127 -0.196838192,2.67873696 0.592447522,3.47318141 L17.3542988,20.3445873 Z" id="Fill-1" fill="#B6BE34"></path>
                        <path d="M47.3255714,36.620322 L52.550965,36.620322 C53.6688513,36.620322 54.5741137,35.7091429 54.5741137,34.5871927 C54.5741137,33.462 53.6688513,32.5508209 52.550965,32.5508209 L40.4249592,32.5508209 L40.4249592,44.7593243 C40.4249592,45.8812744 41.3302216,46.7924535 42.4448863,46.7924535 C43.5627726,46.7924535 44.468035,45.8812744 44.468035,44.7593243 L44.468035,39.4965351 L61.2298863,56.367941 C61.6229184,56.7667846 62.1415918,56.964585 62.6602653,56.964585 C63.1757172,56.964585 63.6943907,56.7667846 64.0874227,56.367941 C64.8767085,55.5734966 64.8767085,54.2861723 64.0874227,53.4917279 L47.3255714,36.620322 Z" id="Fill-3" fill="#B6BE34"></path>
                        <g id="Group-7" transform="translate(0.000000, 32.350721)">
                            <mask id="mask-2" fill="white">
                                <use xlink:href="#path-1"></use>
                            </mask>
                            <g id="Clip-6"></g>
                            <path d="M2.02121574,24.6145125 C2.53988921,24.6145125 3.05534111,24.416712 3.44837318,24.0178685 L20.2134461,7.14646259 L20.2134461,12.4092517 C20.2134461,13.5312018 21.1154869,14.442381 22.2333732,14.442381 C23.3480379,14.442381 24.2533003,13.5312018 24.2533003,12.4092517 L24.2533003,0.200748299 L12.1272945,0.200748299 C11.0126297,0.200748299 10.1073673,1.11192744 10.1073673,2.23387755 C10.1073673,3.35907029 11.0126297,4.27024943 12.1272945,4.27024943 L17.3559096,4.27024943 L0.590836735,21.1416553 C-0.19844898,21.9360998 -0.19844898,23.223424 0.590836735,24.0178685 C0.987090379,24.416712 1.50254227,24.6145125 2.02121574,24.6145125" id="Fill-5" fill="#B6BE34" mask="url(#mask-2)"></path>
                        </g>
                        <path d="M61.2295641,0.595995465 L44.4677128,17.4674014 L44.4677128,12.2078549 C44.4677128,11.0826621 43.5624504,10.171483 42.4445641,10.171483 C41.3298994,10.171483 40.424637,11.0826621 40.424637,12.2078549 L40.424637,24.4131156 L52.5538644,24.4131156 C53.6685292,24.4131156 54.5737915,23.5019365 54.5737915,22.3799864 C54.5737915,21.2547937 53.6685292,20.3436145 52.5538644,20.3436145 L47.3252493,20.3436145 L64.0871006,3.47220862 C64.8763863,2.67776417 64.8763863,1.39043991 64.0871006,0.595995465 C63.3010364,-0.19844898 62.0188499,-0.19844898 61.2295641,0.595995465" id="Fill-8" fill="#B6BE34"></path>
                    </g>
                </g>
            </g>
        </g>
    </g>
</svg>