<?xml version="1.0" encoding="utf-8"?>
<!-- Generator: Adobe Illustrator 21.0.2, SVG Export Plug-In . SVG Version: 6.00 Build 0)  -->
<svg version="1.1" id="Capa_1" xmlns="http://www.w3.org/2000/svg" xmlns:xlink="http://www.w3.org/1999/xlink" x="0px" y="0px"
	 viewBox="0 0 50 50" style="enable-background:new 0 0 50 50;" xml:space="preserve">
<style type="text/css">
	.st0{fill:#404346;}
</style>
<g>
	<path class="st0" d="M35.6,15.7c0.3-0.3,0.4-0.7,0.4-1.1c0-0.9-0.7-1.5-1.6-1.5c-0.9,0-1.5,0.8-1.5,1.6c0,0.9,0.8,1.5,1.5,1.5
		C35,16.2,35.4,15.9,35.6,15.7z"/>
	<path class="st0" d="M20.8,38c-0.7,0.3-1.1,1.1-0.8,1.7c0.2,0.5,0.8,0.9,1.3,0.9c0.2,0,0.3,0,0.5-0.1c0.3-0.1,7.8-3.3,7.8-10.4
		c0-3.3-2.7-6.5-8.1-6.5c-7,0-9.6,4.4-9.7,4.5c-0.4,0.7-0.2,1.4,0.4,1.8c0.7,0.4,1.5,0.2,1.8-0.4c0.1-0.1,2.1-3.2,7.4-3.2
		c3.5,0,5.3,2,5.3,3.8C26.9,35.4,20.8,37.9,20.8,38z"/>
	<path class="st0" d="M34.5,8C27.1,8,20.3,13,12,19.5c-9.6,7.6-10.8,14-10.8,19.3c0,0.9,0.3,1.7,1,2.4c1.4,1.4,4.2,2.1,8.5,2.1
		c0.2,0,0.3,0,0.5,0c0.5,0,1.1,0,1.4,0c1.1,0.7,3.7,1.8,9.5,1.8c0.1,0,0.2,0,0.3,0c2.6,0,5.7-0.2,8.9-0.7c0.8-0.1,1.3-0.8,1.2-1.5
		c-0.1-0.8-0.8-1.3-1.5-1.2c-3.3,0.4-6.3,0.7-8.8,0.7c-4.5,0-6.7-0.8-7.6-1.2c0.3-1.4,1.6-3.5,2.5-4.6c0.4-0.5,0.3-1.4-0.2-2
		c-0.5-0.4-1.4-0.3-2,0.2c-0.3,0.3-2.4,3-2.9,5.5c-0.2,0-0.4,0-0.7,0c-4.2,0-6.4-0.7-7.1-1.3c-0.2-0.2-0.2-0.3-0.2-0.4
		c0-3,0-9.2,9.8-17.1c9.1-7.3,14.8-11,20.8-11c7.3,0,11.6,2.9,11.6,3.9c0,3.2-1.8,6.1-11.1,10c-0.3,0.1-0.7,0.4-0.8,0.9
		c0,0.1-0.7,2.1-0.7,4.9c0,7.4,3.3,11.4,3.4,11.6c0.2,0.3,0.7,0.5,1.1,0.5h4.9c0.8,0,1.3-0.7,1.3-1.3c0-0.8-0.7-1.3-1.3-1.3h-4.2
		c-0.8-1.2-2.4-4.4-2.4-9.4c0-1.5,0.2-2.8,0.4-3.5C45.6,23.2,49,19.8,49,14.7C48.9,11.2,42,8,34.5,8z"/>
</g>
</svg>
