<?xml version="1.0" encoding="UTF-8"?>
<svg width="50px" height="55px" viewBox="0 0 50 55" version="1.1" xmlns="http://www.w3.org/2000/svg" xmlns:xlink="http://www.w3.org/1999/xlink">
    <!-- Generator: Sketch 42 (36781) - http://www.bohemiancoding.com/sketch -->
    <title>arrow</title>
    <desc>Created with Sketch.</desc>
    <defs>
        <polygon id="path-1" points="0 54.1137609 0 0.0358217854 49.8553299 0.0358217854 49.8553299 54.1137609 5.07614213e-05 54.1137609 5.07614213e-05 0.0358093969 49.8554518 0.0358093969 49.8554518 54.1138625 5.07614213e-05 54.1138625"></polygon>
    </defs>
    <g id="Page-1" stroke="none" stroke-width="1" fill="none" fill-rule="evenodd">
        <g id="Home" transform="translate(-695.000000, -527.000000)">
            <g id="hero" transform="translate(530.000000, 310.000000)">
                <g id="arrow" transform="translate(165.000000, 217.000000)">
                    <g id="Group-3" transform="translate(0.000000, 0.218233)">
                        <mask id="mask-2" fill="white">
                            <use xlink:href="#path-1"></use>
                        </mask>
                        <g id="Clip-2"></g>
                        <path d="M47.5175635,35.9448497 L47.4888832,36.1463155 C47.4459898,36.4737927 47.3868528,36.7964428 47.3135025,37.1066442 C47.2985279,37.1554228 47.286599,37.2052176 47.2777157,37.2560287 C46.6838071,39.4124494 45.2609645,41.2868687 43.3640102,42.4072522 L29.4505584,50.6432142 C27.8355838,51.5905861 25.9274619,51.9889447 24.0764467,51.7674085 C22.9406599,51.6309809 21.8683249,51.2803847 20.8871066,50.7240038 L6.81020305,42.7769026 C4.15258883,41.274166 2.47974619,38.4439909 2.44446701,35.3922796 L2.28431472,19.2178543 C2.28431472,18.8583662 2.30385787,18.5334296 2.34472081,18.2242444 L2.35411168,18.0832437 C2.35588832,18.0603788 2.35994924,18.0387841 2.36477157,18.0037245 C2.41274112,17.6391552 2.47492386,17.3175213 2.5551269,17.0205308 L2.59446701,16.8719085 L2.59446701,16.8609841 C3.1835533,14.721077 4.59827411,12.8601226 6.48913706,11.7430418 L20.4152792,3.50555548 C22.0218782,2.55818359 23.9297462,2.15957095 25.7868528,2.38288549 C26.9145178,2.51829692 27.9835533,2.86914717 28.966802,3.42654431 L43.0518274,11.3726293 C45.7132487,12.8822254 47.3827919,15.7113843 47.408934,18.7580144 L47.5693401,34.9438722 L47.5695939,34.9626723 C47.5784772,35.2992954 47.5470051,35.6620863 47.5175635,35.9448497 L47.5175635,35.9448497 Z M49.693198,18.7366738 C49.6596954,14.8780831 47.5464975,11.2941262 44.1756853,9.38210667 L30.0904061,1.43576764 C28.8449746,0.729494145 27.4886294,0.284389408 26.0594416,0.112648083 C23.7066497,-0.170623483 21.2909137,0.334946396 19.2543655,1.53637351 L5.32746193,9.77436792 C2.90918782,11.2029204 1.10588832,13.5884989 0.372639594,16.3264519 C0.350304569,16.3940306 0.335837563,16.4567823 0.326700508,16.5124203 C0.231015228,16.8820707 0.156903553,17.2725536 0.101827411,17.6930149 C0.0914213198,17.7646585 0.0769543147,17.8660265 0.0718781726,17.9882271 C0.0236548223,18.3779478 5.07614213e-05,18.7813875 5.07614213e-05,19.2290328 L0.160456853,35.4166689 C0.204873096,39.2826271 2.32263959,42.8655678 5.68736041,44.7679333 L19.7632487,52.7145264 C21.0071574,53.4197837 22.366802,53.8648884 23.8041117,54.0373919 C24.2284772,54.088711 24.6546193,54.1138625 25.081269,54.1138625 C27.0094416,54.1138625 28.9330457,53.5971142 30.6094416,52.6136665 L44.5259391,44.3759261 C46.9548731,42.9412763 48.7695939,40.5341031 49.5046193,37.7725229 L49.5429442,37.6277115 L49.5429442,37.6048465 C49.6310152,37.2283367 49.7015736,36.8393781 49.7518274,36.4577872 L49.7871066,36.2047482 C49.8241624,35.8521196 49.8652792,35.3871985 49.8533503,34.9126234 L49.693198,18.7366738 Z" id="Fill-1" fill="#FEFEFE"></path>
                    </g>
                    <path d="M26.0698731,35.2436827 L26.0698731,14.7533674 C26.0698731,14.1220402 25.5584518,13.610119 24.9277411,13.610119 C24.2970305,13.610119 23.7856091,14.1220402 23.7856091,14.7533674 L23.7856091,35.2482557 L17.2584518,28.2175317 L15.5853553,29.7771767 L24.9254569,39.8331902 L34.2678426,29.7771767 L32.5947462,28.2175317 L26.0698731,35.2436827 Z" id="Fill-4" fill="#FEFEFE"></path>
                </g>
            </g>
        </g>
    </g>
</svg>