<?xml version="1.0" encoding="UTF-8"?>
<svg width="46px" height="41px" viewBox="0 0 46 41" version="1.1" xmlns="http://www.w3.org/2000/svg" xmlns:xlink="http://www.w3.org/1999/xlink">
    <!-- Generator: Sketch 42 (36781) - http://www.bohemiancoding.com/sketch -->
    <title>Page 1 Copy 3</title>
    <desc>Created with Sketch.</desc>
    <defs></defs>
    <g id="Page-1" stroke="none" stroke-width="1" fill="none" fill-rule="evenodd">
        <g id="Biodiversidad-en-números" transform="translate(-1226.000000, -1877.000000)" fill="#3C4145">
            <path d="M1248.61202,1906.89309 L1244.36096,1906.89309 L1244.31573,1906.89309 L1244.18006,1906.89309 L1244.08961,1906.89309 C1244.04439,1906.89309 1243.99916,1906.93831 1243.95394,1906.93831 C1243.90872,1906.93831 1243.86349,1906.98353 1243.86349,1906.98353 C1243.81827,1906.98353 1243.77304,1907.02876 1243.72782,1907.02876 C1243.6826,1907.02876 1243.6826,1907.07398 1243.63737,1907.07398 C1243.59215,1907.11921 1243.54692,1907.11921 1243.54692,1907.16443 C1243.5017,1907.20965 1243.5017,1907.20965 1243.45648,1907.25488 C1243.41125,1907.3001 1243.41125,1907.3001 1243.36603,1907.34533 C1243.3208,1907.39055 1243.3208,1907.39055 1243.27558,1907.43577 C1243.27558,1907.481 1243.23036,1907.52622 1243.23036,1907.52622 C1243.23036,1907.57145 1243.18513,1907.61667 1243.18513,1907.66189 L1243.18513,1907.70712 C1242.32588,1910.42056 1242.59722,1913.49579 1242.86856,1915.34998 L1241.19527,1915.34998 C1241.15005,1914.58117 1241.15005,1913.54102 1241.37617,1912.63654 C1241.55707,1911.95818 1241.10483,1911.27982 1240.42647,1911.09892 C1239.74811,1910.91802 1239.06975,1911.37026 1238.88885,1912.04862 C1238.66273,1913.04355 1238.57228,1914.2646 1238.6175,1915.34998 L1237.17034,1915.34998 C1237.62258,1907.25488 1242.1902,1900.83306 1247.79798,1900.83306 L1249.5165,1900.83306 L1249.65217,1900.83306 L1250.37575,1900.83306 C1251.09934,1900.83306 1251.64203,1900.24515 1251.64203,1899.56679 C1251.64203,1898.84321 1251.05411,1898.30052 1250.37575,1898.30052 C1238.9793,1898.30052 1229.61792,1891.92393 1228.71344,1883.82883 C1241.96408,1884.05495 1251.68725,1887.76332 1251.68725,1891.06467 C1251.68725,1891.78826 1252.27516,1892.33095 1252.95352,1892.33095 C1253.63188,1892.33095 1254.2198,1891.74303 1254.2198,1891.06467 L1254.2198,1887.67287 C1254.2198,1885.54734 1255.93831,1883.82883 1258.06384,1883.82883 C1260.18937,1883.82883 1261.90788,1885.54734 1261.90788,1887.67287 C1261.90788,1887.76332 1261.90788,1887.85377 1261.95311,1887.94422 C1260.86773,1888.93914 1260.23459,1890.38631 1260.23459,1891.96915 L1260.23459,1895.36096 C1260.14414,1901.69232 1254.94338,1906.89309 1248.61202,1906.89309 M1237.07989,1879.62299 C1242.41632,1879.93956 1247.02917,1882.20076 1249.5165,1885.41167 C1246.44126,1883.7836 1242.09976,1882.653 1237.35123,1881.97464 C1237.21556,1881.20583 1237.12511,1880.3918 1237.07989,1879.62299 M1269.95776,1886.4066 L1264.25953,1886.4066 C1263.67162,1883.46704 1261.09385,1881.29628 1257.97339,1881.29628 C1255.44084,1881.29628 1253.27009,1882.78868 1252.22994,1884.91421 C1249.24515,1880.21091 1243.00424,1877 1235.81361,1877 L1235.76839,1877 L1235.72317,1877 C1234.99958,1877 1234.45689,1877.58791 1234.45689,1878.26627 C1234.45689,1879.39687 1234.54734,1880.52747 1234.68301,1881.61285 C1232.24092,1881.38673 1229.70837,1881.25106 1227.22105,1881.25106 C1226.58791,1881.29628 1226,1881.83897 1226,1882.56256 C1226,1890.61243 1232.87405,1897.44126 1242.41632,1899.92858 C1237.75825,1902.7777 1234.50212,1909.19951 1234.50212,1916.7067 C1234.50212,1917.43028 1235.09003,1917.97297 1235.76839,1917.97297 L1240.01945,1917.97297 L1244.27051,1917.97297 C1244.36096,1917.97297 1244.45141,1917.97297 1244.54185,1917.92775 C1244.58708,1917.92775 1244.58708,1917.92775 1244.6323,1917.88252 C1244.67753,1917.88252 1244.72275,1917.8373 1244.76797,1917.8373 C1244.8132,1917.8373 1244.85842,1917.79208 1244.85842,1917.79208 C1244.90365,1917.79208 1244.94887,1917.74685 1244.94887,1917.70163 C1244.99409,1917.6564 1244.99409,1917.6564 1245.03932,1917.61118 L1245.12977,1917.52073 C1245.17499,1917.47551 1245.17499,1917.47551 1245.22021,1917.43028 L1245.31066,1917.33984 C1245.31066,1917.29461 1245.35589,1917.29461 1245.35589,1917.24939 C1245.35589,1917.20416 1245.40111,1917.15894 1245.40111,1917.11372 C1245.40111,1917.06849 1245.44633,1917.02327 1245.44633,1916.97804 C1245.44633,1916.93282 1245.49156,1916.8876 1245.49156,1916.84237 L1245.49156,1916.7067 L1245.49156,1916.61625 L1245.49156,1916.57103 L1245.49156,1916.43536 L1245.49156,1916.29968 L1245.49156,1916.25446 C1245.49156,1916.20924 1244.58708,1912.54609 1245.22021,1909.33518 L1248.61202,1909.33518 C1256.39055,1909.33518 1262.67669,1903.00382 1262.67669,1895.27051 L1262.67669,1891.87871 C1262.67669,1890.25064 1264.03341,1888.89392 1265.66148,1888.89392 L1269.91254,1888.89392 C1270.63612,1888.89392 1271.17881,1888.30601 1271.17881,1887.62765 C1271.17881,1886.94929 1270.63612,1886.4066 1269.95776,1886.4066" id="Page-1-Copy-3"></path>
        </g>
    </g>
</svg>