<?xml version="1.0" encoding="UTF-8"?>
<svg width="35px" height="36px" viewBox="0 0 35 36" version="1.1" xmlns="http://www.w3.org/2000/svg" xmlns:xlink="http://www.w3.org/1999/xlink">
    <!-- Generator: Sketch 43.2 (39069) - http://www.bohemiancoding.com/sketch -->
    <title>noun_812177_cc</title>
    <desc>Created with Sketch.</desc>
    <defs></defs>
    <g id="Page-1" stroke="none" stroke-width="1" fill="none" fill-rule="evenodd">
        <g id="noun_812177_cc" fill-rule="nonzero" fill="#404346">
            <g id="Group">
                <g id="Shape">
                    <path d="M11.3997917,14.5831875 C6.71458193,14.5831875 2.91666667,10.7852722 2.91666667,6.1000625 L2.91666667,2.91652083 L6.10020833,2.91652083 C10.7854181,2.91652083 14.5833333,6.71443609 14.5833333,11.3996458 L14.5833333,14.5831875 L11.3997917,14.5831875 Z M16.0416667,17.4998542 C16.8470819,17.4998542 17.5,16.846936 17.5,16.0415208 L17.5,11.3996458 C17.5,5.10360557 12.3962486,-0.000145833333 6.10020833,-0.000145833333 L1.45833333,-0.000145833333 C0.652918073,-0.000145833333 0,0.65277224 0,1.4581875 L0,6.1000625 C0,12.3961028 5.10375141,17.4998542 11.3997917,17.4998542 L16.0416667,17.4998542 Z"></path>
                    <path d="M21.875,21.8748542 L23.6002083,21.8748542 C29.8962485,21.8748542 35,16.7711027 35,10.4750625 L35,8.74985417 C35,7.94443891 34.3470819,7.29152083 33.5416667,7.29152083 L31.8164583,7.29152083 C25.5204181,7.29152083 20.4166667,12.3952722 20.4166667,18.6913125 L20.4166667,20.4165208 C20.4166667,21.221936 21.0695848,21.8748542 21.875,21.8748542 Z M23.3333333,18.6913125 C23.3333333,14.0061028 27.1312485,10.2081875 31.8164583,10.2081875 L32.0833333,10.2081875 L32.0833333,10.4750625 C32.0833333,15.1602723 28.2854181,18.9581875 23.6002083,18.9581875 L23.3333333,18.9581875 L23.3333333,18.6913125 Z"></path>
                    <path d="M22.5354891,26.0990526 L20.4092391,23.9728026 C15.6382959,19.2018595 7.90319336,19.2018595 3.13077323,23.9726236 L1.00434428,26.0990526 C0.11769869,26.98976 0.11769869,28.4271983 1.00198726,29.3155433 L3.13059428,31.4441558 C7.90319336,36.2150988 15.6382959,36.2150988 20.4092391,31.4441558 L22.5354891,29.3179058 C23.4243787,28.4290161 23.4243787,26.9879422 22.5354891,26.0990526 Z M18.3468443,29.3817609 C14.7148708,33.0137345 8.82622331,33.0137345 5.1928101,29.381582 L3.51970515,27.708477 L5.19298905,26.0351974 C8.82622331,22.4032238 14.7148708,22.4032238 18.3468443,26.0351974 L20.020126,27.7084792 L18.3468443,29.3817609 Z"></path>
                    <path d="M2.91666667,29.1665208 L20.4166667,29.1665208 C21.2220819,29.1665208 21.875,28.5136027 21.875,27.7081875 C21.875,26.9027723 21.2220819,26.2498542 20.4166667,26.2498542 L2.91666667,26.2498542 C2.11125141,26.2498542 1.45833333,26.9027723 1.45833333,27.7081875 C1.45833333,28.5136027 2.11125141,29.1665208 2.91666667,29.1665208 Z"></path>
                    <path d="M1.88546928,3.94771822 L13.5521359,15.6143849 C14.1216505,16.1838995 15.0450161,16.1838995 15.6145308,15.6143849 C16.1840454,15.0448703 16.1840454,14.1215047 15.6145308,13.5519901 L3.94786405,1.88532345 C3.37834946,1.31580885 2.45498387,1.31580885 1.88546928,1.88532345 C1.31595469,2.45483804 1.31595469,3.37820363 1.88546928,3.94771822 Z"></path>
                </g>
            </g>
        </g>
    </g>
</svg>