<?xml version="1.0" encoding="UTF-8"?>
<svg width="19px" height="20px" viewBox="0 0 19 20" version="1.1" xmlns="http://www.w3.org/2000/svg" xmlns:xlink="http://www.w3.org/1999/xlink">
    <!-- Generator: Sketch 42 (36781) - http://www.bohemiancoding.com/sketch -->
    <title>Page 1</title>
    <desc>Created with Sketch.</desc>
    <defs></defs>
    <g id="Page-1" stroke="none" stroke-width="1" fill="none" fill-rule="evenodd">
        <g id="Noticas_Interna" transform="translate(-730.000000, -342.000000)" fill="#9B9B9B">
            <g id="evento" transform="translate(730.000000, 341.000000)">
                <path d="M1.45408163,19.0306122 L17.5459184,19.0306122 L17.5459184,10.6938776 L1.45408163,10.6938776 L1.45408163,19.0306122 Z M1.45408163,4.63520408 L4.07142857,4.63520408 L4.07142857,6.57397959 C4.07142857,6.97530612 4.39665816,7.30102041 4.79846939,7.30102041 C5.20028061,7.30102041 5.5255102,6.97530612 5.5255102,6.57397959 L5.5255102,4.63520408 L8.77295918,4.63520408 L8.77295918,6.67091837 C8.77295918,7.0722449 9.09818878,7.39795918 9.5,7.39795918 C9.90132653,7.39795918 10.2270408,7.0722449 10.2270408,6.67091837 L10.2270408,4.63520408 L13.2801276,4.63520408 L13.2801276,6.67091837 C13.2801276,7.0722449 13.6058418,7.39795918 14.0071684,7.39795918 C14.4089796,7.39795918 14.7342092,7.0722449 14.7342092,6.67091837 L14.7342092,4.63520408 L17.5459184,4.63520408 L17.5459184,9.23979592 L1.45408163,9.23979592 L1.45408163,4.63520408 Z M18.2729592,3.18112245 L14.7342092,3.18112245 L14.7342092,1.82397959 C14.7342092,1.42216837 14.4089796,1.09693878 14.0071684,1.09693878 C13.6058418,1.09693878 13.2801276,1.42216837 13.2801276,1.82397959 L13.2801276,3.18112245 L10.2270408,3.18112245 L10.2270408,1.82397959 C10.2270408,1.42216837 9.90132653,1.09693878 9.5,1.09693878 C9.09818878,1.09693878 8.77295918,1.42216837 8.77295918,1.82397959 L8.77295918,3.18112245 L5.5255102,3.18112245 L5.5255102,1.72704082 C5.5255102,1.32522959 5.20028061,1 4.79846939,1 C4.39665816,1 4.07142857,1.32522959 4.07142857,1.72704082 L4.07142857,3.18112245 L0.727040816,3.18112245 C0.325229592,3.18112245 0,3.50635204 0,3.90816327 L0,9.96683673 L0,19.7576531 C0,20.1589796 0.325229592,20.4846939 0.727040816,20.4846939 L18.2729592,20.4846939 C18.6742857,20.4846939 19,20.1589796 19,19.7576531 L19,9.96683673 L19,3.90816327 C19,3.50635204 18.6742857,3.18112245 18.2729592,3.18112245 L18.2729592,3.18112245 Z" id="Page-1"></path>
            </g>
        </g>
    </g>
</svg>