<?xml version="1.0" encoding="UTF-8"?>
<svg width="65px" height="67px" viewBox="0 0 65 67" version="1.1" xmlns="http://www.w3.org/2000/svg" xmlns:xlink="http://www.w3.org/1999/xlink">
    <!-- Generator: Sketch 42 (36781) - http://www.bohemiancoding.com/sketch -->
    <title>Page 1</title>
    <desc>Created with Sketch.</desc>
    <defs></defs>
    <g id="Page-1" stroke="none" stroke-width="1" fill="none" fill-rule="evenodd">
        <g id="Programa-ValBio" transform="translate(-602.000000, -2262.000000)" fill="#B5BD00">
            <path d="M606.97449,2323.68367 L662.02551,2323.68367 L662.02551,2295.16327 L606.97449,2295.16327 L606.97449,2323.68367 Z M606.97449,2274.43622 L615.928571,2274.43622 L615.928571,2281.06888 C615.928571,2282.44184 617.041199,2283.55612 618.415816,2283.55612 C619.790434,2283.55612 620.903061,2282.44184 620.903061,2281.06888 L620.903061,2274.43622 L632.012755,2274.43622 L632.012755,2281.40051 C632.012755,2282.77347 633.125383,2283.88776 634.5,2283.88776 C635.872959,2283.88776 636.987245,2282.77347 636.987245,2281.40051 L636.987245,2274.43622 L647.432015,2274.43622 L647.432015,2281.40051 C647.432015,2282.77347 648.546301,2283.88776 649.91926,2283.88776 C651.293878,2283.88776 652.406505,2282.77347 652.406505,2281.40051 L652.406505,2274.43622 L662.02551,2274.43622 L662.02551,2290.18878 L606.97449,2290.18878 L606.97449,2274.43622 Z M652.406505,2269.46173 L652.406505,2264.81888 C652.406505,2263.44426 651.293878,2262.33163 649.91926,2262.33163 C648.546301,2262.33163 647.432015,2263.44426 647.432015,2264.81888 L647.432015,2269.46173 L636.987245,2269.46173 L636.987245,2264.81888 C636.987245,2263.44426 635.872959,2262.33163 634.5,2262.33163 C633.125383,2262.33163 632.012755,2263.44426 632.012755,2264.81888 L632.012755,2269.46173 L620.903061,2269.46173 L620.903061,2264.48724 C620.903061,2263.11263 619.790434,2262 618.415816,2262 C617.041199,2262 615.928571,2263.11263 615.928571,2264.48724 L615.928571,2269.46173 L604.487245,2269.46173 C603.112628,2269.46173 602,2270.57436 602,2271.94898 L602,2292.67602 L602,2326.17092 C602,2327.54388 603.112628,2328.65816 604.487245,2328.65816 L664.512755,2328.65816 C665.885714,2328.65816 667,2327.54388 667,2326.17092 L667,2292.67602 L667,2271.94898 C667,2270.57436 665.885714,2269.46173 664.512755,2269.46173 L652.406505,2269.46173 Z" id="Page-1"></path>
        </g>
    </g>
</svg>