<?xml version="1.0" encoding="UTF-8"?>
<svg width="19px" height="20px" viewBox="0 0 19 20" version="1.1" xmlns="http://www.w3.org/2000/svg" xmlns:xlink="http://www.w3.org/1999/xlink">
    <!-- Generator: Sketch 42 (36781) - http://www.bohemiancoding.com/sketch -->
    <title>Page 1</title>
    <desc>Created with Sketch.</desc>
    <defs></defs>
    <g id="Page-1" stroke="none" stroke-width="1" fill="none" fill-rule="evenodd">
        <g id="Eventos_Interna" transform="translate(-975.000000, -765.000000)" fill="#00587C">
            <g id="Group-3" transform="translate(975.000000, 707.000000)">
                <g id="Group" transform="translate(0.000000, 58.000000)">
                    <path d="M1.45408163,18.0306122 L17.5459184,18.0306122 L17.5459184,9.69387755 L1.45408163,9.69387755 L1.45408163,18.0306122 Z M1.45408163,3.63520408 L4.07142857,3.63520408 L4.07142857,5.57397959 C4.07142857,5.97530612 4.39665816,6.30102041 4.79846939,6.30102041 C5.20028061,6.30102041 5.5255102,5.97530612 5.5255102,5.57397959 L5.5255102,3.63520408 L8.77295918,3.63520408 L8.77295918,5.67091837 C8.77295918,6.0722449 9.09818878,6.39795918 9.5,6.39795918 C9.90132653,6.39795918 10.2270408,6.0722449 10.2270408,5.67091837 L10.2270408,3.63520408 L13.2801276,3.63520408 L13.2801276,5.67091837 C13.2801276,6.0722449 13.6058418,6.39795918 14.0071684,6.39795918 C14.4089796,6.39795918 14.7342092,6.0722449 14.7342092,5.67091837 L14.7342092,3.63520408 L17.5459184,3.63520408 L17.5459184,8.23979592 L1.45408163,8.23979592 L1.45408163,3.63520408 Z M18.2729592,2.18112245 L14.7342092,2.18112245 L14.7342092,0.823979592 C14.7342092,0.422168367 14.4089796,0.0969387755 14.0071684,0.0969387755 C13.6058418,0.0969387755 13.2801276,0.422168367 13.2801276,0.823979592 L13.2801276,2.18112245 L10.2270408,2.18112245 L10.2270408,0.823979592 C10.2270408,0.422168367 9.90132653,0.0969387755 9.5,0.0969387755 C9.09818878,0.0969387755 8.77295918,0.422168367 8.77295918,0.823979592 L8.77295918,2.18112245 L5.5255102,2.18112245 L5.5255102,0.727040816 C5.5255102,0.325229592 5.20028061,0 4.79846939,0 C4.39665816,0 4.07142857,0.325229592 4.07142857,0.727040816 L4.07142857,2.18112245 L0.727040816,2.18112245 C0.325229592,2.18112245 1.13686838e-13,2.50635204 1.13686838e-13,2.90816327 L1.13686838e-13,8.96683673 L1.13686838e-13,18.7576531 C1.13686838e-13,19.1589796 0.325229592,19.4846939 0.727040816,19.4846939 L18.2729592,19.4846939 C18.6742857,19.4846939 19,19.1589796 19,18.7576531 L19,8.96683673 L19,2.90816327 C19,2.50635204 18.6742857,2.18112245 18.2729592,2.18112245 L18.2729592,2.18112245 Z" id="Page-1"></path>
                </g>
            </g>
        </g>
    </g>
</svg>