<?xml version="1.0" encoding="utf-8"?>
<!-- Generator: Adobe Illustrator 21.0.2, SVG Export Plug-In . SVG Version: 6.00 Build 0)  -->
<svg version="1.1" id="Capa_1" xmlns="http://www.w3.org/2000/svg" xmlns:xlink="http://www.w3.org/1999/xlink" x="0px" y="0px"
	 viewBox="0 0 50 50" style="enable-background:new 0 0 50 50;" xml:space="preserve">
<style type="text/css">
	.st0{fill:#404346;}
	.st1{fill:none;stroke:#404346;stroke-width:2;stroke-linecap:round;stroke-miterlimit:10;}
	.st2{fill:#FFFFFF;stroke:#404346;stroke-width:2;stroke-linecap:round;stroke-miterlimit:10;}
</style>
<path class="st0" d="M38.4,23.6c0.7-0.9,1.1-1.7,1.1-2.5c0.8-0.3,1.2-1,1.4-1.3c1.7-2.3,0.8-5.2,0.7-5.3c0-0.1-0.1-0.2-0.2-0.3
	c0.7-0.9,0.9-2.3,0.1-3.3c-0.3-0.4-0.8-0.8-1.2-1.2c-0.5-0.4-1.2-0.5-1.9-0.5c-0.2-0.5-0.8-0.9-1.4-1C36.4,8,35.8,8,35.1,8
	c-1.3,0.1-2.7,0.9-3.4,1.4c-0.4,0.3-0.8,0.7-1.2,1c-0.4,0.4-0.6,0.7-0.6,1c-0.5,0.2-1,0.5-1.4,0.8l-1.2,1c-0.4,0.3-0.6,0.7-0.6,1
	c-0.6,0.2-1.2,0.5-1.5,0.8l-0.7,0.6c-0.1-0.3-0.2-0.6-0.3-0.8c-0.9-2.3-2.7-3.7-4.6-3.8c-0.5,0-1,0.4-1,0.9c0,0-0.3,5.1-3.7,8.6
	c-4.6,4.8-5.9,9.3-3.8,14l-1.7,1.7c-0.2,0.2-0.3,0.5-0.3,0.8c0.1,1.4,1.4,4.3,5,5.1c0.1,0,0.1,0,0.2,0c0.3,0,0.5-0.1,0.7-0.3l1-1
	c0.7,0.3,1.5,0.5,2.5,0.6c0.1,0,0.1,0,0.2,0c2.9,0,5.8-1.8,8.7-5.4c3.8-4.7,7.2-4.9,8.8-4.6c2,0.4,3.2,1.7,3.6,2.7
	c0.2,0.4,0.6,0.7,1.1,0.7c0.5-0.1,0.8-0.5,0.8-1c0-0.1,0-2.9-2.3-4.9c-0.9-0.8-2-1.3-3.3-1.7c0.6-0.9,0.7-1.8,0.6-2.5
	c0.1,0,0.3,0,0.4-0.1C37.9,24.3,38.2,23.8,38.4,23.6z M23.3,22.6c0.4,0,0.7-0.2,0.9-0.5c0.3-0.5,0.1-1.1-0.4-1.4c0,0,0,0-0.1,0
	c0.4-0.6,0.6-1.3,0.8-2c0.1,0,0.2,0.1,0.4,0.1c0.5,0.1,1,0.3,1.5,0.5c0.1,0,0.3,0.1,0.4,0.1c0.4,0,0.8-0.2,1-0.6
	c0.2-0.5,0-1.1-0.5-1.3c-0.5-0.2-1-0.4-1.6-0.6l0.7-0.5c0.4-0.3,1.4-0.6,2-0.5c0.5,0,1,0.2,1.5,0.4c0.2,0.1,0.4,0.1,0.6,0
	c0,0,0.1,0,0.1,0c0,0,0,0,0,0c0.2-0.1,0.5-0.3,0.6-0.6c0.2-0.5-0.1-1.1-0.6-1.3c-0.4-0.1-0.8-0.3-1.2-0.4l0.4-0.4
	c0.4-0.3,1.2-0.6,1.8-0.7c0.1,0,0.2,0,0.3,0c0.5,0,1,0.1,1.5,0.2c0.1,0,0.2,0,0.3,0c0.2,0,0.5-0.1,0.6-0.2c0.2-0.1,0.3-0.3,0.4-0.6
	c0.1-0.5-0.2-1.1-0.7-1.2c-0.3-0.1-0.7-0.1-1-0.2c0.1,0,0.1-0.1,0.2-0.1c0.4-0.4,1.6-0.9,2.2-0.9c0.4,0,0.8,0,1.2,0
	c-0.2,0.4-0.2,0.9,0.1,1.2c0.2,0.2,0.4,0.3,0.6,0.3c0.3,0.1,0.7,0,1-0.2c0.3-0.3,0.8-0.4,1-0.2c0.3,0.2,0.6,0.5,0.8,0.8
	c0.1,0.2,0,0.8-0.2,1l-1.3,1.3c0,0-0.1,0-0.3-0.2c-0.2-0.3-0.4-0.4-0.5-0.6c-0.2-0.2-0.3-0.3-0.6-0.5c-0.4-0.3-1.1-0.3-1.4,0.2
	c-0.3,0.4-0.3,1,0.1,1.4c0,0.1,0.1,0.1,0.2,0.1c0.1,0.1,0.2,0.2,0.3,0.3c0.1,0.1,0.1,0.2,0.3,0.3c0.2,0.2,0.1,0.8-0.1,1
	c-0.4,0.4-0.8,0.8-1.3,1.3c0,0,0,0-0.1,0c-0.1-0.1-0.1-0.2-0.2-0.3c-0.4-0.4-0.5-0.6-1-1c-0.3-0.3-0.8-0.3-1.1-0.1
	c-0.1,0.1-0.3,0.2-0.4,0.3C32,17,32.1,17.6,32.5,18c0.4,0.3,0.4,0.4,0.8,0.8c0,0.1,0.1,0.1,0.1,0.2c0.1,0.3,0,0.7-0.2,0.9l-1.3,1.3
	c-0.1,0-0.3,0-0.4-0.3c-0.2-0.2-0.4-0.4-0.5-0.5c-0.2-0.2-0.3-0.3-0.5-0.5c-0.4-0.4-1.1-0.3-1.4,0.1c-0.4,0.4-0.3,1.1,0.1,1.4
	c0,0,0,0,0,0c0,0,0,0,0,0c0.4,0.4,0.4,0.4,0.8,0.8c0,0,0,0,0,0c0.2,0.3,0.1,0.8-0.1,1l-1,1.1l-0.3,0.2c-0.1,0-0.2-0.1-0.4-0.2
	c0,0-0.1-0.1-0.1-0.1c-0.4-0.4-0.6-0.7-1.1-1.1c-0.2-0.2-0.5-0.3-0.7-0.2c-0.3,0-0.5,0.1-0.7,0.3c-0.4,0.4-0.3,1.1,0.1,1.4
	c0.4,0.4,0.6,0.5,0.9,0.9c0,0,0.1,0.1,0.1,0.1c0.2,0.4,0.2,0.8,0,1L25.5,28c-0.2,0-0.4-0.1-0.7-0.4c-0.1-0.1-0.1-0.1-0.2-0.2
	c-0.4-0.4-0.6-0.6-1-1c-0.1-0.1-0.2-0.2-0.3-0.2c-0.1,0-0.1,0-0.2,0c-0.3,0-0.5,0-0.7,0.2c-0.1,0-0.1,0.1-0.1,0.1
	c-0.4,0.4-0.4,1.1,0,1.4c0.4,0.4,0.6,0.6,1,1c0.1,0.1,0.1,0.1,0.2,0.2c-0.9,0.4-1.7,0.9-2.6,1.4c-0.3-0.3-0.6-0.6-1-1
	c0,0-0.1-0.1-0.1-0.1c0-0.3,0-0.7,0-1c0,0,0,0,0,0l0.9-0.9c0.4-0.4,0.4-1,0-1.4c-0.1-0.1-0.3-0.2-0.5-0.3c0.4-1.2,1-2.4,2-3.5
	c0.1,0.1,0.2,0.1,0.4,0.2C22.9,22.6,23.1,22.6,23.3,22.6z M14,39.9c-1.9-0.6-2.6-2-2.8-2.7l0.9-0.9c0.2,0.4,0.5,0.8,0.8,1.1
	c-0.1,0.3-0.1,0.6,0.1,0.9c0,0.1,0.5,0.7,1.3,1.3L14,39.9z M14.1,35.8c-3.3-4.8-2.7-9.1,2.1-14c2.9-3,3.8-6.8,4.1-8.7
	c0.8,0.4,1.5,1.2,1.9,2.3c0.3,0.7,1.1,3.2-1,5.2c-4.1,4.1-3.5,9.8-3.2,11.8C16.3,33.7,15,35,14.1,35.8z M36.2,29.3
	c-2.2-0.4-6.2,0.1-10.4,5.3c-2.6,3.1-4.9,4.7-7.3,4.7c-0.8,0-1.6-0.3-2.2-0.6c-0.1-0.1-0.1-0.1-0.2-0.1c-0.4-0.3-0.8-0.5-1-0.8
	c0.8-0.9,2.4-2.4,4.7-4c0,0,0,0,0.1,0c2.9-2,6.7-4.1,11.1-4.7C33.1,28.8,34.8,28.8,36.2,29.3z M36.8,22.5c0,0-0.1,0-0.2,0.1
	c-0.3,0.1-0.7,0-1.2-0.3c-0.4-0.3-1-0.1-1.3,0.4c-0.3,0.4-0.1,1,0.3,1.3c0.1,0.1,0.9,0.8,0.1,2.1c-0.3,0.4-0.5,0.7-0.8,0.7
	c-0.4,0.1-0.8-0.2-1-0.3c-0.4-0.4-1.1-0.3-1.4,0.2c-0.1,0.1-0.1,0.2-0.1,0.3c-0.2,0-0.3,0-0.5,0.1c-0.7,0.1-1.4,0.2-2.1,0.4
	c0.1-0.3,0.2-0.6,0.3-0.9c0.5,0,1-0.3,1.4-0.7l1.2-1.3c0.4-0.4,0.6-0.9,0.7-1.4c0.5,0,1-0.3,1.4-0.8l1.2-1.3
	c0.4-0.4,0.6-0.9,0.7-1.4c0.5-0.1,0.9-0.3,1.2-0.7c0.4-0.4,0.8-0.8,1.2-1.2c0.3-0.4,0.6-0.9,0.7-1.4c0.5,0,0.9-0.2,1.3-0.5
	c0.1,0.7,0.1,1.9-0.6,2.8c0,0,0,0.1-0.1,0.1c0,0.1-0.3,0.4-0.4,0.4c0,0-0.1,0-0.2-0.1l0,0c-0.4-0.3-1-0.2-1.3,0.3
	c-0.4,0.4-0.3,1.1,0.2,1.4c0,0,0.2,0.1,0.2,0.4c0,0.3-0.2,0.8-0.6,1.3C36.9,22.4,36.9,22.4,36.8,22.5z"/>
</svg>
