<?xml version="1.0" encoding="utf-8"?>
<!-- Generator: Adobe Illustrator 21.0.2, SVG Export Plug-In . SVG Version: 6.00 Build 0)  -->
<svg version="1.1" id="Capa_1" xmlns="http://www.w3.org/2000/svg" xmlns:xlink="http://www.w3.org/1999/xlink" x="0px" y="0px"
	 viewBox="0 0 50 50" style="enable-background:new 0 0 50 50;" xml:space="preserve">
<style type="text/css">
	.st0{fill:#404346;}
</style>
<g>
	<path class="st0" d="M8.5,27.9c-0.7,0-1.2,0.6-1.2,1.2c0,0.7,0.6,1.2,1.2,1.2c0.7,0,1.2-0.6,1.2-1.2C9.7,28.4,9.2,27.9,8.5,27.9z"
		/>
	<path class="st0" d="M46.8,22.4L46.8,22.4L40,25.5c-3.8-2.6-7.7-4.4-11.6-5.3l-0.2-3.9c0,0,0,0,0,0c-0.1-1.8-1.6-1.2-2-1l-0.1,0
		c0,0,0,0,0,0l0,0l-9.4,4.7c-8.3,1.7-14.1,6.8-16.2,8.8c-0.3,0.3-1.2,1.4-0.1,2.6c6,5.4,12.8,8.2,20.2,8.2c3.2,0,6.2-0.5,8.9-1.3
		l5.4,2.1c0,0,2.7,0.9,2-1l-1.1-3.5c2.2-1.1,3.9-2.2,4.6-2.7l5.1,2.6l0,0c0,0,2.8,1.1,1.3-2h0c-2.4-4.2,0.4-8.7,1.6-10.2
		c0,0,0,0,0,0C50.3,21,46.8,22.4,46.8,22.4z M25.6,17.7L25.6,17.7C25.6,17.7,25.6,17.7,25.6,17.7L25.6,17.7c0.3-0.1,0.9-0.4,1,0.6
		c0,0,0,0,0,0l0.1,1.6c-1.4-0.2-2.9-0.4-4.3-0.4c-0.2,0-0.3,0-0.4,0L25.6,17.7z M12.1,35c-0.3,1-1.1,1-1.5,0.9
		c-2.7-1.1-5.3-2.7-7.8-4.8c-0.7-0.8-0.4-1.4,0-1.8c1.4-1.2,3.6-3,6.6-4.6c0.5-0.2,1.4-0.4,2,0.6C12.3,27.2,13.2,30.5,12.1,35z
		 M13.4,36.9c0.1-0.4,0.3-0.7,0.3-1.1c0.3,0.5,0.7,1,1.1,1.5C14.4,37.2,13.9,37.1,13.4,36.9z M14.3,33.3c0.5-3.9-0.3-6.8-1.2-8.6
		l0,0c0,0-0.4-1.4,0.5-1.8c1.7-0.6,3.6-1.1,5.6-1.4c0.5,0,1.4,0.2,1.9,1.1c1.1,2.4,2.8,7.3,1.2,14c-0.2,0.5-0.6,1.3-1.8,1.3
		c-0.7,0-1.4,0-2.1-0.1C16.7,37,15,34.5,14.3,33.3z M31.3,34.2c0,0,0,0.1-0.1,0.2c-0.1,0.2-0.1,0.4-0.2,0.7c0,0,0,0.1,0,0.1
		c0,0,0,0,0,0.1c-0.3,0.7-0.8,1.1-1.2,1.2c-1.4,0.4-3,0.8-4.6,1.1c-0.3,0-1.2-0.1-0.9-1.5c0,0,0-0.1,0-0.1
		c1.2-6.1-0.1-10.8-1.3-13.6c0,0-0.2-1.2,1.6-1c1.7,0.2,3.4,0.5,5.1,1c0.3,0.2,1.1,0.6,1.4,1.8C31.6,26.4,32.4,30.3,31.3,34.2z
		 M32.3,37.6c0.7-0.2,1.3-0.5,1.9-0.8l0.6,1.8L32.3,37.6z M40.3,31.3l-0.5,0.3c0,0-2.4,1.8-6.1,3.4c-1,0.4-0.6-0.8-0.6-0.8l0,0
		c0.9-3.6,0.5-7-0.1-9.4l0,0c0,0,0-1.3,1.4-0.6c1.7,0.8,3.4,1.8,5,3l0.4,0.3l3.7-1.7h0c0,0,1.9-0.9,1.4,0.6c0,0,0,0,0,0
		c-0.6,1.5-1,3.3-0.8,5.2c0,0.1,0,0.2,0,0.4c0.2,1.4-1.2,0.7-1.2,0.7L40.3,31.3z"/>
</g>
</svg>
