<?xml version="1.0" encoding="UTF-8"?>
<svg width="99px" height="61px" viewBox="0 0 99 61" version="1.1" xmlns="http://www.w3.org/2000/svg" xmlns:xlink="http://www.w3.org/1999/xlink">
    <!-- Generator: Sketch 44.1 (41455) - http://www.bohemiancoding.com/sketch -->
    <title>noun_933592_cc</title>
    <desc>Created with Sketch.</desc>
    <defs></defs>
    <g id="Page-1" stroke="none" stroke-width="1" fill="none" fill-rule="evenodd">
        <g id="Desktop-HD" transform="translate(-1051.000000, -373.000000)" fill="#3C4145">
            <g id="noun_933592_cc" transform="translate(1051.000000, 370.000000)">
                <g id="Group" transform="translate(0.000000, 2.126000)">
                    <polygon id="Shape" points="26.5758587 9.717 25.0848587 12.699 32.1031933 16.208 39.16686 16.208 39.16686 12.8746667 32.89086 12.8746667"></polygon>
                    <path d="M44.4011933,9.54133333 C41.6161933,9.54133333 39.0125267,10.9346667 37.4675267,13.2523333 L37.50086,13.2056667 L29.480192,24.4033333 C29.1182541,24.9124588 29.0708399,25.5810442 29.3573057,26.13615 C29.6437714,26.6912558 30.2161821,27.0399949 30.84086,27.04 L39.05686,27.04 C40.72786,27.04 42.2905267,26.2033333 43.2171933,24.8133333 L44.5711933,22.7823333 C44.8811933,22.3173333 45.3995267,22.04 45.95786,22.04 L48.1651933,22.04 C48.4951933,22.04 48.81286,22.14 49.0831933,22.32 L74.57786,39.3183333 C75.7905267,40.1266667 76.0645267,41.7263333 75.18986,42.8923333 L75.0931933,43.029 C74.31686,44.064 72.9215267,44.3393333 71.81186,43.6733333 L58.36786,35.6073333 C57.8561221,35.3003318 57.2194688,35.2896518 56.6977213,35.5793165 C56.1759737,35.8689812 55.8483976,36.4149836 55.8383879,37.0116499 C55.8283782,37.6083161 56.1374555,38.1649984 56.6491933,38.472 L70.0931933,46.538 C72.6455267,48.0696667 75.97686,47.4156667 77.7625267,45.034 L77.8591933,44.904 C79.8555267,42.2426667 79.1951933,38.3906667 76.42686,36.545 L50.9321933,19.553 C50.10786,19.0013333 49.14386,18.7133333 48.15886,18.7133333 L45.9515267,18.7133333 C44.28086,18.7133333 42.7181933,19.55 41.7915267,20.94 L40.4441933,22.971 C40.1341933,23.436 39.61586,23.7133333 39.0571933,23.7133333 L34.0835267,23.7133333 L40.2161933,15.1523333 C40.2275708,15.1369698 40.2386836,15.1214119 40.2495267,15.1056667 C41.1771933,13.7136667 42.73686,12.879 44.4095267,12.879 L54.9041933,12.879 C55.36786,12.879 55.8311933,12.9456667 56.2781933,13.0756667 L65.80286,15.797 C67.00586,16.141 68.29686,16.017 69.4161933,15.4583333 L71.5905267,14.3713333 C72.1451586,14.1166454 72.5166042,13.5796095 72.5592181,12.9707998 C72.6018319,12.36199 72.3088215,11.7784479 71.7950775,11.4489829 C71.2813336,11.1195179 70.6287445,11.0966452 70.0931933,11.3893333 L67.9185267,12.4766667 C67.54586,12.6633333 67.1211933,12.7033333 66.72086,12.5866667 L57.19586,9.86533333 C56.4521933,9.652 55.6795267,9.54533333 54.9041933,9.54533333 L44.4011933,9.54133333 Z" id="Shape"></path>
                    <polygon id="Shape" points="83.20986 29.84 74.8765267 35.6733333 76.7905267 38.4076667 85.12386 32.5743333"></polygon>
                    <polygon id="Shape" points="15.345192 29.1956667 12.9885253 31.5523333 19.655192 38.219 22.0118587 35.8623333"></polygon>
                    <path d="M31.3805267,33.8113333 C30.1381933,34.068 28.994192,34.796 28.2488587,35.9273333 L21.6408587,45.953 C20.1518587,48.213 20.7928587,51.3033333 23.0535253,52.7886667 L23.0535253,52.7886667 C23.0548587,52.7896667 23.0518587,52.7886667 23.0535253,52.7886667 L23.2235253,52.8986667 C25.491192,54.3816667 28.5815253,53.7356667 30.0725267,51.4733333 L36.6805267,41.4473333 C38.1695267,39.1876667 37.5291933,36.097 35.26786,34.6116667 L35.0911933,34.495 C33.9571933,33.753 32.6161933,33.5466667 31.37386,33.8046667 L31.3805267,33.8113333 Z M33.27486,37.2946667 L33.44486,37.4046667 C34.21386,37.9073333 34.4085267,38.8476667 33.90086,39.6183333 L27.2925253,49.6503333 C26.7848587,50.421 25.822192,50.6156667 25.053192,50.1126667 L24.883192,50.0026667 C24.1145253,49.4996667 23.9198587,48.5533333 24.4275253,47.7826667 L31.0355267,37.7503333 C31.5435267,36.98 32.50686,36.7853333 33.2751933,37.2883333 L33.27486,37.2946667 Z" id="Shape" fill-rule="nonzero"></path>
                    <path d="M35.16286,40.3153333 C33.90686,40.5786667 32.7495267,41.3166667 31.99886,42.4633333 L27.435192,49.436 C25.9338587,51.73 26.5868587,54.8553333 28.8805253,56.3563333 C31.17386,57.8573333 34.29986,57.2043333 35.80086,54.911 L40.36486,47.9386667 C41.86586,45.645 41.2131933,42.519 38.9195267,41.0183333 C37.7725267,40.268 36.4191933,40.053 35.16286,40.3153333 L35.16286,40.3153333 Z M37.0965267,43.8046667 C37.89286,44.3256667 38.09986,45.319 37.5781933,46.116 L33.0145267,53.088 C32.49286,53.8846667 31.4995267,54.091 30.7031933,53.57 C29.906192,53.0483333 29.6998587,52.056 30.2215267,51.259 L34.7851933,44.2863333 C35.30686,43.4893333 36.2995267,43.283 37.0965267,43.8046667 L37.0965267,43.8046667 Z" id="Shape" fill-rule="nonzero"></path>
                    <path d="M39.5965267,45.4843333 C38.34186,45.7543333 37.1881933,46.4936667 36.4455267,47.6456667 L33.47686,52.255 C31.99086,54.5583333 32.6601933,57.679 34.9611933,59.169 C37.2621933,60.659 40.3895267,59.988 41.8751933,57.6846667 L44.84386,53.075 C46.32986,50.7716667 45.6601933,47.6513333 43.3595267,46.1613333 C42.2091933,45.4163333 40.8511933,45.2146667 39.5965267,45.4843333 Z M41.5431933,48.961 C42.3421933,49.4783333 42.5605267,50.4716667 42.0445267,51.272 L39.0691933,55.8746667 C38.55286,56.675 37.57086,56.8873333 36.77086,56.3693333 C35.97186,55.852 35.75986,54.8586667 36.2761933,54.0583333 L39.24486,49.4556667 C39.76086,48.6556667 40.74386,48.4433333 41.5431933,48.961 L41.5431933,48.961 Z" id="Shape" fill-rule="nonzero"></path>
                    <path d="M23.4638587,33.7723333 C22.209192,34.0423333 21.0555253,34.782 20.3125253,35.934 L17.3438587,40.5433333 C15.8585253,42.8466667 16.5338587,45.967 18.8348587,47.457 C21.135192,48.9423333 24.2578587,48.2743333 25.7425253,45.9726667 L28.711192,41.3696667 C30.19686,39.0663333 29.5275253,35.9393333 27.2268587,34.4496667 C26.076192,33.7043333 24.718192,33.503 23.4638587,33.7723333 Z M25.4168587,37.249 C26.2158587,37.7663333 26.4278587,38.7596667 25.9115253,39.5603333 L22.9428587,44.1626667 C22.4265253,44.963 21.4438587,45.175 20.6448587,44.6573333 C19.8455253,44.14 19.6338587,43.1466667 20.1498587,42.3463333 L23.1185253,37.7436667 C23.6348587,36.9433333 24.617192,36.731 25.4168587,37.249 L25.4168587,37.249 Z" id="Shape" fill-rule="nonzero"></path>
                    <path d="M54.10186,42.0273333 C53.3641416,42.05008 52.728909,42.5545325 52.539665,43.2679075 C52.3504211,43.9812825 52.6520831,44.7342601 53.2815267,45.1196667 L62.6565267,50.9856667 C65.6141933,52.834 69.5395267,52.07 71.58886,49.2473333 L73.02086,47.2746667 C73.3913737,46.7930491 73.4709309,46.1481534 73.2285728,45.5909335 C72.9862147,45.0337136 72.4602216,44.652182 71.8552778,44.5948075 C71.2503341,44.537433 70.6619901,44.8132778 70.3191933,45.315 L68.88686,47.2876667 C67.8495267,48.7166667 65.9245267,49.0893333 64.4271933,48.1536667 L55.0521933,42.2943333 C54.7695348,42.1116936 54.4382755,42.0187411 54.10186,42.0276667 L54.10186,42.0273333 Z" id="Shape"></path>
                    <path d="M50.7031933,48.694 C49.960901,48.7401283 49.3386381,49.2717018 49.177126,49.9976563 C49.0156139,50.7236109 49.3538068,51.4688568 50.0065267,51.8253333 L57.6171933,56.174 C60.6505267,57.9073333 64.5365267,57.074 66.58886,54.247 L68.0665267,52.2096667 C68.4370404,51.7280491 68.5165976,51.0831534 68.2742395,50.5259335 C68.0318814,49.9687136 67.5058883,49.587182 66.9009445,49.5298075 C66.2960007,49.472433 65.7076567,49.7482778 65.36486,50.25 L63.88686,52.2813333 C62.8191933,53.7516667 60.8555267,54.1786667 59.2775267,53.277 L51.6601933,48.9216667 C51.3711903,48.7517348 51.0377172,48.6727512 50.7031933,48.695 L50.7031933,48.694 Z" id="Shape"></path>
                    <path d="M43.0925267,53.889 L41.9011933,57.0073333 L51.9011933,60.829 C54.4285267,61.7946667 57.3145267,60.8623333 58.79586,58.596 L60.2541933,56.363 L57.4611933,54.5333333 L55.9961933,56.7666667 C55.3641933,57.7326667 54.1711933,58.1226667 53.0925267,57.7106667 L43.0925267,53.889 Z" id="Shape"></path>
                    <path d="M19.0888587,1.20833333 C18.5463018,1.23469359 18.0506224,1.52376732 17.7605253,1.983 L0.260525333,29.482 C0.0130252242,29.87098 -0.0622998802,30.3450974 0.0524590629,30.7916278 C0.167218006,31.2381582 0.461809332,31.617212 0.866192,31.8386667 L10.0458587,36.8386667 C10.809554,37.2548651 11.7648989,37.0139243 12.2398587,36.2853333 L29.720192,9.424 C29.9640352,9.04807946 30.0462499,8.58981617 29.9482916,8.15257816 C29.8503332,7.71534015 29.5804526,7.3359555 29.1995253,7.1 L20.039192,1.45566667 C19.7543646,1.27989915 19.4232178,1.19394732 19.0888587,1.209 L19.0888587,1.20833333 Z M19.6875253,5.15366667 L25.996192,9.04 L10.2865253,33.1733333 L4.030192,29.762 L19.6875253,5.15366667 Z" id="Shape"></path>
                    <path d="M79.1731933,1.20833333 C78.8630596,1.2072131 78.5587636,1.29263762 78.2945267,1.455 L69.1341933,7.09933333 C68.7532661,7.33528883 68.4833855,7.71467348 68.3854271,8.15191149 C68.2874687,8.5891495 68.3696835,9.0474128 68.6135267,9.42333333 L86.09386,36.2846667 C86.5688198,37.0132576 87.5241646,37.2541985 88.28786,36.838 L97.4611933,31.838 C97.86664,31.617654 98.162595,31.2390905 98.2785798,30.7924605 C98.3945646,30.3458305 98.3201994,29.8711045 98.0731933,29.4813333 L80.5731933,1.98233333 C80.2690741,1.50237208 79.7413983,1.21039146 79.1731933,1.20766667 L79.1731933,1.20833333 Z M78.6395267,5.15366667 L94.3035267,29.762 L88.0471933,33.1733333 L72.3375267,9.04 L78.6395267,5.15366667 Z" id="Shape"></path>
                </g>
            </g>
        </g>
    </g>
</svg>