<?xml version="1.0" encoding="UTF-8"?>
<svg width="44px" height="44px" viewBox="0 0 44 44" version="1.1" xmlns="http://www.w3.org/2000/svg" xmlns:xlink="http://www.w3.org/1999/xlink">
    <!-- Generator: Sketch 42 (36781) - http://www.bohemiancoding.com/sketch -->
    <title>ecosistema</title>
    <desc>Created with Sketch.</desc>
    <defs></defs>
    <g id="Page-1" stroke="none" stroke-width="1" fill="none" fill-rule="evenodd">
        <g id="ecosistema" fill-rule="nonzero" fill="#FFFFFF">
            <g id="Group">
                <path d="M43,42 C41.9,42 41.4,41.5 40.7,40.8 C39.9,40 38.9,39 37,39 C35.1,39 34.1,40 33.3,40.8 C32.6,41.5 32.1,42 31,42 C29.9,42 29.4,41.5 28.7,40.8 C27.9,40 26.9,39 25,39 C23.1,39 22.1,40 21.3,40.8 C20.6,41.5 20.1,42 19,42 C17.9,42 17.4,41.5 16.7,40.8 C15.9,40 14.9,39 13,39 C11.1,39 10.1,40 9.3,40.8 C8.6,41.5 8.1,42 7,42 C5.9,42 5.4,41.5 4.7,40.8 C3.9,40 2.9,39 1,39 C0.4,39 0,39.4 0,40 C0,40.6 0.4,41 1,41 C2.1,41 2.6,41.5 3.3,42.2 C4.1,43 5.1,44 7,44 C8.9,44 9.9,43 10.7,42.2 C11.4,41.5 11.9,41 13,41 C14.1,41 14.6,41.5 15.3,42.2 C16.1,43 17.1,44 19,44 C20.9,44 21.9,43 22.7,42.2 C23.4,41.5 23.9,41 25,41 C26.1,41 26.6,41.5 27.3,42.2 C28.1,43 29.1,44 31,44 C32.9,44 33.9,43 34.7,42.2 C35.4,41.5 35.9,41 37,41 C38.1,41 38.6,41.5 39.3,42.2 C40.1,43 41.1,44 43,44 C43.6,44 44,43.6 44,43 C44,42.4 43.6,42 43,42 Z" id="Shape"></path>
                <path d="M43,36 C41.9,36 41.4,35.5 40.7,34.8 C39.9,34 38.9,33 37,33 C35.1,33 34.1,34 33.3,34.8 C32.6,35.5 32.1,36 31,36 C29.9,36 29.4,35.5 28.7,34.8 C27.9,34 26.9,33 25,33 C23.1,33 22.1,34 21.3,34.8 C20.9,35.2 20.5,35.6 20,35.8 L20,31 C20,29.9 20.9,29 22,29 C22.6,29 23,28.6 23,28 C23,27.4 22.6,27 22,27 C21.3,27 20.6,27.2 20,27.5 L20,25 C20,23.9 20.9,23 22,23 C22.6,23 23,22.6 23,22 C23,21.4 22.6,21 22,21 C21.3,21 20.6,21.2 20,21.5 L20,19.7 C20.9,19.3 21.5,18.4 21.5,17.4 L21.5,11.4 C21.5,10.4 20.9,9.5 20,9.1 L20,7 C20,6.4 19.6,6 19,6 C18.4,6 18,6.4 18,7 L18,9.2 C17.1,9.6 16.5,10.5 16.5,11.5 L16.5,17.5 C16.5,18.5 17.1,19.4 18,19.8 L18,35.8 C17.5,35.6 17.2,35.2 16.7,34.8 C16.1,34.2 15.3,33.4 14,33.1 L14,13.8 C14.9,13.4 15.5,12.5 15.5,11.5 L15.5,5.5 C15.5,4.5 14.9,3.6 14,3.2 L14,1 C14,0.4 13.6,0 13,0 C12.4,0 12,0.4 12,1 L12,3.2 C11.1,3.6 10.5,4.5 10.5,5.5 L10.5,11.5 C10.5,12.5 11.1,13.4 12,13.8 L12,33.1 C10.7,33.4 9.9,34.1 9.3,34.8 C8.9,35.2 8.5,35.6 8,35.8 L8,19.8 C8.9,19.4 9.5,18.5 9.5,17.5 L9.5,11.5 C9.5,10.5 8.9,9.6 8,9.2 L8,7 C8,6.4 7.6,6 7,6 C6.4,6 6,6.4 6,7 L6,9.2 C5.1,9.6 4.5,10.5 4.5,11.5 L4.5,17.5 C4.5,18.5 5.1,19.4 6,19.8 L6,21.6 C5.4,21.2 4.7,21 4,21 C3.4,21 3,21.4 3,22 C3,22.6 3.4,23 4,23 C5.1,23 6,23.9 6,25 L6,27.5 C5.4,27.2 4.7,27 4,27 C3.4,27 3,27.4 3,28 C3,28.6 3.4,29 4,29 C5.1,29 6,29.9 6,31 L6,35.8 C5.5,35.6 5.2,35.2 4.7,34.8 C3.9,34 2.9,33 1,33 C0.4,33 0,33.4 0,34 C0,34.6 0.4,35 1,35 C2.1,35 2.6,35.5 3.3,36.2 C4.1,37 5.1,38 7,38 C8.9,38 9.9,37 10.7,36.2 C11.4,35.5 11.9,35 13,35 C14.1,35 14.6,35.5 15.3,36.2 C16.1,37 17.1,38 19,38 C20.9,38 21.9,37 22.7,36.2 C23.4,35.5 23.9,35 25,35 C26.1,35 26.6,35.5 27.3,36.2 C28.1,37 29.1,38 31,38 C32.9,38 33.9,37 34.7,36.2 C35.4,35.5 35.9,35 37,35 C38.1,35 38.6,35.5 39.3,36.2 C40.1,37 41.1,38 43,38 C43.6,38 44,37.6 44,37 C44,36.4 43.6,36 43,36 Z M6.5,17.5 L6.5,11.5 C6.5,11.2 6.7,11 7,11 C7.3,11 7.5,11.2 7.5,11.5 L7.5,17.5 C7.5,17.8 7.3,18 7,18 C6.7,18 6.5,17.8 6.5,17.5 Z M12.5,11.5 L12.5,5.5 C12.5,5.2 12.7,5 13,5 C13.3,5 13.5,5.2 13.5,5.5 L13.5,11.5 C13.5,11.8 13.3,12 13,12 C12.7,12 12.5,11.8 12.5,11.5 Z M18.5,17.5 L18.5,11.5 C18.5,11.2 18.7,11 19,11 C19.3,11 19.5,11.2 19.5,11.5 L19.5,17.5 C19.5,17.8 19.3,18 19,18 C18.7,18 18.5,17.8 18.5,17.5 Z" id="Shape"></path>
                <path d="M43,11 C43.6,11 44,10.6 44,10 C44,9.4 43.6,9 43,9 C38.6,9 35,5.4 35,1 C35,0.4 34.6,0 34,0 C33.4,0 33,0.4 33,1 C33,6.5 37.5,11 43,11 Z" id="Shape"></path>
                <path d="M25,2 L30,2 C30.6,2 31,1.6 31,1 C31,0.4 30.6,0 30,0 L25,0 C24.4,0 24,0.4 24,1 C24,1.6 24.4,2 25,2 Z" id="Shape"></path>
                <path d="M43,13 C42.4,13 42,13.4 42,14 L42,19 C42,19.6 42.4,20 43,20 C43.6,20 44,19.6 44,19 L44,14 C44,13.4 43.6,13 43,13 Z" id="Shape"></path>
                <path d="M33.3,9.3 L29.8,12.8 C29.4,13.2 29.4,13.8 29.8,14.2 C30,14.4 30.3,14.5 30.5,14.5 C30.7,14.5 31,14.4 31.2,14.2 L34.7,10.7 C35.1,10.3 35.1,9.7 34.7,9.3 C34.3,8.9 33.7,8.9 33.3,9.3 Z" id="Shape"></path>
            </g>
        </g>
    </g>
</svg>