<?xml version="1.0" encoding="UTF-8"?>
<svg width="47px" height="47px" viewBox="0 0 47 47" version="1.1" xmlns="http://www.w3.org/2000/svg" xmlns:xlink="http://www.w3.org/1999/xlink">
    <!-- Generator: Sketch 42 (36781) - http://www.bohemiancoding.com/sketch -->
    <title>Page 1</title>
    <desc>Created with Sketch.</desc>
    <defs></defs>
    <g id="Page-1" stroke="none" stroke-width="1" fill="none" fill-rule="evenodd">
        <g id="Biodiversidad-en-números" transform="translate(-154.000000, -477.000000)" fill="#FFFFFF">
            <g id="side_left" transform="translate(1.000000, 1.000000)">
                <g id="Page-1" transform="translate(153.000000, 476.000000)">
                    <path d="M28.294,37.13 C29.14,39.339 29.939,41.407 30.127,44.368 L16.873,44.368 C17.061,41.454 17.86,39.339 18.706,37.13 C19.646,34.639 20.633,32.101 20.774,28.341 C21.667,28.388 22.56,28.388 23.453,28.388 C24.346,28.388 25.239,28.388 26.132,28.341 C26.367,32.101 27.354,34.639 28.294,37.13 M3.807,21.291 C4.935,21.479 6.345,21.573 8.131,21.714 C12.173,21.996 17.625,22.184 23.453,22.184 C34.169,22.184 39.997,21.808 43.146,21.291 C40.42,23.876 32.759,25.709 23.5,25.709 C14.288,25.709 6.627,23.876 3.807,21.291 M11.092,12.22 C14.006,7.52 17.061,2.679 23.5,2.679 C29.939,2.679 32.994,7.52 35.908,12.22 C37.459,14.758 39.104,17.296 41.219,18.894 C33.088,19.74 13.865,19.74 5.734,18.894 C7.896,17.343 9.494,14.758 11.092,12.22 M47,19.458 L47,19.082 C47,18.33 46.389,17.766 45.684,17.766 C42.488,17.766 40.514,14.57 38.211,10.857 C35.203,6.016 31.443,0 23.5,0 C15.557,0 11.797,6.016 8.789,10.857 C6.486,14.57 4.512,17.766 1.316,17.766 C0.611,17.719 0,18.33 0,19.082 C0,21.244 1.363,24.252 7.849,26.32 C10.716,27.26 14.288,27.871 18.142,28.153 C18.001,31.49 17.108,33.793 16.215,36.143 C15.228,38.775 14.194,41.501 14.194,45.637 C14.194,46.389 14.805,46.953 15.51,46.953 L31.49,46.953 C32.242,46.953 32.806,46.342 32.806,45.637 C32.806,41.501 31.772,38.775 30.785,36.143 C29.892,33.746 29.046,31.49 28.858,28.153 C38.305,27.448 46.577,24.628 47,19.458" id="Fill-1"></path>
                    <path d="M17.296,15.98 C17.766,15.98 18.236,15.792 18.565,15.463 C18.894,15.134 19.082,14.664 19.082,14.194 C19.082,13.724 18.894,13.254 18.565,12.925 C17.907,12.267 16.732,12.267 16.074,12.925 C15.745,13.254 15.557,13.724 15.557,14.194 C15.557,14.664 15.745,15.134 16.074,15.463 C16.356,15.792 16.826,15.98 17.296,15.98" id="Fill-3"></path>
                    <path d="M22.231,15.416 C22.56,15.792 23.03,15.98 23.5,15.98 C23.97,15.98 24.44,15.792 24.769,15.463 C25.098,15.134 25.286,14.664 25.286,14.194 C25.286,13.724 25.098,13.254 24.769,12.925 C24.111,12.267 22.936,12.267 22.278,12.925 C21.949,13.254 21.761,13.724 21.761,14.194 C21.714,14.664 21.902,15.134 22.231,15.416" id="Fill-5"></path>
                    <path d="M20.398,10.622 C20.868,10.622 21.338,10.434 21.667,10.105 C21.996,9.776 22.184,9.306 22.184,8.836 C22.184,8.366 21.996,7.896 21.667,7.567 C21.009,6.909 19.834,6.909 19.176,7.567 C18.847,7.896 18.659,8.366 18.659,8.836 C18.659,9.306 18.847,9.776 19.176,10.105 C19.458,10.434 19.928,10.622 20.398,10.622" id="Fill-7"></path>
                </g>
            </g>
        </g>
    </g>
</svg>