<?xml version="1.0" encoding="UTF-8"?>
<svg width="50px" height="57px" viewBox="0 0 50 57" version="1.1" xmlns="http://www.w3.org/2000/svg" xmlns:xlink="http://www.w3.org/1999/xlink">
    <!-- Generator: Sketch 42 (36781) - http://www.bohemiancoding.com/sketch -->
    <title>Page 1</title>
    <desc>Created with Sketch.</desc>
    <defs>
        <polygon id="path-1" points="0 21.4894644 0 0.0689602241 22.8914699 0.0689602241 22.8914699 21.4894644 4.92131624e-16 21.4894644"></polygon>
    </defs>
    <g id="Page-1" stroke="none" stroke-width="1" fill="none" fill-rule="evenodd">
        <g id="Forma-Parte-ValBio" transform="translate(-1046.000000, -1179.000000)">
            <g id="cards" transform="translate(229.000000, 1100.000000)">
                <g id="item_ayuda-copy-2" transform="translate(704.000000, 0.000000)">
                    <g id="Page-1" transform="translate(113.000000, 79.000000)">
                        <g id="Group-3" transform="translate(0.000000, 6.052765)">
                            <mask id="mask-2" fill="white">
                                <use xlink:href="#path-1"></use>
                            </mask>
                            <g id="Clip-2"></g>
                            <path d="M16.0629168,9.05228796 C17.6673161,10.455414 17.8839786,12.9378678 16.4523608,14.603907 C15.1002772,16.1730835 12.516783,16.3585064 10.9590072,14.991358 C9.642577,13.8400751 8.19724634,10.1039406 7.15781499,6.55322913 C11.2332635,7.23403585 15.1085049,8.21650084 16.0629168,9.05228796 M13.5095907,21.4894644 C16.2302132,21.4894644 18.8109649,20.3049714 20.5936308,18.2293412 C22.236426,16.3225289 23.045482,13.8815877 22.8672154,11.3576213 C22.6916914,8.83642241 21.5507852,6.53385658 19.6611594,4.87335238 C16.0272635,1.69071933 4.40976693,0.561576471 -0.000274256294,0.0689602241 C0.592119336,2.83646723 2.87118913,15.2348986 7.36350721,19.1730611 C9.06938135,20.6647473 11.2524614,21.4894644 13.5095907,21.4894644" id="Fill-1" fill="#8B9102" mask="url(#mask-2)"></path>
                        </g>
                        <path d="M32.4058493,10.964586 C33.9416846,9.37326947 38.8097338,7.81793053 43.1978344,6.82162801 C42.1200072,11.8142106 40.6335381,16.7210006 39.4844042,17.9137961 C37.5673527,19.9008661 34.440831,19.9174711 32.4990965,18.0106588 C30.5491342,16.0927765 30.5079958,12.9322835 32.4058493,10.964586 L32.4058493,10.964586 Z M35.4720347,50.9827373 L17.4835644,50.9827373 L13.827728,39.9127092 L39.1278711,39.9127092 L35.4720347,50.9827373 Z M30.0883836,23.1194768 C31.805228,24.3067373 33.8264969,24.9571014 35.9437555,24.9571014 C38.7823081,24.9571014 41.4343665,23.8224235 43.4144969,21.7744683 C47.1388974,17.9165636 49.1793642,4.90374566 49.9993905,-0.0002767507 C47.2568276,0.434221849 33.1353711,2.2718465 28.4757566,7.10114622 C26.5340221,9.11312381 25.486363,11.7699305 25.5220164,14.5789501 C25.5439569,16.0042162 25.8428962,17.3741322 26.3914088,18.6416504 C24.7102177,21.0687541 23.7338653,23.7560034 23.7338653,26.2716672 L23.7338653,34.3776952 L10.0210507,34.3776952 C9.14068799,34.3776952 8.31243398,34.8066588 7.79683215,35.5289782 C7.28123032,36.2512975 7.14135961,37.1756448 7.42110103,38.0197345 L12.9062269,54.6247765 C13.2792154,55.7566868 14.3268745,56.5177513 15.5061765,56.5177513 L37.44668,56.5177513 C38.6287246,56.5177513 39.6763836,55.7566868 40.0493722,54.6247765 L45.5344981,38.0197345 C45.8142395,37.1756448 45.6716262,36.2512975 45.1560244,35.5289782 C44.6431651,34.8066588 43.8149111,34.3776952 42.9318058,34.3776952 L29.2189912,34.3776952 L29.2189912,26.2716672 C29.2189912,25.2947373 29.5453562,24.2043395 30.0883836,23.1194768 L30.0883836,23.1194768 Z" id="Fill-4" fill="#B5BD00"></path>
                    </g>
                </g>
            </g>
        </g>
    </g>
</svg>