<?xml version="1.0" encoding="UTF-8"?>
<svg width="46px" height="42px" viewBox="0 0 46 42" version="1.1" xmlns="http://www.w3.org/2000/svg" xmlns:xlink="http://www.w3.org/1999/xlink">
    <!-- Generator: Sketch 42 (36781) - http://www.bohemiancoding.com/sketch -->
    <title>especies</title>
    <desc>Created with Sketch.</desc>
    <defs></defs>
    <g id="Page-1" stroke="none" stroke-width="1" fill="none" fill-rule="evenodd">
        <g id="especies" fill-rule="nonzero" fill="#FFFFFF">
            <path d="M45.4,9.9 C45.2,9.6 44.9,9.3 44.5,9.3 L32.8,9.3 C34.8,6.1 34.1,1.2 34.1,1 C34,0.6 33.7,0.3 33.3,0.2 C32.9,0.1 32.5,0.3 32.2,0.6 L27.5,7.6 C26,6.9 24.4,6.6 22.7,6.6 C21.1,6.6 19.6,6.9 18.2,7.5 L13.6,0.7 C13.4,0.4 13,0.2 12.5,0.3 C12.1,0.4 11.8,0.7 11.7,1.1 C11.7,1.3 11,6.2 13,9.4 L1.4,9.4 C1,9.4 0.7,9.6 0.5,10 C0.3,10.3 0.4,10.7 0.6,11 C0.8,11.3 5.7,17.6 10.9,18.3 L10.9,18.4 C10.9,24.2 15.7,41.8 22.8,41.8 C29.9,41.8 34.7,24.2 34.7,18.4 L34.7,18.3 C40.1,17.9 45.2,11.2 45.4,10.9 C45.6,10.6 45.6,10.2 45.4,9.9 Z M32.2,4.3 C32.1,6 31.6,8.1 30.3,9.3 C30,9.1 29.7,8.8 29.4,8.6 L32.2,4.3 Z M16.5,8.4 C16.1,8.6 15.8,8.9 15.5,9.1 C14.3,7.9 13.9,6 13.8,4.3 L16.5,8.4 Z M3.6,11.3 L13.2,11.3 C12.1,12.7 11.4,14.4 11,16.2 C8.2,15.8 5.3,13.1 3.6,11.3 Z M29.5,31.5 C27.4,36.7 24.9,39.9 22.7,39.9 C17.6,39.9 12.8,24.3 12.8,18.4 C12.8,13 17.2,8.5 22.7,8.5 C28.1,8.5 32.6,12.9 32.6,18.4 C32.6,21 31.5,26.5 29.5,31.5 Z M34.4,16.3 C34.1,14.5 33.3,12.8 32.2,11.3 L42.3,11.3 C40.4,13.4 37.3,16.1 34.4,16.3 Z" id="Shape"></path>
        </g>
    </g>
</svg>