<?xml version="1.0" encoding="UTF-8"?>
<svg width="53px" height="41px" viewBox="0 0 53 41" version="1.1" xmlns="http://www.w3.org/2000/svg" xmlns:xlink="http://www.w3.org/1999/xlink">
    <!-- Generator: Sketch 42 (36781) - http://www.bohemiancoding.com/sketch -->
    <title>Group</title>
    <desc>Created with Sketch.</desc>
    <defs></defs>
    <g id="Page-1" stroke="none" stroke-width="1" fill="none" fill-rule="evenodd">
        <g id="Biodiversidad-en-números" transform="translate(-1285.000000, -1922.000000)" stroke-width="0.7" stroke="#3C4145" fill="#3C4145" fill-rule="nonzero">
            <g id="noun_754973_cc" transform="translate(1286.000000, 1922.000000)">
                <g id="Group">
                    <g id="Shape">
                        <path d="M50.6773953,18.8453019 C50.031593,16.4116038 45.6307674,15.4059434 41.819407,15.4848491 C40.6143837,15.5126981 36.6476512,15.7509623 36.2016977,17.6446981 C35.7421047,19.5949057 35.2599767,19.9716415 33.2312442,21.5590377 C32.5682442,22.0781132 31.7563953,22.714 30.7399535,23.5664906 C30.981907,22.5097736 31.1948023,21.5350566 31.3721163,20.6585849 C31.621186,19.4332264 31.8595814,18.2581509 32.0113953,17.6470189 C32.1211047,17.8427358 32.2794419,18.0392264 32.5237674,18.103434 C32.8457791,18.1869811 33.2134535,18.0113774 33.6505116,17.5642453 C35.1852558,15.9946415 33.4322791,8.78018868 31.5998372,4.69643396 C30.0816977,1.31586792 28.5528837,-0.16554717 27.2921163,0.516754717 C26.2786395,1.06677358 25.6618953,2.65416981 25.5088953,5.10720755 C25.218907,9.75335849 26.6297093,16.677717 28.1116744,17.8814151 C29.0273023,18.6256038 29.8213605,18.1359245 30.3657558,17.5456792 L30.2192791,18.122 C29.5260349,20.8604906 28.1371744,26.3490755 26.4986512,32.0612264 C26.0076279,28.0099623 24.9846628,23.1479811 22.8545233,20.4628679 C21.803686,19.1384906 20.9758256,18.1676415 20.3098605,17.3870943 C18.4311628,15.1846981 17.9852093,14.6617547 17.7005581,12.2969057 C17.3987093,9.78275472 11.7116163,8.26730189 8.08824419,8.35626415 C5.08636047,8.4359434 3.34702326,9.45398113 3.19046512,11.2231698 C3.06474419,12.6457925 3.82618605,14.1217925 5.39354651,15.4925849 C8.36162791,18.0887358 13.6822326,19.8586981 15.2110465,18.7586604 C17.0144302,17.4621321 18.639314,17.7390755 19.9101628,19.5624151 C20.0501163,19.7627736 20.2327674,19.998717 20.4462558,20.2733396 C21.6678837,21.8452642 23.8496163,24.6526038 24.7118721,29.6793585 C23.4267907,27.6239434 21.9092442,26.4186981 20.1876977,26.0914717 C18.2704535,25.7263396 17.0618721,25.5986981 16.2618837,25.5143774 C14.994593,25.3805472 14.994593,25.3805472 14.8042326,24.5698302 C14.7324767,24.2650377 14.6405581,23.8751509 14.4875581,23.3676792 C13.7741512,21.0005094 7.97319767,21.1258302 4.44826744,22.2483019 C1.53177907,23.1766038 0.00355813953,24.663434 0.145290698,26.4341698 C0.259151163,27.8583396 1.24890698,29.0836981 3.00603488,29.9764151 C6.33586047,31.6697925 11.8248837,31.888717 13.133686,30.3817736 C13.4924651,29.9686792 13.6851977,29.5269623 13.7053605,29.0705472 C13.7367907,28.3619434 13.3590349,27.8134717 13.0832791,27.4127547 C13.0334651,27.3400377 12.9723837,27.2526226 12.9267209,27.1783585 C12.9937326,27.1590189 13.0986977,27.1365849 13.260593,27.1203396 C16.6028721,26.7776415 23.3538488,28.1136226 25.0297326,35.5756226 C24.9994884,36.0196604 24.8322558,36.6555472 24.6703605,37.2705472 C24.606907,37.5119057 24.5440465,37.7563585 24.4859302,37.9961698 C24.0773372,37.2744151 23.4143372,36.7035094 22.3848488,36.7035094 C20.3899186,36.7035094 19.7921512,38.1292264 19.6266977,38.7535094 L9.71134884,39.8396226 C9.56427907,39.8558679 9.4527907,40.0190943 9.45931395,40.211717 C9.46524419,40.403566 9.58681395,40.5551887 9.73388372,40.5551887 L24.6585,40.5551887 L24.7883721,40.5551887 L27.8080465,40.5551887 L27.8507442,40.5551887 L31.4735233,40.5551887 L31.8115465,40.5551887 L31.823407,40.5551887 L38.582093,40.5551887 C38.7285698,40.5551887 38.8495465,40.4058868 38.8566628,40.2148113 C38.8643721,40.0237358 38.7558488,39.8589623 38.6099651,39.8396226 L34.2245581,39.2625283 C33.9612558,38.722566 33.0189419,37.2040189 30.8579651,37.3981887 C30.4683488,37.4345472 30.1730233,37.5266038 29.9571628,37.6728113 C29.6280349,37.3277925 29.2633256,37.0748302 28.8618488,36.9170189 C28.2972907,27.7778868 31.0904302,25.5035472 32.7603837,24.1451321 C33.0106395,23.9416792 33.2353953,23.7583396 33.4216047,23.5780943 C34.8312209,22.2088491 36.4762674,22.2250943 38.1782442,23.6190943 C39.6228488,24.8011321 47.1601744,25.3039623 49.8542791,22.509 C50.7770233,21.5559434 51.0604884,20.2895849 50.6773953,18.8453019 Z M24.4628023,39.8380755 L16.3051744,39.8380755 L19.8645,39.4481887 C19.991407,39.4342642 20.094593,39.3058491 20.1135698,39.1418491 C20.1218721,39.0714528 20.3406977,37.4206226 22.3866279,37.4206226 C23.5424302,37.4206226 24.0666628,38.284717 24.3074302,39.0513396 C24.3145465,39.1093585 24.3293721,39.164283 24.3554651,39.2091509 C24.4147674,39.4265283 24.4527209,39.628434 24.4758488,39.7939811 C24.4705116,39.8117736 24.4675465,39.8233774 24.4628023,39.8380755 Z M30.8988837,38.1145283 C33.0735,37.9010189 33.7833488,39.6841321 33.811814,39.7591698 C33.8230814,39.7877925 33.8367209,39.8148679 33.8521395,39.8388491 L31.9906395,39.8388491 C31.773593,39.2571132 31.2665581,38.4688302 30.4173488,38.2096792 C30.5329884,38.1686792 30.6883605,38.1338679 30.8988837,38.1145283 Z M31.3543256,39.8380755 L28.2913605,39.8380755 C28.5463605,39.401 29.0338256,38.8324151 29.8462674,38.8324151 C30.6598953,38.8324151 31.1212674,39.4040943 31.3543256,39.8380755 Z M29.5456047,38.1563019 C28.4010698,38.3264906 27.8323605,39.3716038 27.6396279,39.8380755 L25.0552326,39.8380755 C25.3309884,39.0304528 26.0948023,37.4213962 27.8050814,37.4213962 C28.4775698,37.4213962 29.0569535,37.6782264 29.5456047,38.1563019 Z M49.5150698,21.9481509 C47.0279302,24.5257358 39.8001628,24.0956226 38.4741628,23.0118302 C36.5889419,21.4677547 34.68,21.4646604 33.0960349,23.0025472 C32.919907,23.1727358 32.7076047,23.3444717 32.4715814,23.5363208 C30.7091163,24.9705472 27.7748372,27.3702075 28.3073721,36.7592075 C28.1436977,36.7321321 27.9788372,36.7035094 27.8050814,36.7035094 C26.2703372,36.7035094 25.3808023,37.7981321 24.8963023,38.7457736 C24.9662791,38.3690377 25.0801395,37.9319623 25.192814,37.5049434 C25.3825814,36.7831887 25.5616744,36.1032075 25.5848023,35.5570566 C25.5859884,35.5168302 25.5830233,35.4766038 25.5741279,35.4386981 C23.8235233,27.4785094 16.729186,26.0504717 13.2196744,26.4047736 C12.7695698,26.4511887 12.4487442,26.5509811 12.3443721,26.8921321 C12.2340698,27.2526226 12.4481512,27.5636038 12.6752791,27.8931509 C12.8982558,28.217283 13.1751977,28.6187736 13.157407,29.0295472 C13.1455465,29.2879245 13.0156744,29.5617736 12.7707558,29.8449057 C11.7187326,31.0571132 6.50012791,30.9828491 3.20766279,29.3088113 C2.12480233,28.7580189 0.809476744,27.8003208 0.694430233,26.3606792 C0.587686047,25.0308868 2.04059302,23.7544717 4.58051163,22.9460755 C8.5780814,21.6735283 13.4960233,22.0309245 13.9775581,23.6314717 C14.1234419,24.1157358 14.2118023,24.4901509 14.28,24.7810189 C14.5800698,26.0566604 14.7662791,26.0767736 16.219186,26.2299434 C17.0120581,26.3134906 18.2099651,26.4403585 20.1100116,26.8016226 C21.9993837,27.1613396 23.6337558,28.6914906 24.9668721,31.3503019 C25.0374419,31.4910943 25.1738372,31.547566 25.2936279,31.4903208 C25.4140116,31.4315283 25.4875465,31.2706226 25.4691628,31.1043019 C24.8014186,24.8676604 22.2199884,21.547434 20.8335,19.7627736 C20.628314,19.4982075 20.452186,19.2723208 20.3181628,19.0796981 C18.8771163,17.0119057 16.9693605,16.6761698 14.9459651,18.1305094 C13.7154419,19.0162642 8.63560465,17.4636792 5.70073256,14.8969245 C4.7352907,14.0521698 3.6109186,12.7432642 3.73782558,11.3059434 C3.85524419,9.97769811 5.48605814,9.14377358 8.10010465,9.07415094 C12.213907,8.97281132 16.9539419,10.710283 17.1573488,12.4083019 C17.4722442,15.024566 18.0451047,15.6960377 19.9427791,17.9216415 C20.605186,18.6975472 21.4288953,19.6637547 22.4726163,20.9803962 C24.7373721,23.8349245 25.6980698,29.3869434 26.1048837,33.5410943 C26.1203023,33.7043208 26.2193372,33.8327358 26.3450581,33.8520755 C26.4767093,33.8729623 26.5899767,33.7762642 26.6344535,33.6230943 C28.4408023,27.4413774 29.9945233,21.2983396 30.7417326,18.3471132 L31.060186,17.0923585 C31.264186,16.3009811 31.3187442,16.0882453 31.0910233,15.9226981 C30.8716047,15.7648868 30.7245349,16.0000566 30.5804302,16.226717 C29.9968953,17.1449623 29.2799302,17.9873962 28.4028488,17.2733774 C27.2108721,16.3048491 25.7710116,9.76109434 26.0580349,5.16677358 C26.1523256,3.65518868 26.4802674,1.73669811 27.5044186,1.18049057 C28.4514767,0.665283019 29.8041628,2.11807547 31.1248256,5.06079245 C33.2033721,9.69224528 34.347907,15.9412642 33.3113023,17.0010755 C32.919907,17.402566 32.717093,17.4234528 32.6322907,17.4017925 C32.5160581,17.3708491 32.4401512,17.2122642 32.3523837,17.0072642 C32.2782558,16.8332075 32.1602442,16.5694151 31.9360814,16.6096415 C31.6265233,16.6599245 31.5850116,16.8045849 30.8395814,20.4767925 C30.6077093,21.616283 30.318314,22.9236415 29.9785116,24.3640566 C29.9429302,24.5125849 29.9862209,24.6742642 30.0840698,24.764 C30.1819186,24.8545094 30.3123837,24.8498679 30.4078605,24.7562642 L30.5353605,24.6255283 C30.6100814,24.5473962 30.6842093,24.4692642 30.7672326,24.3996415 C31.9040581,23.4373019 32.7965581,22.7387547 33.5141163,22.1771321 C35.5813953,20.5587925 36.2052558,20.0706604 36.7271163,17.8582075 C36.9020581,17.1147925 38.5731977,16.2800943 41.8288953,16.2050566 C45.516314,16.1176415 49.649686,17.1720377 50.1567209,19.0827925 C50.465686,20.2416226 50.2551628,21.1799811 49.5150698,21.9481509 Z"></path>
                        <path d="M10.3868023,27.2750566 C9.5115,27.7314717 8.66644186,28.444717 8.63501163,29.7938491 C8.62967442,30.0259245 8.90483721,30.0251509 8.91017442,29.7938491 C8.93745349,28.6226415 9.7077907,28.0130566 10.4597442,27.6208491 C10.6222326,27.5365283 10.5510698,27.1884151 10.3868023,27.2750566 Z"></path>
                        <path d="M7.87831395,25.7557358 C6.61398837,25.9421698 4.74181395,26.8054906 4.57695349,28.7340377 C4.55738372,28.9637925 4.83254651,28.9614717 4.85211628,28.7340377 C4.99681395,27.041434 6.78181395,26.2763585 7.87890698,26.1154528 C8.05266279,26.0899245 8.05444186,25.7302075 7.87831395,25.7557358 Z"></path>
                        <path d="M4.57695349,25.0378491 C3.70580233,25.1685849 3.02501163,25.8330943 2.41656977,26.6159623 C2.29025581,26.7784151 2.48476744,27.0321509 2.6110814,26.8696981 C3.16081395,26.1626415 3.78467442,25.5151509 4.57695349,25.397566 C4.7507093,25.3712642 4.7530814,25.0123208 4.57695349,25.0378491 Z"></path>
                        <path d="M10.4917674,25.0378491 C9.76768605,25.0842642 9.36087209,24.1188302 9.02818605,23.4226038 C8.93448837,23.2268868 8.69668605,23.4063585 8.79097674,23.6036226 C9.17822093,24.413566 9.65619767,25.4501698 10.4917674,25.3967925 C10.6684884,25.3859623 10.6696744,25.0277925 10.4917674,25.0378491 Z"></path>
                        <path d="M7.80952326,24.5899434 C7.98446512,24.5698302 7.98624419,24.2108868 7.80952326,24.2302264 C7.29181395,24.2897925 6.94193023,23.8836604 6.69048837,23.3328679 C6.59975581,23.1340566 6.36195349,23.3150755 6.45327907,23.5138868 C6.75097674,24.1660189 7.19811628,24.659566 7.80952326,24.5899434 Z"></path>
                        <path d="M5.09466279,24.5829811 C5.26960465,24.5489434 5.19488372,24.2031509 5.02172093,24.2371887 C4.71453488,24.2967547 4.47317442,24.1234717 4.23359302,23.8968113 C4.08948837,23.7606604 3.9525,24.0724151 4.09482558,24.2062453 C4.40497674,24.5002075 4.7097907,24.6580189 5.09466279,24.5829811 Z"></path>
                        <path d="M14.2746628,14.4513396 C13.1983256,14.3213774 12.4315465,15.3316792 11.8865581,16.4239811 C11.7893023,16.6181509 12.0276977,16.7983962 12.1237674,16.605 C12.6177558,15.6148113 13.2949884,14.6911509 14.2746628,14.8095094 C14.4513837,14.8319434 14.4496047,14.4722264 14.2746628,14.4513396 Z"></path>
                        <path d="M11.3172558,13.2847736 C10.2931047,13.2174717 9.34723256,13.5911132 8.53716279,14.4142075 C8.3972093,14.5565472 8.5935,14.8087358 8.73167442,14.6679434 C9.48303488,13.9036415 10.3707907,13.5818302 11.3166628,13.643717 C11.4945698,13.6553208 11.4939767,13.2963774 11.3172558,13.2847736 Z"></path>
                        <path d="M8.42863953,12.1189811 C7.49937209,12.1089245 6.55824419,11.981283 5.74580233,12.6821509 C5.59873256,12.8090189 5.73631395,13.12 5.88456977,12.9915849 C6.65312791,12.3286226 7.55274419,12.4686415 8.42863953,12.4779245 C8.60595349,12.4794717 8.60595349,12.1205283 8.42863953,12.1189811 Z"></path>
                        <path d="M13.9591744,13.3373774 C13.4895,12.700717 13.1811279,11.9132075 12.9628953,11.0839245 C12.9053721,10.8665472 12.6396977,10.9593774 12.697814,11.1790755 C12.9320581,12.0671509 13.2623721,12.9095849 13.7646628,13.5911132 C13.8874186,13.7582075 14.0819302,13.5044717 13.9591744,13.3373774 Z"></path>
                        <path d="M11.6973837,12.1251698 C11.1049535,11.8428113 10.7289767,11.1736604 10.404,10.5029623 C10.3097093,10.3080189 10.071314,10.4874906 10.1667907,10.6839811 C10.5338721,11.4413208 10.9584767,12.1537925 11.6244419,12.4709623 C11.7916744,12.5514151 11.8628372,12.2040755 11.6973837,12.1251698 Z"></path>
                        <path d="M8.94219767,11.6641132 C9.11536047,11.6950566 9.1900814,11.3492642 9.01513953,11.3183208 C8.3562907,11.202283 7.92872093,10.5300377 7.39737209,10.0798113 C7.24793023,9.9529434 7.11034884,10.2639245 7.25860465,10.3892453 C7.81248837,10.8588113 8.2542907,11.5426604 8.94219767,11.6641132 Z"></path>
                        <path d="M31.3602558,13.876566 C30.5051163,12.5730755 29.2971279,12.2249623 28.0304302,12.208717 C27.8531163,12.2063962 27.8531163,12.5653396 28.0304302,12.5676604 C29.2283372,12.5831321 30.3550814,12.8941132 31.1657442,14.1303019 C31.2813837,14.3059057 31.4747093,14.0513962 31.3602558,13.876566 Z"></path>
                        <path d="M28.0624535,8.88230189 C29.1026163,9.11360377 29.8379651,10.1239057 30.6432907,10.928434 C30.7838372,11.0692264 30.9214186,10.7574717 30.7820581,10.619 C29.9559767,9.79435849 29.2022442,8.774 28.1353953,8.53728302 C27.9622326,8.49783019 27.8875116,8.84362264 28.0624535,8.88230189 Z"></path>
                        <path d="M29.8468605,6.78820755 C29.1785233,6.02390566 28.4514767,5.34933962 27.5856628,5.03758491 C27.4142791,4.97569811 27.3419302,5.32226415 27.5127209,5.38337736 C28.3340581,5.67888679 29.019593,6.31786792 29.6523488,7.0419434 C29.785186,7.19356604 29.9808837,6.94137736 29.8468605,6.78820755 Z"></path>
                        <path d="M30.575686,7.54322642 C30.6284651,6.99011321 30.5578953,6.34649057 30.7624884,5.83901887 C30.8455116,5.63401887 30.6077093,5.453 30.5252791,5.658 C30.2922209,6.23354717 30.3598256,6.91662264 30.2999302,7.54322642 C30.2785814,7.77220755 30.5531512,7.76988679 30.575686,7.54322642 Z"></path>
                        <path d="M31.3317907,11.2216226 C31.3857558,10.5950189 31.3466163,9.95371698 31.6567674,9.42845283 C31.7652907,9.24511321 31.5257093,9.06641509 31.4195581,9.24743396 C31.0791628,9.82530189 31.1159302,10.5339057 31.0566279,11.2223962 C31.0364651,11.4513774 31.3122209,11.4490566 31.3317907,11.2216226 Z"></path>
                        <path d="M31.950907,14.5410755 C32.0048721,13.8316981 31.9627674,13.0983396 32.2758837,12.4779245 C32.3737326,12.2845283 32.1359302,12.104283 32.0386744,12.2969057 C31.6965,12.9737925 31.7350465,13.7659434 31.6757442,14.5410755 C31.6579535,14.7716038 31.9331163,14.769283 31.950907,14.5410755 Z"></path>
                        <path d="M38.6224186,20.0141887 C38.4451047,20.0188302 38.4445116,20.3777736 38.6224186,20.3731321 C40.059314,20.3313585 41.1386163,21.1451698 42.1698837,22.3844528 C42.3003488,22.540717 42.4954535,22.2877547 42.3643953,22.130717 C41.2815349,20.8295472 40.1292907,19.9708679 38.6224186,20.0141887 Z"></path>
                        <path d="M41.717407,19.5655094 C41.540093,19.566283 41.540093,19.9252264 41.717407,19.9244528 C43.1050814,19.9182642 44.2656279,19.8896415 45.3342558,21.2178868 C45.4629419,21.3772453 45.6574535,21.124283 45.5287674,20.9641509 C44.4038023,19.5655094 43.1952209,19.5585472 41.717407,19.5655094 Z"></path>
                        <path d="M45.6378837,19.3860377 C45.4605698,19.3868113 45.4605698,19.7457547 45.6378837,19.7449811 C46.6958372,19.7403396 47.7395581,19.7001132 48.731686,20.2594151 C48.8923953,20.3499245 49.0329419,20.0404906 48.8704535,19.9492075 C47.8261395,19.3605094 46.7557326,19.3813962 45.6378837,19.3860377 Z"></path>
                        <path d="M38.658593,19.6490566 C39.398093,19.2715472 39.8025349,18.4739811 40.3012674,17.7189623 C40.416314,17.5441321 40.2223953,17.2896226 40.1067558,17.4652264 C39.6489419,18.1591321 39.2682209,18.9551509 38.5862442,19.3032642 C38.4225698,19.3868113 38.4937326,19.7333774 38.658593,19.6490566 Z"></path>
                        <path d="M41.6847907,18.7516981 C42.2428256,18.5521132 42.6822558,18.1073019 43.0528953,17.5394906 C43.1667558,17.3638868 42.9734302,17.1093774 42.8583837,17.2857547 C42.5179884,17.8079245 42.126593,18.2217925 41.6118488,18.4059057 C41.4410581,18.4670189 41.513407,18.8128113 41.6847907,18.7516981 Z"></path>
                        <path d="M44.4322674,18.4824906 C45.032407,18.6441698 45.4338837,18.2086415 45.7564884,17.5928679 C45.8567093,17.4010189 45.618907,17.2223208 45.5192791,17.4118491 C45.2731744,17.8814151 44.9731047,18.2627925 44.5052093,18.1374717 C44.3320465,18.090283 44.2585116,18.4360755 44.4322674,18.4824906 Z"></path>
                    </g>
                </g>
            </g>
        </g>
    </g>
</svg>