<?xml version="1.0" encoding="utf-8"?>
<!-- Generator: Adobe Illustrator 21.0.2, SVG Export Plug-In . SVG Version: 6.00 Build 0)  -->
<svg version="1.1" id="Capa_1" xmlns="http://www.w3.org/2000/svg" xmlns:xlink="http://www.w3.org/1999/xlink" x="0px" y="0px"
	 viewBox="0 0 50 50" style="enable-background:new 0 0 50 50;" xml:space="preserve">
<style type="text/css">
	.st0{fill:#404346;}
	.st1{fill:none;stroke:#404346;stroke-width:2;stroke-linecap:round;stroke-miterlimit:10;}
	.st2{fill:#FFFFFF;stroke:#404346;stroke-width:2;stroke-linecap:round;stroke-miterlimit:10;}
</style>
<path class="st0" d="M47,15.7c0-2.7-2.2-4.9-4.8-4.9c-1.3-1.3-3.1-2-5-2c-3.6,0-6.6,2.7-7.1,6.2c-0.5-0.2-1-0.2-1.5-0.3
	c-1.3-1.3-3.1-2-5-2c-1,0-1.9,0.2-2.7,0.5c-0.6-0.3-1.3-0.4-2-0.5c-1.3-1.3-3.1-2-5-2c-3.8,0-7,3-7.2,6.8C4.5,18.3,3,20.5,3,23
	c0,3,2.2,5.5,5.2,5.9c0.7,1.3,1.9,2.2,3.3,2.5v7.9h1.9v-7.9c0.7-0.1,1.3-0.4,1.9-0.8c0,1.6,0,8.7,0,8.7h1.9v-8.6
	c0.2,0,0.4,0.1,0.6,0.1c0.7,1.3,1.9,2.2,3.3,2.5v7.9h1.9v-7.9c0.6-0.1,1.1-0.3,1.6-0.6c0.1,0.1,0.2,0.1,0.3,0.1v8.4h1.9v-7.8
	c0.2,0,0.4,0,0.6,0c2.8,0,5.1-1.9,5.7-4.5c0.4,0.2,0.9,0.4,1.4,0.5v7.9h1.9v-7.9c0.6-0.1,1.1-0.3,1.6-0.6c0.1,0.1,0.2,0.1,0.3,0.1
	v8.4h1.9v-7.8c0.2,0,0.4,0,0.6,0c3.3,0,5.9-2.7,5.9-5.9c0-1.6-0.6-3.1-1.8-4.2C46.3,18.6,47,17.2,47,15.7z M9.7,27.6
	C9.6,27.3,9.2,27,8.8,27c-2.2-0.1-3.9-1.8-3.9-4c0-1.9,1.3-3.5,3.1-3.9c0.5-0.1,0.8-0.5,0.8-1c0-0.1,0-0.2,0-0.3
	c0-2.9,2.4-5.2,5.2-5.2c1.5,0,2.9,0.6,3.9,1.7c0.2,0.2,0.5,0.3,0.8,0.3c-1.3,1.2-2.1,2.9-2.2,4.8c-2.3,0.8-3.8,3-3.8,5.5
	c0,1.5,0.6,3,1.6,4c-0.4,0.3-1,0.6-1.8,0.6C11.3,29.6,10.1,28.8,9.7,27.6z M29.5,24.1c1.3,0.7,2,2,2,3.4c0,2.2-1.8,4-4,4
	c-0.8,0-1.6-0.3-2.3-0.7c-0.2-0.1-0.4-0.2-0.6-0.2c-0.2,0-0.4,0.1-0.6,0.2c-0.4,0.3-1,0.7-1.9,0.7c-1.2,0-2.3-0.8-2.8-1.9
	c-0.1-0.4-0.5-0.6-0.9-0.6c-2.2-0.1-3.9-1.8-3.9-4c0-1.9,1.3-3.5,3.1-3.9c0.5-0.1,0.8-0.5,0.8-1c0-0.1,0-0.2,0-0.3
	c0-2,1.2-3.8,2.9-4.7c0,0,0,0,0,0c0.7-0.4,1.5-0.6,2.3-0.6c1.5,0,2.9,0.6,3.9,1.7c0.2,0.2,0.7,0.3,1,0.3c1.6,0,3,1.3,3,3
	c0,1.2-0.7,2.3-1.9,2.8c-0.3,0.1-0.6,0.5-0.6,0.8C29,23.5,29.2,23.9,29.5,24.1z M43.1,20.2c1.3,0.7,2,2,2,3.4c0,2.2-1.8,4-4,4
	c-0.8,0-1.6-0.3-2.3-0.7c-0.4-0.3-0.8-0.2-1.2,0c-0.4,0.3-1,0.7-1.9,0.7c-0.7,0-1.4-0.2-1.9-0.7c-0.1-0.1-0.3-0.2-0.4-0.2
	c-0.2-1.3-0.8-2.5-1.7-3.4c1.1-0.9,1.8-2.3,1.8-3.8c0-1.4-0.6-2.6-1.5-3.5c0,0,0-0.1,0-0.1c0-2.9,2.4-5.2,5.2-5.2
	c1.5,0,2.9,0.6,3.9,1.7c0.2,0.2,0.7,0.3,1,0.3c1.6,0,3,1.3,3,3c0,1.2-0.7,2.3-1.9,2.8c-0.3,0.1-0.6,0.5-0.6,0.8
	C42.6,19.7,42.7,20,43.1,20.2z"/>
</svg>
