<?xml version="1.0" encoding="UTF-8"?>
<svg width="24px" height="46px" viewBox="0 0 24 46" version="1.1" xmlns="http://www.w3.org/2000/svg" xmlns:xlink="http://www.w3.org/1999/xlink">
    <!-- Generator: Sketch 42 (36781) - http://www.bohemiancoding.com/sketch -->
    <title>genes</title>
    <desc>Created with Sketch.</desc>
    <defs></defs>
    <g id="Page-1" stroke="none" stroke-width="1" fill="none" fill-rule="evenodd">
        <g id="genes" fill-rule="nonzero" fill="#FFFFFF">
            <path d="M23.6,23 C23.6,18.5 21,14.6 17.3,12.6 C21.1,10.7 23.6,6.8 23.6,2.2 C23.6,1.5 23,0.9 22.3,0.9 C21.6,0.9 21,1.5 21,2.2 C21,7.2 16.9,11.3 11.9,11.3 C8.8,11.3 6.1,9.8 4.5,7.4 L9.3,7.4 C10,7.4 10.6,6.8 10.6,6.1 C10.6,5.4 10,4.8 9.3,4.8 L3.2,4.8 C3,4 2.8,3.1 2.8,2.2 C2.8,1.5 2.2,0.9 1.5,0.9 C0.8,0.9 0.2,1.5 0.2,2.2 C0.2,6.7 2.8,10.6 6.5,12.6 C2.7,14.5 0.2,18.4 0.2,23 C0.2,27.6 2.8,31.4 6.5,33.4 C2.7,35.3 0.2,39.2 0.2,43.8 C0.2,44.5 0.8,45.1 1.5,45.1 C2.2,45.1 2.8,44.5 2.8,43.8 C2.8,38.8 6.9,34.7 11.9,34.7 C15,34.7 17.7,36.2 19.3,38.6 L13.2,38.6 C12.5,38.6 11.9,39.2 11.9,39.9 C11.9,40.6 12.5,41.2 13.2,41.2 L20.6,41.2 C20.8,42 21,42.9 21,43.8 C21,44.5 21.6,45.1 22.3,45.1 C23,45.1 23.6,44.5 23.6,43.8 C23.6,39.3 21,35.4 17.3,33.4 C21.1,31.4 23.6,27.5 23.6,23 Z M12,32.1 C8.4,32.1 5.3,30 3.8,26.9 L12,26.9 C12.7,26.9 13.3,26.3 13.3,25.6 C13.3,24.9 12.7,24.3 12,24.3 L3,24.3 C2.9,23.9 2.9,23.4 2.9,23 C2.9,22.6 2.9,22.1 3,21.7 L8.1,21.7 C8.8,21.7 9.4,21.1 9.4,20.4 C9.4,19.7 8.8,19.1 8.1,19.1 L3.8,19.1 C5.3,16 8.4,13.9 12,13.9 C15.1,13.9 17.8,15.4 19.4,17.8 L15.9,17.8 C15.2,17.8 14.6,18.4 14.6,19.1 C14.6,19.8 15.2,20.4 15.9,20.4 L20.7,20.4 C20.9,21.2 21.1,22.1 21.1,23 C21.1,28 17,32.1 12,32.1 Z" id="Shape"></path>
        </g>
    </g>
</svg>