<?xml version="1.0" encoding="UTF-8"?>
<svg width="105px" height="101px" viewBox="0 0 105 101" version="1.1" xmlns="http://www.w3.org/2000/svg" xmlns:xlink="http://www.w3.org/1999/xlink">
    <!-- Generator: Sketch 44.1 (41455) - http://www.bohemiancoding.com/sketch -->
    <title>Shape</title>
    <desc>Created with Sketch.</desc>
    <defs></defs>
    <g id="Page-1" stroke="none" stroke-width="1" fill="none" fill-rule="evenodd">
        <g id="Desktop-HD" transform="translate(-608.000000, -168.000000)" stroke="#3C4145" stroke-width="4">
            <g id="noun_596853_cc" transform="translate(610.000000, 170.000000)">
                <path d="M0.865351667,17.1866078 L50.8990168,0.905 L100.758415,16.8330138 L100.789,21.3668066 L0.789,21.3668066 L0.865351667,17.1866078 Z M94.6835071,27.8577984 L6.89449292,27.8577984 L94.6835071,27.8577984 Z M94.6835071,84.1833249 L6.89449292,84.1833249 L94.6835071,84.1833249 Z M1.55889764,96.284514 L100.019322,96.284514 L100.019322,90.6738767 L1.55889764,90.6738767 L1.55889764,96.284514 Z M25.1555232,34.3483501 L12.2842165,34.3483501 L12.2842165,77.5825363 L25.1555232,77.5825363 L25.1555232,34.3483501 Z M46.53487,77.5827564 L33.6637833,77.5827564 L33.6637833,34.3483501 L46.53487,34.3483501 L46.53487,77.5827564 Z M67.9142167,77.5827564 L55.04313,77.5827564 L55.04313,34.3483501 L67.9142167,34.3483501 L67.9142167,77.5827564 Z M89.2937835,77.5827564 L76.4226968,77.5827564 L76.4226968,34.3483501 L89.2937835,34.3483501 L89.2937835,77.5827564 Z" id="Shape"></path>
            </g>
        </g>
    </g>
</svg>