<?xml version="1.0" encoding="UTF-8"?>
<svg width="67px" height="64px" viewBox="0 0 67 64" version="1.1" xmlns="http://www.w3.org/2000/svg" xmlns:xlink="http://www.w3.org/1999/xlink">
    <!-- Generator: Sketch 42 (36781) - http://www.bohemiancoding.com/sketch -->
    <title>Page 1</title>
    <desc>Created with Sketch.</desc>
    <defs>
        <polygon id="path-1" points="33.4996795 64 0 64 0 0 33.4996795 0 66.999359 0 66.999359 64 33.4996795 64"></polygon>
    </defs>
    <g id="Page-1" stroke="none" stroke-width="1" fill="none" fill-rule="evenodd">
        <g id="Forma-Parte-ValBio" transform="translate(-689.000000, -1175.000000)">
            <g id="cards" transform="translate(229.000000, 1100.000000)">
                <g id="card_instituciones" transform="translate(350.000000, 0.000000)">
                    <g id="Page-1" transform="translate(110.000000, 75.000000)">
                        <mask id="mask-2" fill="white">
                            <use xlink:href="#path-1"></use>
                        </mask>
                        <g id="Clip-2"></g>
                        <path d="M7.99712,57.2631579 L9.11267,53.8947368 L57.88532,53.8947368 L59.00087,57.2631579 L7.99712,57.2631579 Z M16.75067,47.1578947 L23.45067,47.1578947 L23.45067,23.5789474 L16.75067,23.5789474 L16.75067,47.1578947 Z M10.05067,15.8113684 L33.50067,6.96589474 L56.95067,15.8113684 L56.95067,16.8421053 L10.05067,16.8421053 L10.05067,15.8113684 Z M30.15067,47.1578947 L36.85067,47.1578947 L36.85067,23.5789474 L30.15067,23.5789474 L30.15067,47.1578947 Z M43.55067,47.1578947 L50.25067,47.1578947 L50.25067,23.5789474 L43.55067,23.5789474 L43.55067,47.1578947 Z M66.82647,59.5671579 L63.47647,49.4618947 C63.02087,48.0875789 61.74117,47.1578947 60.30067,47.1578947 L56.95067,47.1578947 L56.95067,23.5789474 L60.30067,23.5789474 C62.14987,23.5789474 63.65067,22.0732632 63.65067,20.2105263 L63.65067,13.4736842 C63.65067,12.0690526 62.78302,10.8126316 61.47652,10.3208421 L34.67652,0.212210526 C33.91607,-0.0707368421 33.08192,-0.0707368421 32.32482,0.212210526 L5.52482,10.3208421 C4.21497,10.8126316 3.35067,12.0690526 3.35067,13.4736842 L3.35067,20.2105263 C3.35067,22.0732632 4.84812,23.5789474 6.70067,23.5789474 L10.05067,23.5789474 L10.05067,47.1578947 L6.70067,47.1578947 C5.25682,47.1578947 3.97712,48.0875789 3.52152,49.4618947 L0.17152,59.5671579 C-0.17018,60.5945263 0.00402,61.7229474 0.63382,62.6021053 C1.26362,63.4812632 2.27197,64 3.35067,64 L63.65067,64 C64.72602,64 65.73772,63.4812632 66.36752,62.6021053 C66.99732,61.7229474 67.16817,60.5945263 66.82647,59.5671579 L66.82647,59.5671579 Z" id="Fill-1" fill="#B5BD00" mask="url(#mask-2)"></path>
                    </g>
                </g>
            </g>
        </g>
    </g>
</svg>