<?xml version="1.0" encoding="UTF-8"?>
<svg width="49px" height="56px" viewBox="0 0 49 56" version="1.1" xmlns="http://www.w3.org/2000/svg" xmlns:xlink="http://www.w3.org/1999/xlink">
    <!-- Generator: Sketch 42 (36781) - http://www.bohemiancoding.com/sketch -->
    <title>Fill 1</title>
    <desc>Created with Sketch.</desc>
    <defs></defs>
    <g id="Page-1" stroke="none" stroke-width="1" fill="none" fill-rule="evenodd">
        <g id="Forma-Parte-ValBio" transform="translate(-348.000000, -1179.000000)" fill="#B5BD00">
            <g id="cards" transform="translate(229.000000, 1100.000000)">
                <g id="investigadores">
                    <path d="M162.553986,128.820522 C162.135203,129.62887 161.307377,130.130435 160.394334,130.130435 L126.307377,130.130435 C125.396768,130.130435 124.568942,129.62887 124.15016,128.822957 C123.728942,128.012174 123.792247,127.048 124.198855,126.449043 L129.182855,120.391304 L157.52616,120.391304 L162.390855,126.300522 C162.911899,127.048 162.975203,128.012174 162.553986,128.820522 L162.553986,128.820522 Z M137.92616,109.765913 C138.286508,109.330087 138.48129,108.784696 138.48129,108.217391 L138.48129,91.173913 L148.220421,91.173913 L148.220421,93.6086957 L143.350855,93.6086957 L143.350855,98.4782609 L148.220421,98.4782609 L148.220421,100.913043 L140.916073,100.913043 L140.916073,105.782609 L148.220421,105.782609 L148.220421,108.217391 C148.220421,108.784696 148.417638,109.330087 148.775551,109.765913 L153.516073,115.521739 L133.188073,115.521739 L137.92616,109.765913 Z M133.611725,86.3043478 L153.089986,86.3043478 L153.089986,83.8695652 L133.611725,83.8695652 L133.611725,86.3043478 Z M166.264595,123.35687 L153.089986,107.345739 L153.089986,91.173913 L155.524768,91.173913 C156.868768,91.173913 157.959551,90.0855652 157.959551,88.7391304 L157.959551,81.4347826 C157.959551,80.0907826 156.868768,79 155.524768,79 L131.176942,79 C129.832942,79 128.74216,80.0907826 128.74216,81.4347826 L128.74216,88.7391304 C128.74216,90.0855652 129.832942,91.173913 131.176942,91.173913 L133.611725,91.173913 L133.611725,107.345739 L120.322682,123.507826 C118.757116,125.747826 118.567203,128.645217 119.828421,131.070261 C121.092073,133.495304 123.573116,135 126.307377,135 L160.394334,135 C163.128595,135 165.612073,133.495304 166.87329,131.070261 C168.134508,128.645217 167.947029,125.747826 166.264595,123.35687 L166.264595,123.35687 Z" id="Fill-1"></path>
                </g>
            </g>
        </g>
    </g>
</svg>