<?xml version="1.0" encoding="UTF-8"?>
<svg width="65px" height="60px" viewBox="0 0 65 60" version="1.1" xmlns="http://www.w3.org/2000/svg" xmlns:xlink="http://www.w3.org/1999/xlink">
    <!-- Generator: Sketch 42 (36781) - http://www.bohemiancoding.com/sketch -->
    <title>Page 1</title>
    <desc>Created with Sketch.</desc>
    <defs>
        <polygon id="path-1" points="64.6789038 0.282542553 0 0.282542553 0 59.0865877 64.6789038 59.0865877 64.6789038 0.282542553"></polygon>
    </defs>
    <g id="Page-1" stroke="none" stroke-width="1" fill="none" fill-rule="evenodd">
        <g id="Programa-ValBio" transform="translate(-1035.000000, -2508.000000)">
            <g id="Page-1" transform="translate(1035.000000, 2508.000000)">
                <path d="M32.3410627,36.3982219 C36.4968936,36.3982219 40.4272143,32.4552857 40.4272143,28.2861155 C40.4272143,27.167873 39.5219519,26.2597049 38.4040656,26.2597049 C37.2894009,26.2597049 36.3841385,27.167873 36.3841385,28.2861155 C36.3841385,30.2220326 34.2675641,32.3421687 32.3410627,32.3421687 C30.4145612,32.3421687 28.2979869,30.2220326 28.2979869,28.2861155 C28.2979869,27.167873 27.3927245,26.2597049 26.2780598,26.2597049 C25.1601735,26.2597049 24.2549111,27.167873 24.2549111,28.2861155 C24.2549111,32.4552857 28.1852318,36.3982219 32.3410627,36.3982219" id="Fill-1" fill="#B5BD00"></path>
                <path d="M22.2336953,20.1762715 C22.7684767,20.1762715 23.2839286,19.9629651 23.6672959,19.5783672 C24.0442201,19.2034651 24.2536224,18.6863587 24.2536224,18.1498609 C24.2536224,17.6101311 24.0442201,17.0930247 23.6672959,16.7181226 C22.9102259,15.9586226 21.5571647,15.9586226 20.7968732,16.7181226 C20.4263921,17.0930247 20.2137682,17.6101311 20.2137682,18.1498609 C20.2137682,18.6863587 20.4263921,19.2034651 20.8097595,19.5783672 C21.1834621,19.9629651 21.7085787,20.1762715 22.2336953,20.1762715" id="Fill-3" fill="#B5BD00"></path>
                <path d="M42.4461749,20.1762715 C42.9712915,20.1762715 43.4964082,19.9629651 43.8701108,19.5783672 C44.2566997,19.2034651 44.466102,18.6863587 44.466102,18.1498609 C44.466102,17.6101311 44.2566997,17.0930247 43.8701108,16.7181226 C43.1227055,15.9586226 41.7696443,15.9586226 41.0222391,16.7181226 C40.6356501,17.0930247 40.4262478,17.6101311 40.4262478,18.1498609 C40.4262478,18.6863587 40.6356501,19.2034651 41.0222391,19.5783672 C41.3959417,19.9629651 41.9113936,20.1762715 42.4461749,20.1762715" id="Fill-5" fill="#B5BD00"></path>
                <g id="Group-9" transform="translate(0.000000, 0.630223)">
                    <mask id="mask-2" fill="white">
                        <use xlink:href="#path-1"></use>
                    </mask>
                    <g id="Clip-8"></g>
                    <path d="M4.04243149,4.33794936 L60.6390496,4.33794936 L60.6390496,42.8656068 L32.3407405,42.8656068 C31.8575044,42.8656068 31.3903761,43.0401302 31.0231166,43.353626 L20.2115131,52.6518451 L20.2115131,44.8920174 C20.2115131,43.7737749 19.3062507,42.8656068 18.191586,42.8656068 L4.04243149,42.8656068 L4.04243149,4.33794936 Z M-0.000644314869,44.8920174 C-0.000644314869,46.0134919 0.904618076,46.92166 2.02250437,46.92166 L16.1684373,46.92166 L16.1684373,57.060177 C16.1684373,57.8519962 16.6291224,58.5694813 17.3475335,58.9023685 C17.6181458,59.0251813 17.9048659,59.0865877 18.191586,59.0865877 C18.6651574,59.0865877 19.1322857,58.92176 19.5059883,58.5985685 L33.0881458,46.92166 L62.6589767,46.92166 C63.776863,46.92166 64.6789038,46.0134919 64.6789038,44.8920174 L64.6789038,2.31153872 C64.6789038,1.19006426 63.776863,0.28189617 62.6589767,0.28189617 L2.02250437,0.28189617 C0.904618076,0.28189617 -0.000644314869,1.19006426 -0.000644314869,2.31153872 L-0.000644314869,44.8920174 Z" id="Fill-7" fill="#B5BD00" mask="url(#mask-2)"></path>
                </g>
            </g>
        </g>
    </g>
</svg>