<?xml version="1.0" encoding="UTF-8"?>
<svg width="50px" height="65px" viewBox="0 0 61 77" version="1.1" xmlns="http://www.w3.org/2000/svg" xmlns:xlink="http://www.w3.org/1999/xlink">
    <!-- Generator: Sketch 42 (36781) - http://www.bohemiancoding.com/sketch -->
    <title>Page 1</title>
    <desc>Created with Sketch.</desc>
    <defs>
        <polygon id="path-1" points="0 77.0001711 61 77.0001711 61 0.000171111112 0 0.000171111112"></polygon>
    </defs>
    <g id="Page-1" stroke="none" stroke-width="1" fill="none" fill-rule="evenodd">
        <g id="Programa-ValBio" transform="translate(-691.000000, -2505.000000)">
            <g id="sección_conocemás" transform="translate(249.000000, 2344.000000)">
                <g id="card_libro" transform="translate(329.000000, 89.000000)">
                    <g id="Page-1" transform="translate(113.000000, 72.000000)">
                        <mask id="mask-2" fill="white">
                            <use xlink:href="#path-1"></use>
                        </mask>
                        <g id="Clip-2"></g>
                        <path d="M30.5,20.53359 L42.3611111,20.53359 L42.3611111,35.2654011 L37.8869306,32.1101122 C37.0125972,31.4932567 35.8485139,31.4932567 34.9741806,32.1101122 L30.5,35.2654011 L30.5,20.53359 Z M5.08333333,19.11679 C6.58545833,20.00999 8.32904167,20.53359 10.1666667,20.53359 L25.4166667,20.53359 L25.4166667,40.2113678 C25.4268333,41.6290233 26.573125,42.7694789 27.9769722,42.7592122 C28.4912361,42.75579 28.9927917,42.59409 29.4147083,42.2963567 L36.4305556,37.3238678 L43.4464028,42.2963567 C44.5969306,43.1091344 46.1820833,42.82509 46.9860972,41.6632456 C47.2809306,41.2371789 47.4410556,40.73069 47.4444444,40.2113678 L47.4444444,20.53359 L55.9166667,20.53359 L55.9166667,71.8669233 L8.47222222,71.8669233 C6.55072222,71.8669233 5.08333333,70.3851011 5.08333333,68.4447011 L5.08333333,19.11679 Z M10.1666667,5.13359 L49.6946667,5.13359 C48.807625,6.65220111 48.2916667,8.40865667 48.2916667,10.2669233 C48.2916667,12.12519 48.807625,13.8816456 49.6946667,15.4002567 L10.1666667,15.4002567 C7.72158333,15.4002567 5.08333333,12.7360567 5.08333333,10.2669233 C5.08333333,7.79779 7.72158333,5.13359 10.1666667,5.13359 L10.1666667,5.13359 Z M10.1666667,0.000256666666 C4.63345833,0.000256666666 0,4.67929 0,10.2669233 L0,68.4447011 C0,73.13999 3.82266667,77.0002567 8.47222222,77.0002567 L58.4583333,77.0002567 C59.7893194,77.0002567 61,75.7776678 61,74.43359 L61,17.9669233 C60.9915278,16.46029 59.9121667,15.3865678 58.4583333,15.4002567 C56.01325,15.4002567 53.375,12.7360567 53.375,10.2669233 C53.375,7.79779 56.01325,5.13359 58.4583333,5.13359 C59.8011806,5.15241222 61,3.92297889 61,2.56692333 C61,1.21086778 59.8011806,-0.0185655556 58.4583333,0.000256666666 L10.1666667,0.000256666666 Z" id="Fill-1" fill="#B6BE34" mask="url(#mask-2)"></path>
                    </g>
                </g>
            </g>
        </g>
    </g>
</svg>