<?xml version="1.0" encoding="UTF-8"?>
<svg width="44px" height="36px" viewBox="0 0 51 46" version="1.1" xmlns="http://www.w3.org/2000/svg" xmlns:xlink="http://www.w3.org/1999/xlink">
    <!-- Generator: Sketch 42 (36781) - http://www.bohemiancoding.com/sketch -->
    <title>Page 1 Copy</title>
    <desc>Created with Sketch.</desc>
    <defs></defs>
    <g id="Page-1" stroke="none" stroke-width="1" fill="none" fill-rule="evenodd">
        <g id="Biodiversidad-en-números" transform="translate(-932.000000, -1879.000000)" fill="#3C4145">
            <g id="Page-1-Copy" transform="translate(932.000000, 1879.000000)">
                <path d="M42.432,32.6088889 C42.585,32.3533333 42.636,32.0977778 42.636,31.7911111 C42.636,31.3822222 42.483,30.9733333 42.177,30.6666667 C41.616,30.1044444 40.545,30.1044444 39.984,30.6666667 C39.678,30.9733333 39.525,31.3822222 39.525,31.7911111 C39.525,32.2 39.678,32.6088889 39.984,32.9155556 C40.29,33.2222222 40.698,33.3755556 41.106,33.3755556 C41.412,33.3755556 41.718,33.2733333 41.973,33.12 C40.851,34.2444444 39.474,35.0622222 37.995,35.6755556 C38.148,35.3177778 38.25,34.96 38.352,34.5511111 C38.454,34.3466667 38.505,34.1422222 38.505,33.8866667 L38.505,33.5288889 L38.505,33.1711111 C38.505,32.9155556 38.454,32.7111111 38.352,32.5066667 C37.791,29.6955556 35.496,27.0888889 33.303,24.84 L33.303,23.92 C34.17,24.4822222 35.292,24.9933333 36.924,24.9933333 C40.494,24.9933333 42.636,22.8466667 42.636,19.2688889 C42.636,18.4 41.922,17.6844444 41.055,17.6844444 C40.188,17.6844444 39.474,18.4 39.474,19.2688889 C39.474,21.1088889 38.709,21.8755556 36.873,21.8755556 C35.394,21.8755556 34.884,21.3133333 34.068,20.5466667 L33.813,20.2911111 C33.711,20.1888889 33.609,20.1377778 33.456,20.0866667 C33.711,17.5822222 34.17,16.5088889 34.527,15.64 C34.935,14.72 35.292,13.8 35.292,12.0622222 C35.292,11.1933333 34.578,10.4777778 33.711,10.4777778 C32.844,10.4777778 32.13,11.1933333 32.13,12.0622222 C32.13,13.1866667 31.926,13.6466667 31.62,14.4644444 C31.059,15.8444444 30.294,17.6844444 30.09,23.1533333 C29.886,23.2044444 29.631,23.3577778 29.478,23.5111111 C28.866,24.1244444 28.866,25.0955556 29.478,25.7088889 L29.886,26.1177778 L30.498,26.7311111 C32.538,28.7755556 34.935,31.3311111 35.19,33.5288889 C35.037,35.2155556 33.507,36.5444444 31.569,36.5444444 C30.141,36.5444444 28.815,36.6977778 27.744,36.8 C27.489,36.8511111 27.183,36.8511111 26.877,36.9022222 L26.877,34.1422222 L30.243,32.1488889 C31.008,31.6888889 31.263,30.7688889 30.804,30.0022222 C30.345,29.2355556 29.427,28.98 28.662,29.44 L25.5,31.3822222 L22.134,29.3888889 C21.369,28.9288889 20.451,29.1844444 19.992,29.9511111 C19.533,30.7177778 19.788,31.6377778 20.553,32.0977778 L23.919,34.0911111 L23.919,36.8511111 C23.664,36.8 23.358,36.8 23.052,36.7488889 C21.981,36.6466667 20.655,36.4933333 19.227,36.4933333 C17.34,36.4933333 15.759,35.1644444 15.606,33.4777778 C15.912,31.28 18.258,28.7244444 20.298,26.68 L20.91,26.0666667 L21.318,25.6577778 C21.93,25.0444444 21.93,24.0733333 21.318,23.46 C21.114,23.2555556 20.91,23.1533333 20.706,23.1022222 C20.502,17.6333333 19.788,15.7933333 19.176,14.4133333 C18.819,13.5955556 18.666,13.1866667 18.666,12.0111111 C18.666,11.1422222 17.952,10.4266667 17.085,10.4266667 C16.218,10.4266667 15.504,11.1422222 15.504,12.0111111 C15.504,13.7488889 15.861,14.6688889 16.269,15.5888889 C16.626,16.4577778 17.085,17.5311111 17.34,20.0355556 C17.238,20.0866667 17.085,20.1377778 16.983,20.24 L16.83,20.5466667 C16.014,21.3644444 15.504,21.8755556 14.025,21.8755556 C12.189,21.8755556 11.424,21.1088889 11.424,19.2688889 C11.424,18.4 10.71,17.6844444 9.843,17.6844444 C8.976,17.6844444 8.262,18.4 8.262,19.2688889 C8.262,22.8466667 10.404,24.9933333 13.974,24.9933333 C15.657,24.9933333 16.779,24.5333333 17.595,23.92 L17.595,24.84 C15.402,27.0888889 13.107,29.6955556 12.546,32.5066667 C12.444,32.7111111 12.393,32.9155556 12.393,33.1711111 L12.393,33.5288889 L12.393,33.8866667 C12.393,34.1422222 12.444,34.3466667 12.546,34.5511111 C12.648,34.96 12.75,35.3177778 12.903,35.6755556 C11.424,35.0622222 10.047,34.2444444 8.925,33.12 C9.18,33.2733333 9.486,33.3755556 9.792,33.3755556 C10.2,33.3755556 10.608,33.2222222 10.914,32.9155556 C11.22,32.6088889 11.373,32.2 11.373,31.7911111 C11.373,31.3822222 11.22,30.9733333 10.914,30.6666667 C10.353,30.1044444 9.282,30.1044444 8.721,30.6666667 C8.415,30.9733333 8.262,31.3822222 8.262,31.7911111 C8.262,32.0977778 8.364,32.3533333 8.466,32.5577778 C7.038,30.9222222 6.171,28.7755556 6.171,25.8622222 C6.171,15.8444444 11.22,4.08888889 25.449,4.08888889 C39.678,4.08888889 44.727,15.7933333 44.727,25.8622222 C44.778,28.8266667 43.86,30.9733333 42.432,32.6088889 M25.5,42.78 C22.236,42.78 20.094,41.4511111 19.839,40.3777778 C21.573,40.5822222 23.46,40.6844444 25.5,40.6844444 C27.54,40.6844444 29.427,40.5822222 31.161,40.3777778 C30.906,41.4511111 28.764,42.78 25.5,42.78 M3.162,3.16888889 C8.16,3.32222222 11.526,4.08888889 12.954,4.70222222 C10.098,6.69555556 7.854,9.35333333 6.273,12.42 C4.794,11.7044444 3.417,8.22888889 3.162,3.16888889 M47.838,3.16888889 C47.583,8.22888889 46.206,11.7044444 44.727,12.42 C43.146,9.35333333 40.902,6.69555556 38.046,4.70222222 C39.474,4.03777778 42.84,3.27111111 47.838,3.16888889 M51,1.58444444 C51,0.715555556 50.286,0 49.419,0 C46.41,0 37.638,0.255555556 35.088,3.01555556 C32.334,1.73777778 29.172,1.02222222 25.5,1.02222222 C21.828,1.02222222 18.666,1.73777778 15.912,3.01555556 C13.362,0.255555556 4.59,0 1.581,0 C0.714,0 0,0.715555556 0,1.58444444 C0,7.20666667 1.326,13.6977778 4.998,15.2822222 C3.774,18.6555556 3.162,22.2844444 3.162,25.9644444 C3.162,31.4333333 5.763,37.7711111 16.728,39.9688889 L16.728,40.2244444 C16.728,43.4444444 20.604,45.9488889 25.551,45.9488889 C30.498,45.9488889 34.323,43.3933333 34.323,40.1733333 L34.323,39.9177778 C45.288,37.7711111 47.889,31.4333333 47.889,25.9133333 C47.889,22.2844444 47.277,18.6044444 46.053,15.2311111 C49.674,13.6977778 51,7.20666667 51,1.58444444" id="Fill-1"></path>
                <path d="M22.338,17.1733333 C22.032,17.48 21.879,17.8377778 21.879,18.2977778 C21.879,18.7066667 22.032,19.1155556 22.338,19.4222222 C22.644,19.7288889 23.052,19.8822222 23.46,19.8822222 C23.868,19.8822222 24.276,19.7288889 24.582,19.4222222 C24.888,19.1155556 25.041,18.7066667 25.041,18.2977778 C25.041,17.8888889 24.888,17.48 24.582,17.1733333 C23.919,16.56 22.899,16.56 22.338,17.1733333" id="Fill-3"></path>
                <path d="M22.338,11.9088889 C22.032,12.2155556 21.879,12.5733333 21.879,13.0333333 C21.879,13.4422222 22.032,13.8511111 22.338,14.1577778 C22.644,14.4644444 23.052,14.6177778 23.46,14.6177778 C23.868,14.6177778 24.276,14.4644444 24.582,14.1577778 C24.888,13.8511111 25.041,13.4422222 25.041,13.0333333 C25.041,12.6244444 24.888,12.2155556 24.582,11.9088889 C23.919,11.3466667 22.899,11.3466667 22.338,11.9088889" id="Fill-5"></path>
                <path d="M23.409,7.82 C23.409,7.25777778 23.205,6.74666667 22.797,6.33777778 C22.032,5.57111111 20.655,5.57111111 19.839,6.33777778 C19.431,6.74666667 19.227,7.25777778 19.227,7.82 C19.227,8.38222222 19.431,8.89333333 19.839,9.30222222 C20.247,9.71111111 20.757,9.91555556 21.318,9.91555556 C21.879,9.91555556 22.389,9.71111111 22.797,9.30222222 C23.205,8.89333333 23.409,8.38222222 23.409,7.82" id="Fill-7"></path>
                <path d="M8.415,29.1333333 C8.823,29.5422222 9.333,29.7466667 9.894,29.7466667 C10.455,29.7466667 10.965,29.5422222 11.373,29.1333333 C11.781,28.7244444 11.985,28.2133333 11.985,27.6511111 C11.985,27.0888889 11.781,26.5777778 11.373,26.1688889 C10.608,25.4022222 9.231,25.4022222 8.415,26.1688889 C8.007,26.5777778 7.803,27.0888889 7.803,27.6511111 C7.803,28.2133333 8.007,28.7244444 8.415,29.1333333" id="Fill-9"></path>
                <path d="M39.627,26.1688889 C39.219,26.5777778 39.015,27.0888889 39.015,27.6511111 C39.015,28.2133333 39.219,28.7244444 39.627,29.1333333 C40.035,29.5422222 40.545,29.7466667 41.106,29.7466667 C41.667,29.7466667 42.177,29.5422222 42.585,29.1333333 C42.993,28.7244444 43.197,28.2133333 43.197,27.6511111 C43.197,27.0888889 42.993,26.5777778 42.585,26.1688889 C41.82,25.4022222 40.392,25.4022222 39.627,26.1688889" id="Fill-11"></path>
                <path d="M26.469,17.1733333 C26.163,17.4288889 26.01,17.8377778 26.01,18.2466667 C26.01,18.6555556 26.163,19.0644444 26.469,19.3711111 C26.775,19.6777778 27.183,19.8311111 27.591,19.8311111 C27.999,19.8311111 28.407,19.6777778 28.713,19.3711111 C29.019,19.0644444 29.172,18.6555556 29.172,18.2466667 C29.172,17.8377778 29.019,17.4288889 28.713,17.1222222 C28.101,16.56 27.081,16.56 26.469,17.1733333" id="Fill-13"></path>
                <path d="M26.469,11.9088889 C26.163,12.2155556 26.01,12.6244444 26.01,13.0333333 C26.01,13.4422222 26.163,13.8511111 26.469,14.1577778 C26.775,14.4644444 27.183,14.6177778 27.591,14.6177778 C27.999,14.6177778 28.407,14.4644444 28.713,14.1577778 C29.019,13.8511111 29.172,13.4933333 29.172,13.0333333 C29.172,12.6244444 29.019,12.2155556 28.713,11.9088889 C28.101,11.3466667 27.081,11.3466667 26.469,11.9088889" id="Fill-15"></path>
                <path d="M28.203,6.33777778 C27.795,6.74666667 27.591,7.25777778 27.591,7.82 C27.591,8.38222222 27.795,8.89333333 28.203,9.30222222 C28.611,9.71111111 29.121,9.91555556 29.682,9.91555556 C30.243,9.91555556 30.753,9.71111111 31.161,9.30222222 C31.569,8.89333333 31.773,8.38222222 31.773,7.82 C31.773,7.25777778 31.569,6.74666667 31.161,6.33777778 C30.345,5.57111111 28.968,5.57111111 28.203,6.33777778" id="Fill-17"></path>
            </g>
        </g>
    </g>
</svg>