<?xml version="1.0" encoding="UTF-8"?>
<svg width="15px" height="20px" viewBox="0 0 15 20" version="1.1" xmlns="http://www.w3.org/2000/svg" xmlns:xlink="http://www.w3.org/1999/xlink">
    <!-- Generator: Sketch 42 (36781) - http://www.bohemiancoding.com/sketch -->
    <title>Page 1</title>
    <desc>Created with Sketch.</desc>
    <defs>
        <polygon id="path-1" points="0.0002 0.923 14.4302609 0.923 14.4302609 20.9996 0.0002 20.9996 0.0002 0.923"></polygon>
    </defs>
    <g id="Page-1" stroke="none" stroke-width="1" fill="none" fill-rule="evenodd">
        <g id="Eventos_Interna" transform="translate(-969.000000, -707.000000)">
            <g id="Page-1" transform="translate(969.000000, 706.000000)">
                <path d="M5.9604,8.2153 C5.9604,7.5233 6.5234,6.9603 7.2154,6.9603 C7.9074,6.9603 8.4704,7.5233 8.4704,8.2153 C8.4704,8.9073 7.9074,9.4703 7.2154,9.4703 C6.5234,9.4703 5.9604,8.9073 5.9604,8.2153 M9.7244,8.2153 C9.7244,6.8313 8.5994,5.7053 7.2154,5.7053 C5.8314,5.7053 4.7054,6.8313 4.7054,8.2153 C4.7054,9.5993 5.8314,10.7253 7.2154,10.7253 C8.5994,10.7253 9.7244,9.5993 9.7244,8.2153" id="Fill-1" fill="#1EBED1"></path>
                <g id="Group-5" transform="translate(0.000000, 0.077200)">
                    <mask id="mask-2" fill="white">
                        <use xlink:href="#path-1"></use>
                    </mask>
                    <g id="Clip-4"></g>
                    <path d="M7.2152,2.1776 C10.4872,2.1776 13.1602,4.8576 13.1762,8.1516 C13.1922,11.8606 8.6952,17.6016 7.2062,19.3996 C5.7242,17.5996 1.2552,11.8626 1.2552,8.1486 C1.2552,4.8566 3.9292,2.1776 7.2152,2.1776 M7.2042,20.9996 C7.3842,20.9996 7.5562,20.9226 7.6752,20.7876 C7.9522,20.4736 14.4532,13.0446 14.4302,8.1456 C14.4122,4.1636 11.1762,0.9226 7.2152,0.9226 C3.2362,0.9226 0.0002,4.1646 0.0002,8.1486 C0.0002,13.0446 6.4572,20.4726 6.7332,20.7866 C6.8522,20.9216 7.0142,20.9956 7.2042,20.9996" id="Fill-3" fill="#1EBED1" mask="url(#mask-2)"></path>
                </g>
            </g>
        </g>
    </g>
</svg>