<?xml version="1.0" encoding="utf-8"?>
<!-- Generator: Adobe Illustrator 21.0.2, SVG Export Plug-In . SVG Version: 6.00 Build 0)  -->
<svg version="1.1" id="Capa_1" xmlns="http://www.w3.org/2000/svg" xmlns:xlink="http://www.w3.org/1999/xlink" x="0px" y="0px"
	 viewBox="0 0 50 50" style="enable-background:new 0 0 50 50;" xml:space="preserve">
<style type="text/css">
	.st0{fill:#404346;}
</style>
<g>
	<path class="st0" d="M44,11.4c-5.4,0-11.7,2.8-15.9,6.9c-0.1-0.1-0.2-0.2-0.3-0.4l2.6-10.3c0.2-0.7-0.3-1.5-1-1.6
		c-0.7-0.2-1.5,0.3-1.6,1l-2.5,9.8c-0.1,0-0.2,0-0.3,0s-0.2,0-0.3,0L22.2,7c-0.2-0.7-0.9-1.2-1.6-1c-0.7,0.2-1.2,0.9-1,1.6L22.2,18
		c-0.1,0.1-0.2,0.2-0.3,0.4c-4.1-4.1-10.4-6.9-15.9-6.9c-3,0-5.4,2.4-5.4,5.4c0,0.6,0.1,1.2,0.3,1.7l2.7,8.1c0.7,2,2.5,3.4,4.6,3.7
		C6.8,31.8,6,33.8,6,35.9c0,4.5,3.7,8.1,8.1,8.1c2.6,0,5-1.2,6.5-3.3l3-4v3.2c0,0.7,0.6,1.4,1.4,1.4s1.4-0.6,1.4-1.4v-3.2l3,4
		c1.6,2.1,3.9,3.3,6.5,3.3c4.5,0,8.1-3.7,8.1-8.1c0-2.1-0.8-4-2.1-5.5c2.1-0.2,3.9-1.6,4.6-3.7l2.7-8.1c0.2-0.6,0.3-1.1,0.3-1.7
		C49.4,13.9,47,11.4,44,11.4z M6.1,25.9l-2.7-8.1c-0.1-0.3-0.1-0.6-0.1-0.9c0-1.5,1.2-2.7,2.7-2.7c5.2,0,11.5,3,14.9,7.1
		c0,2.2,0.5,4.4,1.3,6.4H8.7C7.5,27.7,6.5,27,6.1,25.9z M23.4,32.6l-4.9,6.5c-1,1.4-2.6,2.2-4.3,2.2c-3,0-5.4-2.4-5.4-5.4
		s2.4-5.4,5.4-5.4h8.1c0.7,0,1.4,0.6,1.4,1.4C23.6,32.1,23.5,32.4,23.4,32.6z M25,27.4c-0.9-2-1.4-4.2-1.4-6.4
		c0-0.7,0.6-1.4,1.4-1.4s1.4,0.6,1.4,1.4C26.4,23.1,25.9,25.3,25,27.4z M35.9,41.3c-1.7,0-3.3-0.8-4.3-2.2l-4.9-6.5
		c-0.2-0.2-0.3-0.5-0.3-0.8c0-0.7,0.6-1.4,1.4-1.4h8.1c3,0,5.4,2.4,5.4,5.4S38.9,41.3,35.9,41.3z M46.6,17.7l-2.7,8.1
		c-0.4,1.1-1.4,1.9-2.6,1.9H27.8c0.8-2,1.2-4.2,1.3-6.4c3.5-4.1,9.7-7.1,14.9-7.1c1.5,0,2.7,1.2,2.7,2.7
		C46.7,17.2,46.7,17.4,46.6,17.7z"/>
</g>
</svg>
