<svg width="572px" height="623px" viewBox="0 0 572 623" version="1.1" xmlns="http://www.w3.org/2000/svg" xmlns:xlink="http://www.w3.org/1999/xlink">
    <defs>
        <path d="M4.09123098,184.809493 L4.09123098,184.925307 L3.82515981,185.970771 C2.7608751,189.908475 1.93761957,194.137282 1.31156975,198.901341 C1.22392277,199.505456 1.13001529,200.012537 1.13001529,200.597871 L1.06428006,201.618294 C0.529007459,205.703114 0.266066531,209.975743 0.266066531,214.677199 L2.24438399,414.019567 C2.70453061,453.853609 24.5536696,490.78289 59.2681326,510.390028 L232.884271,608.306774 C245.699511,615.565547 259.713637,620.144928 274.551018,621.922843 C298.719671,624.821343 323.642715,619.622197 344.740594,607.261311 L516.356503,505.776216 C541.235724,491.095903 559.870097,466.508727 567.57051,438.240518 C567.645636,437.736567 567.761455,437.242006 567.917967,436.759966 C568.894605,432.668885 569.680298,428.399387 570.250003,424.067286 L570.631893,421.397285 C570.988742,417.972922 571.420716,413.13061 571.298636,408.498017 L571.295506,408.369681 L569.320319,208.94906 C568.972861,169.193271 547.167546,132.27025 512.409259,112.575468 L338.680432,14.6618527 C325.84328,7.39055925 311.869848,2.81430829 297.135765,1.04578449 C272.870074,-1.8777575 247.953291,3.33390997 226.96184,15.6979259 L55.201939,117.195541 C30.2475928,131.919676 11.6445222,156.541283 4.09123098,184.809493" id="path-1"></path>
    </defs>
    <g id="Page-1" stroke="none" stroke-width="1" fill="none" fill-rule="evenodd">
        <g id="Home" transform="translate(-744.000000, -751.000000)">
            <g id="Group" transform="translate(744.000000, 751.000000)">
                <g id="img">
                    <g id="Bitmap">
                        <mask id="mask-2" fill="white">
                            <use xlink:href="#path-1"></use>
                        </mask>
                        <use id="Mask" xlink:href="#path-1">
                            <image width="100%" height="100%" xlink:href="http://isa.ixda.org/2016/wp-content/uploads/2014/07/Cooper_Alan_HR-1.jpg?528c6c"></image>
                        </use>
                    </g>
                </g>
            </g>
        </g>
    </g>
</svg>



