<?xml version="1.0" encoding="utf-8"?>
<!-- Generator: Adobe Illustrator 21.0.2, SVG Export Plug-In . SVG Version: 6.00 Build 0)  -->
<svg version="1.1" id="Capa_1" xmlns="http://www.w3.org/2000/svg" xmlns:xlink="http://www.w3.org/1999/xlink" x="0px" y="0px"
	 viewBox="0 0 50 50" style="enable-background:new 0 0 50 50;" xml:space="preserve">
<style type="text/css">
	.st0{fill:#404346;}
</style>
<g transform="translate(0,-1036.3622)">
	<path class="st0" d="M25,1040.4c-2.7,0-5.5,0.9-7.7,2.8c-4.4,3.7-5.6,10.2-2.7,15.2l0.4,0.7c0,0,0,0,0,0.1c1.6,2.7,1.3,6.1-0.7,8.5
		c-2,2.4-5.3,3.3-8.2,2.3c-0.8-0.3-1.6,0.1-1.9,0.8c-0.3,0.8,0.1,1.6,0.8,1.9c0,0,0.1,0,0.1,0c4.1,1.4,8.7,0.2,11.5-3.2
		c2.8-3.4,3.2-8.1,1-11.9l0-0.1l-0.4-0.7c0,0,0,0,0-0.1c-2.2-3.8-1.3-8.6,2-11.4c3.4-2.8,8.2-2.8,11.6,0c3.4,2.8,4.2,7.6,2,11.4
		c0,0,0,0,0,0.1l-0.4,0.7c-2.2,3.8-1.8,8.6,1,11.9c2.8,3.4,7.4,4.7,11.6,3.2c0.8-0.2,1.2-1.1,1-1.9s-1.1-1.2-1.9-1c0,0-0.1,0-0.1,0
		c-3,1-6.2,0.1-8.3-2.3c-2-2.4-2.3-5.8-0.7-8.5c0,0,0,0,0-0.1l0.4-0.7c2.9-5,1.8-11.4-2.7-15.2C30.5,1041.3,27.7,1040.4,25,1040.4z
		 M20.5,1049.3c-0.8,0-1.5,0.7-1.5,1.5l0,0c0,0.8,0.7,1.5,1.5,1.5l0,0c0.8,0,1.5-0.7,1.5-1.5l0,0C22,1050,21.3,1049.3,20.5,1049.3
		L20.5,1049.3z M29.5,1049.3c-0.8,0-1.5,0.7-1.5,1.5l0,0c0,0.8,0.7,1.5,1.5,1.5l0,0c0.8,0,1.5-0.7,1.5-1.5l0,0
		C31,1050,30.3,1049.3,29.5,1049.3L29.5,1049.3z M23.3,1055.3c-0.8,0-1.5,0.7-1.4,1.6c0,0.8,0.7,1.5,1.6,1.4l0,0h3
		c0.8,0,1.5-0.6,1.5-1.5c0-0.8-0.6-1.5-1.5-1.5c0,0,0,0,0,0h-3C23.4,1055.3,23.4,1055.3,23.3,1055.3z M21.5,1068.8
		c-0.5,0-1.1,0.3-1.3,0.8c-2.4,4.2-6.9,6.7-11.7,6.7c-0.8,0-1.5,0.6-1.5,1.5c0,0.8,0.6,1.5,1.5,1.5c0,0,0,0,0,0
		c5.9,0,11.3-3.1,14.3-8.2c0.4-0.7,0.2-1.6-0.5-2.1C22,1068.9,21.8,1068.8,21.5,1068.8z M28.4,1068.8c-0.8,0-1.5,0.7-1.4,1.6
		c0,0.3,0.1,0.5,0.2,0.7c2.9,5.1,8.4,8.2,14.3,8.2c0.8,0,1.5-0.6,1.5-1.5s-0.6-1.5-1.5-1.5c0,0,0,0,0,0c-4.8,0-9.3-2.6-11.7-6.7
		C29.5,1069.1,29,1068.8,28.4,1068.8z M25,1074.2c-0.4,0-0.8,0.2-1.1,0.6c-1.5,1.9-3.3,3.5-5.4,4.7c-0.7,0.4-1,1.3-0.6,2
		c0.4,0.7,1.3,1,2,0.6c0,0,0.1,0,0.1-0.1c2.4-1.4,4.5-3.3,6.2-5.5c0.5-0.6,0.4-1.6-0.2-2.1c-0.2-0.2-0.6-0.3-0.9-0.3
		C25.1,1074.2,25,1074.2,25,1074.2z"/>
</g>
</svg>
