<?xml version="1.0" encoding="UTF-8"?>
<svg width="51px" height="56px" viewBox="0 0 51 56" version="1.1" xmlns="http://www.w3.org/2000/svg" xmlns:xlink="http://www.w3.org/1999/xlink">
    <!-- Generator: Sketch 43.2 (39069) - http://www.bohemiancoding.com/sketch -->
    <title>Page 1</title>
    <desc>Created with Sketch.</desc>
    <defs></defs>
    <g id="Page-1" stroke="none" stroke-width="1" fill="none" fill-rule="evenodd">
        <g id="Programa-ValBio" transform="translate(-1044.000000, -1596.000000)" fill="#B6BE34">
            <g id="Page-1" transform="translate(1044.000000, 1595.000000)">
                <g id="Group-3" transform="translate(0.000000, 0.021900)">
                    <path d="M49.0932,37.6881 C49.0422,38.0701 48.9712,38.4481 48.8762,38.8191 C48.8722,38.8361 48.8682,38.8531 48.8642,38.8711 C48.2222,41.3121 46.6422,43.4561 44.4172,44.7711 L30.5142,52.9861 C28.6592,54.0811 26.5152,54.5061 24.4352,54.2601 C23.1852,54.1111 21.9592,53.7191 20.8322,53.0821 L6.7642,45.1501 C3.7572,43.4531 1.8662,40.2561 1.8322,36.8031 L1.6682,20.6521 C1.6642,20.2661 1.6922,19.8841 1.7342,19.5061 C1.7412,19.4341 1.7482,19.3611 1.7572,19.2901 C1.8082,18.9081 1.8792,18.5311 1.9742,18.1611 C1.9782,18.1431 1.9822,18.1251 1.9862,18.1071 C2.6282,15.6651 4.2082,13.5221 6.4332,12.2071 L20.3362,3.9921 C22.1912,2.8961 24.3352,2.4711 26.4152,2.7181 C27.6642,2.8671 28.8912,3.2591 30.0182,3.8961 L44.0862,11.8281 C47.0932,13.5251 48.9842,16.7221 49.0182,20.1751 L49.1822,36.3261 C49.1862,36.7121 49.1582,37.0941 49.1162,37.4721 C49.1092,37.5441 49.1022,37.6171 49.0932,37.6881 M50.7442,37.9241 C50.7572,37.8261 50.7652,37.7271 50.7762,37.6281 C50.8002,37.3991 50.8392,37.1731 50.8502,36.9411 C50.8532,36.8811 50.8332,36.8281 50.8242,36.7711 C50.8292,36.6161 50.8522,36.4641 50.8502,36.3081 L50.6902,20.2061 C50.6912,20.1891 50.6992,20.1751 50.6992,20.1581 C50.6602,16.1111 48.4422,12.3611 44.9192,10.3731 L30.8522,2.4391 C30.0362,1.9801 29.1742,1.6411 28.2922,1.3991 C28.2332,1.3821 28.1772,1.3571 28.1182,1.3421 C27.8342,1.2691 27.5452,1.2271 27.2572,1.1761 C27.0612,1.1411 26.8682,1.0921 26.6702,1.0671 C26.4392,1.0391 26.2072,1.0381 25.9762,1.0231 C25.7362,1.0081 25.4972,0.9781 25.2572,0.9781 C25.2402,0.9781 25.2222,0.9811 25.2052,0.9821 C24.9452,0.9831 24.6872,1.0141 24.4282,1.0331 C24.1892,1.0501 23.9512,1.0541 23.7132,1.0861 C23.5072,1.1141 23.3042,1.1691 23.1002,1.2091 C22.8132,1.2641 22.5262,1.3091 22.2442,1.3861 C22.1612,1.4091 22.0812,1.4461 21.9982,1.4701 C21.1272,1.7311 20.2762,2.0821 19.4752,2.5541 L5.5722,10.7691 C2.9592,12.3131 1.1292,14.7971 0.3792,17.6601 C0.3672,17.7061 0.3582,17.7521 0.3462,17.7981 C0.2432,18.2101 0.1622,18.6281 0.1062,19.0541 C0.0932,19.1521 0.0852,19.2511 0.0742,19.3501 C0.0502,19.5791 0.0112,19.8051 0.0002,20.0371 C-0.0028,20.0971 0.0172,20.1501 0.0262,20.2071 C0.0212,20.3621 -0.0018,20.5141 0.0002,20.6701 L0.1602,36.7721 C0.1592,36.7891 0.1502,36.8031 0.1512,36.8201 C0.1902,40.8671 2.4082,44.6171 5.9312,46.6051 L19.9982,54.5391 C20.8152,54.9991 21.6782,55.3381 22.5622,55.5811 C22.6192,55.5961 22.6742,55.6211 22.7322,55.6361 C23.0162,55.7091 23.3062,55.7511 23.5942,55.8021 C23.7892,55.8371 23.9832,55.8861 24.1802,55.9111 C24.4102,55.9391 24.6432,55.9401 24.8742,55.9541 C25.1142,55.9701 25.3532,56.0001 25.5932,56.0001 C25.6102,56.0001 25.6282,55.9961 25.6452,55.9961 C25.9052,55.9951 26.1632,55.9641 26.4222,55.9451 C26.6602,55.9281 26.8992,55.9241 27.1372,55.8921 C27.3432,55.8641 27.5452,55.8091 27.7502,55.7691 C28.0372,55.7141 28.3242,55.6691 28.6062,55.5921 C28.6892,55.5691 28.7692,55.5321 28.8512,55.5081 C29.7232,55.2471 30.5742,54.8961 31.3752,54.4241 L45.2782,46.2091 C47.8912,44.6651 49.7212,42.1811 50.4712,39.3181 C50.4832,39.2721 50.4922,39.2261 50.5042,39.1801 C50.6062,38.7681 50.6882,38.3501 50.7442,37.9241" id="Fill-1"></path>
                </g>
                <path d="M24.4364,26.2801 C24.9004,26.2971 25.3654,26.2641 25.8304,26.1811 C26.2934,26.0981 26.7084,25.9531 27.0734,25.7451 C27.4384,25.5381 27.7324,25.2521 27.9574,24.8871 C28.1814,24.5221 28.2924,24.0741 28.2924,23.5441 C28.2924,22.7971 28.0404,22.2001 27.5344,21.7521 C27.0274,21.3041 26.3774,21.0801 25.5814,21.0801 C25.0834,21.0801 24.6514,21.1801 24.2874,21.3791 C23.9224,21.5781 23.6194,21.8481 23.3794,22.1881 C23.1384,22.5281 22.9604,22.9091 22.8444,23.3321 C22.7284,23.7551 22.6784,24.1901 22.6954,24.6381 L19.8584,24.6381 C19.8924,23.7921 20.0494,23.0091 20.3314,22.2871 C20.6134,21.5661 20.9984,20.9401 21.4884,20.4081 C21.9774,19.8781 22.5704,19.4631 23.2674,19.1651 C23.9634,18.8661 24.7514,18.7171 25.6304,18.7171 C26.3104,18.7171 26.9784,18.8161 27.6334,19.0151 C28.2884,19.2151 28.8774,19.5051 29.3994,19.8861 C29.9224,20.2681 30.3414,20.7531 30.6564,21.3421 C30.9714,21.9301 31.1294,22.6071 31.1294,23.3691 C31.1294,24.2491 30.9304,25.0151 30.5324,25.6711 C30.1334,26.3261 29.5124,26.8021 28.6654,27.1011 L28.6654,27.1511 C29.6614,27.3501 30.4364,27.8431 30.9924,28.6311 C31.5474,29.4191 31.8254,30.3771 31.8254,31.5051 C31.8254,32.3341 31.6594,33.0761 31.3284,33.7321 C30.9964,34.3871 30.5484,34.9431 29.9844,35.3991 C29.4204,35.8551 28.7654,36.2071 28.0194,36.4561 C27.2724,36.7051 26.4844,36.8291 25.6554,36.8291 C24.6444,36.8291 23.7604,36.6841 23.0054,36.3941 C22.2504,36.1041 21.6214,35.6931 21.1154,35.1621 C20.6084,34.6321 20.2234,33.9931 19.9584,33.2461 C19.6924,32.5001 19.5514,31.6711 19.5354,30.7591 L22.3714,30.7591 C22.3384,31.8201 22.5994,32.7031 23.1554,33.4081 C23.7104,34.1131 24.5444,34.4661 25.6554,34.4661 C26.6014,34.4661 27.3934,34.1961 28.0314,33.6571 C28.6694,33.1181 28.9894,32.3511 28.9894,31.3561 C28.9894,30.6761 28.8564,30.1361 28.5914,29.7381 C28.3264,29.3411 27.9774,29.0381 27.5464,28.8301 C27.1154,28.6231 26.6294,28.4941 26.0914,28.4451 C25.5514,28.3951 25.0004,28.3791 24.4364,28.3951 L24.4364,26.2801 Z" id="Fill-4"></path>
            </g>
        </g>
    </g>
</svg>