<?xml version="1.0" encoding="UTF-8"?>
<svg width="51px" height="56px" viewBox="0 0 51 56" version="1.1" xmlns="http://www.w3.org/2000/svg" xmlns:xlink="http://www.w3.org/1999/xlink">
    <!-- Generator: Sketch 43.2 (39069) - http://www.bohemiancoding.com/sketch -->
    <title>Page 1</title>
    <desc>Created with Sketch.</desc>
    <defs></defs>
    <g id="Page-1" stroke="none" stroke-width="1" fill="none" fill-rule="evenodd">
        <g id="Programa-ValBio" transform="translate(-695.000000, -1596.000000)" fill="#00587F">
            <g id="Group-2" transform="translate(580.000000, 1595.000000)">
                <g id="Page-1" transform="translate(115.000000, 0.000000)">
                    <g id="Group-3" transform="translate(0.000000, 0.021900)">
                        <path d="M49.0932,37.6881 C49.0422,38.0701 48.9712,38.4481 48.8762,38.8191 C48.8722,38.8361 48.8682,38.8531 48.8642,38.8711 C48.2222,41.3121 46.6422,43.4561 44.4172,44.7711 L30.5142,52.9861 C28.6592,54.0811 26.5152,54.5061 24.4352,54.2601 C23.1852,54.1111 21.9592,53.7191 20.8322,53.0821 L6.7642,45.1501 C3.7572,43.4531 1.8662,40.2561 1.8322,36.8031 L1.6682,20.6521 C1.6642,20.2661 1.6922,19.8841 1.7342,19.5061 C1.7412,19.4341 1.7482,19.3611 1.7572,19.2901 C1.8082,18.9081 1.8792,18.5311 1.9742,18.1611 C1.9782,18.1431 1.9822,18.1251 1.9862,18.1071 C2.6282,15.6651 4.2082,13.5221 6.4332,12.2071 L20.3362,3.9921 C22.1912,2.8961 24.3352,2.4711 26.4152,2.7181 C27.6642,2.8671 28.8912,3.2591 30.0182,3.8961 L44.0862,11.8281 C47.0932,13.5251 48.9842,16.7221 49.0182,20.1751 L49.1822,36.3261 C49.1862,36.7121 49.1582,37.0941 49.1162,37.4721 C49.1092,37.5441 49.1022,37.6171 49.0932,37.6881 M50.7442,37.9241 C50.7572,37.8261 50.7652,37.7271 50.7762,37.6281 C50.8002,37.3991 50.8392,37.1731 50.8502,36.9411 C50.8532,36.8811 50.8332,36.8281 50.8242,36.7711 C50.8292,36.6161 50.8522,36.4641 50.8502,36.3081 L50.6902,20.2061 C50.6912,20.1891 50.6992,20.1751 50.6992,20.1581 C50.6602,16.1111 48.4422,12.3611 44.9192,10.3731 L30.8522,2.4391 C30.0362,1.9801 29.1742,1.6411 28.2922,1.3991 C28.2332,1.3821 28.1772,1.3571 28.1182,1.3421 C27.8342,1.2691 27.5452,1.2271 27.2572,1.1761 C27.0612,1.1411 26.8682,1.0921 26.6702,1.0671 C26.4392,1.0391 26.2072,1.0381 25.9762,1.0231 C25.7362,1.0081 25.4972,0.9781 25.2572,0.9781 C25.2402,0.9781 25.2222,0.9811 25.2052,0.9821 C24.9452,0.9831 24.6872,1.0141 24.4282,1.0331 C24.1892,1.0501 23.9512,1.0541 23.7132,1.0861 C23.5072,1.1141 23.3042,1.1691 23.1002,1.2091 C22.8132,1.2641 22.5262,1.3091 22.2442,1.3861 C22.1612,1.4091 22.0812,1.4461 21.9982,1.4701 C21.1272,1.7311 20.2762,2.0821 19.4752,2.5541 L5.5722,10.7691 C2.9592,12.3131 1.1292,14.7971 0.3792,17.6601 C0.3672,17.7061 0.3582,17.7521 0.3462,17.7981 C0.2432,18.2101 0.1622,18.6281 0.1062,19.0541 C0.0932,19.1521 0.0852,19.2511 0.0742,19.3501 C0.0502,19.5791 0.0112,19.8051 0.0002,20.0371 C-0.0028,20.0971 0.0172,20.1501 0.0262,20.2071 C0.0212,20.3621 -0.0018,20.5141 0.0002,20.6701 L0.1602,36.7721 C0.1592,36.7891 0.1502,36.8031 0.1512,36.8201 C0.1902,40.8671 2.4082,44.6171 5.9312,46.6051 L19.9982,54.5391 C20.8152,54.9991 21.6782,55.3381 22.5622,55.5811 C22.6192,55.5961 22.6742,55.6211 22.7322,55.6361 C23.0162,55.7091 23.3062,55.7511 23.5942,55.8021 C23.7892,55.8371 23.9832,55.8861 24.1802,55.9111 C24.4102,55.9391 24.6432,55.9401 24.8742,55.9541 C25.1142,55.9701 25.3532,56.0001 25.5932,56.0001 C25.6102,56.0001 25.6282,55.9961 25.6452,55.9961 C25.9052,55.9951 26.1632,55.9641 26.4222,55.9451 C26.6602,55.9281 26.8992,55.9241 27.1372,55.8921 C27.3432,55.8641 27.5452,55.8091 27.7502,55.7691 C28.0372,55.7141 28.3242,55.6691 28.6062,55.5921 C28.6892,55.5691 28.7692,55.5321 28.8512,55.5081 C29.7232,55.2471 30.5742,54.8961 31.3752,54.4241 L45.2782,46.2091 C47.8912,44.6651 49.7212,42.1811 50.4712,39.3181 C50.4832,39.2721 50.4922,39.2261 50.5042,39.1801 C50.6062,38.7681 50.6882,38.3501 50.7442,37.9241" id="Fill-1"></path>
                    </g>
                    <path d="M31.6269,36.4808 L19.7339,36.4808 C19.7509,35.0378 20.0989,33.7778 20.7789,32.6988 C21.4599,31.6208 22.3879,30.6838 23.5659,29.8878 C24.1289,29.4738 24.7179,29.0708 25.3329,28.6808 C25.9459,28.2918 26.5099,27.8728 27.0239,27.4248 C27.5379,26.9768 27.9609,26.4918 28.2929,25.9688 C28.6249,25.4468 28.7989,24.8458 28.8149,24.1658 C28.8149,23.8508 28.7779,23.5148 28.7039,23.1578 C28.6289,22.8018 28.4829,22.4698 28.2679,22.1628 C28.0519,21.8558 27.7539,21.5988 27.3729,21.3918 C26.9909,21.1848 26.4929,21.0808 25.8799,21.0808 C25.3149,21.0808 24.8469,21.1918 24.4739,21.4168 C24.1009,21.6408 23.8019,21.9478 23.5779,22.3368 C23.3549,22.7268 23.1889,23.1868 23.0809,23.7178 C22.9729,24.2488 22.9109,24.8208 22.8939,25.4348 L20.0579,25.4348 C20.0579,24.4728 20.1859,23.5808 20.4429,22.7598 C20.7009,21.9388 21.0859,21.2298 21.6009,20.6328 C22.1139,20.0358 22.7409,19.5668 23.4789,19.2268 C24.2169,18.8868 25.0749,18.7168 26.0539,18.7168 C27.1149,18.7168 28.0019,18.8908 28.7159,19.2398 C29.4289,19.5878 30.0049,20.0268 30.4449,20.5578 C30.8839,21.0888 31.1949,21.6658 31.3779,22.2868 C31.5599,22.9088 31.6519,23.5018 31.6519,24.0658 C31.6519,24.7628 31.5439,25.3938 31.3279,25.9568 C31.1119,26.5208 30.8219,27.0388 30.4579,27.5118 C30.0919,27.9848 29.6779,28.4198 29.2129,28.8178 C28.7489,29.2158 28.2679,29.5888 27.7709,29.9378 C27.2729,30.2858 26.7749,30.6178 26.2779,30.9328 C25.7799,31.2478 25.3199,31.5638 24.8969,31.8778 C24.4739,32.1928 24.1049,32.5218 23.7899,32.8608 C23.4749,33.2008 23.2589,33.5618 23.1429,33.9428 L31.6269,33.9428 L31.6269,36.4808 Z" id="Fill-4"></path>
                </g>
            </g>
        </g>
    </g>
</svg>