<?xml version="1.0" encoding="UTF-8" standalone="no"?>
<svg width="63px" height="55px" viewBox="0 0 63 55" version="1.1" xmlns="http://www.w3.org/2000/svg" xmlns:xlink="http://www.w3.org/1999/xlink">
    <!-- Generator: sketchtool 42 (36781) - http://www.bohemiancoding.com/sketch -->
    <title>A0E91A01-F04D-4F2F-84F7-07CC07E0C85D</title>
    <desc>Created with sketchtool.</desc>
    <defs>
        <polygon id="path-1" points="0.00122819048 54.1660819 61.6459505 54.1660819 61.6459505 0.0884865497 0.00122819048 0.0884865497 0.00122819048 54.1660819"></polygon>
        <polygon id="path-3" points="0 54.6686082 61.6459505 54.6686082 61.6459505 0.591012865 0 0.591012865"></polygon>
    </defs>
    <g id="Page-1" stroke="none" stroke-width="1" fill="none" fill-rule="evenodd">
        <g id="Home_102" transform="translate(-687.000000, -2720.000000)">
            <g id="involucrate" transform="translate(230.000000, 2368.000000)">
                <g id="asiste" transform="translate(348.500000, 249.000000)">
                    <g id="Page-1" transform="translate(109.000000, 103.000000)">
                        <g id="Group-3" transform="translate(0.000000, 0.502526)">
                            <mask id="mask-2" fill="white">
                                <use xlink:href="#path-1"></use>
                            </mask>
                            <g id="Clip-2"></g>
                            <path d="M57.793731,50.3033525 L3.85160533,50.3033525 L3.85160533,7.81271392 L9.633312,7.81271392 L9.633312,9.74284725 C9.633312,10.8110391 10.4961158,11.6760589 11.5585006,11.6760589 L17.3371368,11.6760589 C18.402592,11.6760589 19.2653958,10.8110391 19.2653958,9.74284725 L19.2653958,7.81271392 L42.383011,7.81271392 L42.383011,9.74284725 C42.383011,10.8110391 43.2458149,11.6760589 44.3081996,11.6760589 L50.0868358,11.6760589 C51.152291,11.6760589 52.0150949,10.8110391 52.0150949,9.74284725 L52.0150949,7.81271392 L57.793731,7.81271392 L57.793731,50.3033525 Z M13.4836891,7.81271392 L15.4119482,7.81271392 L15.4119482,3.94936889 L13.4836891,3.94936889 L13.4836891,7.81271392 Z M46.2364587,7.81271392 L48.1616472,7.81271392 L48.1616472,3.94936889 L46.2364587,3.94936889 L46.2364587,7.81271392 Z M59.7189196,3.94936889 L52.0150949,3.94936889 L52.0150949,2.01923556 C52.0150949,0.951043743 51.152291,0.0860238596 50.0868358,0.0860238596 L44.3081996,0.0860238596 C43.2458149,0.0860238596 42.383011,0.951043743 42.383011,2.01923556 L42.383011,3.94936889 L19.2653958,3.94936889 L19.2653958,2.01923556 C19.2653958,0.951043743 18.402592,0.0860238596 17.3371368,0.0860238596 L11.5585006,0.0860238596 C10.4961158,0.0860238596 9.633312,0.951043743 9.633312,2.01923556 L9.633312,3.94936889 L1.92641676,3.94936889 C0.860961524,3.94936889 0.00122819048,4.81438877 0.00122819048,5.88258058 L0.00122819048,52.2334858 C0.00122819048,53.3016777 0.860961524,54.1666975 1.92641676,54.1666975 L59.7189196,54.1666975 C60.7843749,54.1666975 61.6471787,53.3016777 61.6471787,52.2334858 L61.6471787,5.88258058 C61.6471787,4.81438877 60.7843749,3.94936889 59.7189196,3.94936889 L59.7189196,3.94936889 Z" id="Fill-1" fill="#B6BE34" mask="url(#mask-2)"></path>
                        </g>
                        <mask id="mask-4" fill="white">
                            <use xlink:href="#path-3"></use>
                        </mask>
                        <g id="Clip-5"></g>
                        <path d="M13.4855314,27.6282713 L17.338979,27.6282713 L17.338979,23.7649263 L13.4855314,23.7649263 L13.4855314,27.6282713 Z M19.2641676,19.9046596 L11.5572724,19.9046596 C10.4948876,19.9046596 9.63208381,20.7696795 9.63208381,21.834793 L9.63208381,29.561483 C9.63208381,30.6265965 10.4948876,31.4916164 11.5572724,31.4916164 L19.2641676,31.4916164 C20.3296229,31.4916164 21.1924267,30.6265965 21.1924267,29.561483 L21.1924267,21.834793 C21.1924267,20.7696795 20.3296229,19.9046596 19.2641676,19.9046596 L19.2641676,19.9046596 Z" id="Fill-4" fill="#B6BE34" mask="url(#mask-4)"></path>
                        <path d="M28.8962514,27.6282713 L32.749699,27.6282713 L32.749699,23.7649263 L28.8962514,23.7649263 L28.8962514,27.6282713 Z M34.6748876,19.9046596 L26.9710629,19.9046596 C25.9056076,19.9046596 25.0428038,20.7696795 25.0428038,21.834793 L25.0428038,29.561483 C25.0428038,30.6265965 25.9056076,31.4916164 26.9710629,31.4916164 L34.6748876,31.4916164 C35.7403429,31.4916164 36.6031467,30.6265965 36.6031467,29.561483 L36.6031467,21.834793 C36.6031467,20.7696795 35.7403429,19.9046596 34.6748876,19.9046596 L34.6748876,19.9046596 Z" id="Fill-6" fill="#B6BE34" mask="url(#mask-4)"></path>
                        <path d="M44.3069714,27.6282713 L48.160419,27.6282713 L48.160419,23.7649263 L44.3069714,23.7649263 L44.3069714,27.6282713 Z M50.0886781,19.9046596 L42.3817829,19.9046596 C41.3193981,19.9046596 40.4565943,20.7696795 40.4565943,21.834793 L40.4565943,29.561483 C40.4565943,30.6265965 41.3193981,31.4916164 42.3817829,31.4916164 L50.0886781,31.4916164 C51.1510629,31.4916164 52.0138667,30.6265965 52.0138667,29.561483 L52.0138667,21.834793 C52.0138667,20.7696795 51.1510629,19.9046596 50.0886781,19.9046596 L50.0886781,19.9046596 Z" id="Fill-7" fill="#B6BE34" mask="url(#mask-4)"></path>
                        <path d="M13.4855314,43.0816515 L17.338979,43.0816515 L17.338979,39.2183064 L13.4855314,39.2183064 L13.4855314,43.0816515 Z M19.2641676,35.3549614 L11.5572724,35.3549614 C10.4948876,35.3549614 9.63208381,36.2199813 9.63208381,37.2850947 L9.63208381,45.0117848 C9.63208381,46.0799766 10.4948876,46.9419181 11.5572724,46.9419181 L19.2641676,46.9419181 C20.3296229,46.9419181 21.1924267,46.0799766 21.1924267,45.0117848 L21.1924267,37.2850947 C21.1924267,36.2199813 20.3296229,35.3549614 19.2641676,35.3549614 L19.2641676,35.3549614 Z" id="Fill-8" fill="#B6BE34" mask="url(#mask-4)"></path>
                        <path d="M28.8962514,43.0816515 L32.749699,43.0816515 L32.749699,39.2183064 L28.8962514,39.2183064 L28.8962514,43.0816515 Z M34.6748876,35.3549614 L26.9710629,35.3549614 C25.9056076,35.3549614 25.0428038,36.2199813 25.0428038,37.2850947 L25.0428038,45.0117848 C25.0428038,46.0799766 25.9056076,46.9419181 26.9710629,46.9419181 L34.6748876,46.9419181 C35.7403429,46.9419181 36.6031467,46.0799766 36.6031467,45.0117848 L36.6031467,37.2850947 C36.6031467,36.2199813 35.7403429,35.3549614 34.6748876,35.3549614 L34.6748876,35.3549614 Z" id="Fill-9" fill="#B6BE34" mask="url(#mask-4)"></path>
                        <path d="M44.3069714,43.0816515 L48.160419,43.0816515 L48.160419,39.2183064 L44.3069714,39.2183064 L44.3069714,43.0816515 Z M50.0886781,35.3549614 L42.3817829,35.3549614 C41.3193981,35.3549614 40.4565943,36.2199813 40.4565943,37.2850947 L40.4565943,45.0117848 C40.4565943,46.0799766 41.3193981,46.9419181 42.3817829,46.9419181 L50.0886781,46.9419181 C51.1510629,46.9419181 52.0138667,46.0799766 52.0138667,45.0117848 L52.0138667,37.2850947 C52.0138667,36.2199813 51.1510629,35.3549614 50.0886781,35.3549614 L50.0886781,35.3549614 Z" id="Fill-10" fill="#B6BE34" mask="url(#mask-4)"></path>
                    </g>
                </g>
            </g>
        </g>
    </g>
</svg>