<?xml version="1.0" encoding="utf-8"?>
<!-- Generator: Adobe Illustrator 21.0.2, SVG Export Plug-In . SVG Version: 6.00 Build 0)  -->
<svg version="1.1" id="Capa_1" xmlns="http://www.w3.org/2000/svg" xmlns:xlink="http://www.w3.org/1999/xlink" x="0px" y="0px"
	 viewBox="0 0 50 50" style="enable-background:new 0 0 50 50;" xml:space="preserve">
<style type="text/css">
	.st0{fill:#404346;}
	.st1{fill:none;stroke:#404346;stroke-width:2;stroke-linecap:round;stroke-miterlimit:10;}
	.st2{fill:#FFFFFF;stroke:#404346;stroke-width:2;stroke-linecap:round;stroke-miterlimit:10;}
</style>
<g>
	<path class="st0" d="M47.2,27.2c-0.3-3.2-2-5.7-4.8-7.3c-2.5-1.4-4.6-3.1-6.8-4.8c-3.5-2.8-6.6-5.3-10-5.3c-0.8,0-1.6,0.1-2.4,0.4
		c-1.8-2.2-4.4-3.1-8.1-2.7C8.3,8.3,2.7,19.5,2.7,28.2c0,8.3,5.5,14.3,13,14.3c3.3,0,6.7-1.2,9.4-3.3c2.6,2.2,5.7,3.3,8.8,3.3
		c3,0,5.8-1,8.1-3C45.5,36.5,47.6,31.5,47.2,27.2z M11.5,34.7l0.5,0.1l0.4-2.3l-0.5-0.1c-2.4-0.4-5,0.3-6.1,0.7
		c-0.5-1.5-0.8-3.1-0.8-4.8c0-0.5,0-1.1,0.1-1.7c1-0.2,2.9-0.6,4.6-0.2l0.5,0.1l0.5-2.3L10.2,24c-1.7-0.3-3.4-0.2-4.7,0.1
		c0.2-1.2,0.5-2.4,0.9-3.6c0.8-0.2,3.1-0.8,5.1-0.4l0.5,0.1l0.5-2.3L12,17.8c-1.6-0.3-3.2-0.2-4.5,0c2.1-4.6,5.1-7.6,8-7.9
		c0.5,0,0.9-0.1,1.3-0.1c2.2,0,3.7,0.6,4.7,2l0.3,0.5c1.2,1.9,1.8,4.8,2.4,7.9c0.2,1,0.4,1.9,0.6,2.9c-2.4-0.3-4.5,0.1-4.6,0.1
		l-0.5,0.1l0.5,2.3l0.5-0.1c0,0,2.6-0.5,4.8,0.1c0.3,1.1,0.6,2.1,1,3c0.1,0.2,0.2,0.4,0.2,0.7l0,0.2c0,0.2,0.1,0.3,0.1,0.5l0,0.1
		c0,0.1,0,0.2,0,0.3c-1.6-0.2-3.2-0.1-3.2-0.1l-0.5,0.1l0.2,2.3l0.5,0c0,0,1.5-0.1,2.8,0.1c0,0.1,0,0.2-0.1,0.3
		c-0.5,1.6-1.6,2.9-2.4,3.6l-0.2,0.2c-2.2,2-5.5,3.3-8.4,3.3c-3.7,0-6.9-1.8-8.8-5C7.9,34.9,9.8,34.4,11.5,34.7z M35,39.3l0.5-0.2
		l-0.7-2.2L34.3,37c-1.6,0.5-3.2,2-3.8,2.5c-1.3-0.4-2.5-1.1-3.7-2c0,0,0,0,0.1-0.1l0.1-0.1c0.1-0.1,0.2-0.3,0.3-0.4l0.2-0.2
		c0-0.1,0.1-0.1,0.1-0.2c1.5-2.1,2-4.5,1.5-6.9c0.8-0.7,1.9-1.6,2.7-1.9l0.5-0.2l-0.7-2.2l-0.5,0.2c-1,0.3-2,1-2.7,1.6
		c-0.2-0.7-0.5-1.4-0.7-2.2l0-0.1c-0.4-1.7-0.8-3.4-1.1-5.1c-0.5-2.7-1-5.2-2-7.4c1.8-0.4,3.5,0.1,6.2,2c-1.4,0.9-2.5,2-2.6,2.2
		l-0.4,0.4l1.7,1.7l0.4-0.4c0,0,1.5-1.5,3-2.3c0.4,0.3,0.9,0.7,1.3,1.1l0.1,0.1c2,1.6,4,3.2,6.4,4.6c-1.3,0.9-2.3,2-2.4,2l-0.4,0.4
		l1.7,1.7l0.4-0.4c0,0,1.4-1.4,2.9-2.2c1.6,1.4,2.1,3.2,2.2,4.5c0.1,0.8,0,1.7-0.1,2.6c-1.7,1.1-3.5,2.8-3.6,2.8l-0.4,0.3l1.6,1.7
		l0.4-0.3c0,0,0.2-0.2,0.5-0.5c-0.8,1.4-1.7,2.6-2.9,3.6c-1.9,1.6-4.2,2.5-6.6,2.5c-0.2,0-0.3,0-0.5,0C34,39.7,34.5,39.4,35,39.3z
		 M27.3,32.6L27.3,32.6L27.3,32.6C27.3,32.6,27.3,32.6,27.3,32.6L27.3,32.6z"/>
	<path class="st0" d="M18.4,15.7l0.5,0.1l0.5-2.3l-0.5-0.1c-3-0.7-6.4-0.3-6.4-0.3L12,13.1l0.2,2.3l0.5,0
		C12.9,15.4,15.9,15.1,18.4,15.7z"/>
	<path class="st0" d="M18.4,30.4l0.5,0.1l0.5-2.3l-0.5-0.1c-2.9-0.7-6.4-0.3-6.4-0.3L12,27.8l0.2,2.3l0.5,0
		C12.9,30.1,15.9,29.8,18.4,30.4z"/>
	<path class="st0" d="M13.4,35.7l-0.5,0.1l0.2,2.3l0.5,0c0.3,0,3.2-0.3,5.6,0.3l0.5,0.1l0.5-2.3L19.8,36
		C16.9,35.3,13.5,35.7,13.4,35.7z"/>
	<path class="st0" d="M34.5,21l-0.7-2.2L33.2,19c-2,0.7-4,2.7-4,2.7l-0.3,0.4l1.7,1.6l0.3-0.4c0,0,1.6-1.7,3-2.1L34.5,21z"/>
	<path class="st0" d="M35.9,33.3c0,0,1.8-1.7,3.1-2.4l0.4-0.2l-1.1-2.1L38,28.8c-1.7,0.9-3.6,2.8-3.7,2.8L34,31.9l1.6,1.7L35.9,33.3
		z"/>
</g>
</svg>
