<?xml version="1.0" encoding="utf-8"?>
<!-- Generator: Adobe Illustrator 21.0.2, SVG Export Plug-In . SVG Version: 6.00 Build 0)  -->
<svg version="1.1" id="Capa_1" xmlns="http://www.w3.org/2000/svg" xmlns:xlink="http://www.w3.org/1999/xlink" x="0px" y="0px"
	 viewBox="0 0 50 50" style="enable-background:new 0 0 50 50;" xml:space="preserve">
<style type="text/css">
	.st0{fill:#404346;}
	.st1{fill:none;stroke:#404346;stroke-width:2;stroke-linecap:round;stroke-miterlimit:10;}
	.st2{fill:#FFFFFF;stroke:#404346;stroke-width:2;stroke-linecap:round;stroke-miterlimit:10;}
</style>
<path class="st0" d="M7.3,28.9c0.3,0,0.7-0.1,1-0.3l8.7-6.1l2.6,3.1l-5.8,4.6c-0.7,0.6-0.9,1.7-0.3,2.4c0.3,0.4,0.8,0.7,1.4,0.7
	c0.4,0,0.8-0.1,1.1-0.4L32,20.2l9.5,8.7c0.7,0.6,1.8,0.6,2.4-0.1c0.6-0.7,0.6-1.8-0.1-2.4l-10.6-9.7c-0.6-0.6-1.6-0.6-2.2-0.1
	l-8.6,6.8l-3.7-4.4c-0.6-0.7-1.6-0.8-2.3-0.3l-10,7c-0.8,0.5-1,1.6-0.4,2.4C6.3,28.7,6.8,28.9,7.3,28.9z"/>
</svg>
