<?xml version="1.0" encoding="UTF-8"?>
<svg width="63px" height="36px" viewBox="0 0 63 36" version="1.1" xmlns="http://www.w3.org/2000/svg" xmlns:xlink="http://www.w3.org/1999/xlink">
    <!-- Generator: Sketch 42 (36781) - http://www.bohemiancoding.com/sketch -->
    <title>Group</title>
    <desc>Created with Sketch.</desc>
    <defs></defs>
    <g id="Page-1" stroke="none" stroke-width="1" fill="none" fill-rule="evenodd">
        <g id="Biodiversidad-en-números" transform="translate(-1305.000000, -1878.000000)" stroke-width="0.5" stroke="#3C4145">
            <g id="noun_887677_cc" transform="translate(1306.000000, 1879.000000)">
                <g id="Group">
                    <g>
                        <path d="M32.2703556,27.88816 C31.6285,27.36456 30.8924333,26.73624 30.1706,26.09976 C30.6782556,25.93656 31.1621889,25.77064 31.6264667,25.60268 C31.6339222,26.4996 31.9179111,27.24488 32.2703556,27.88816 Z" id="Shape"></path>
                        <path d="M24.7253333,27.47472 C24.8371667,27.45364 24.9429,27.43052 25.0527,27.40876 C24.5491111,28.51172 23.9906222,30.24096 24.0414556,32.43056 C24.0428111,32.4904 24.0407778,32.53732 24.0373889,32.57404 C23.2037222,32.4122 20.7176333,30.26612 18.1020889,27.48832 C19.2563444,27.6624 20.4065333,27.76032 21.5316444,27.76032 C22.6262556,27.76032 23.6971444,27.67056 24.7253333,27.47472 Z" id="Shape"></path>
                        <path d="M40.931,21.77564 C40.9174444,22.45088 40.7303778,23.46272 39.8397778,24.13388 C39.0142444,24.75404 37.2791333,24.293 35.9893222,23.783 C36.1716444,23.69936 36.3519333,23.6164 36.5281556,23.5348 C38.1222889,22.79972 39.4914,22.17548 40.931,21.77564 Z" id="Shape"></path>
                        <ellipse id="Oval" cx="37.5956556" cy="17.39372" rx="0.912966667" ry="0.91596"></ellipse>
                        <ellipse id="Oval" cx="30.8233" cy="17.97784" rx="1.4213" ry="1.42596"></ellipse>
                        <path d="M26.5390667,10.02864 C26.7979778,10.59168 27.1273778,11.17104 27.5096444,11.75856 C25.9019556,11.6994 24.3701778,11.70552 22.9881889,11.8048 L20.9202889,11.94964 C20.3041889,11.99248 19.6982556,12.03532 19.0991,12.07884 C22.5747444,6.8578 26.6698778,1.66328 27.8749667,1.43616 C27.8810667,1.45316 27.8864889,1.47356 27.8932667,1.49872 C28.2870556,3.13616 27.6770556,4.42272 27.0873889,5.6678 C26.4502778,7.01216 25.7914778,8.40208 26.5390667,10.02864 Z" id="Shape"></path>
                        <path d="M50.4849556,18.7374 C50.9810889,17.77996 50.8299444,16.62192 50.0233889,15.19732 C49.9305333,15.03344 49.7726111,14.91648 49.5896111,14.87636 C49.5340333,14.86412 49.3666222,14.8274 49.1205889,14.77504 C50.1426778,14.65468 51.0529333,14.4636 51.6215889,14.15964 C53.7396444,13.0254 58.0570889,11.40156 59.4573778,11.39204 C59.0317333,11.81908 58.0862333,12.48548 57.4145556,12.96012 C55.3771556,14.39764 53.2706222,15.88344 53.2706222,17.4794 C53.2706222,19.0978 54.7475,20.58292 55.9342889,21.77564 C56.2311556,22.07416 56.6208778,22.46584 56.8919889,22.7868 C56.1294889,22.66372 54.8512,22.33392 53.6861,22.03404 C51.9530222,21.58728 49.8336111,21.04396 47.5989778,20.62984 C49.0141778,20.2232 50.0179667,19.6384 50.4849556,18.7374 Z" id="Shape"></path>
                        <ellipse id="Oval" cx="9.64816667" cy="17.39372" rx="0.987522222" ry="0.99076"></ellipse>
                        <path d="M1.46535556,16.62396 C1.31082222,16.82728 1.31421111,16.97552 1.33725556,17.09384 C1.74188889,19.1216 8.66606667,24.15292 16.3290222,25.86856 C16.4286556,25.86924 16.5269333,25.88964 16.6184333,25.9352 C19.2373667,26.49144 21.9335667,26.65328 24.4786222,26.16776 C29.8649222,25.14232 33.2538111,23.58104 35.9757667,22.32644 C37.8403333,21.46692 39.5083444,20.70532 41.3763,20.298 C41.3851111,20.29596 41.3918889,20.28984 41.4007,20.2878 C41.4095111,20.28576 41.4183222,20.28916 41.4271333,20.2878 C41.9198778,20.1824 42.4234667,20.09536 42.9521333,20.04504 C45.7425444,19.7778 48.6793556,19.34192 49.3103667,18.12472 C49.5550444,17.6528 49.4547333,16.97688 49.0107889,16.1126 C47.1719778,15.72092 37.1252778,13.64352 28.7845444,13.15596 C28.7709889,13.1546 28.7574333,13.15528 28.7438778,13.15324 C26.7064778,13.0356 24.7707444,13.01112 23.0844333,13.13216 L21.0138222,13.27768 C13.4376222,13.80332 3.0622,14.5248 1.46535556,16.62396 Z M35.3562778,17.39372 C35.3562778,16.15544 36.3607444,15.14768 37.5956556,15.14768 C38.8298889,15.14768 39.8343556,16.15476 39.8343556,17.39372 C39.8343556,18.63268 38.8298889,19.64044 37.5956556,19.64044 C36.3607444,19.64044 35.3562778,18.63268 35.3562778,17.39372 Z M28.0762667,17.97784 C28.0762667,16.45804 29.3084667,15.2218 30.8233,15.2218 C32.3381333,15.2218 33.5703333,16.45872 33.5703333,17.97784 C33.5703333,19.49764 32.3381333,20.73388 30.8233,20.73388 C29.3084667,20.7332 28.0762667,19.49764 28.0762667,17.97784 Z M19.1553556,18.48716 C19.1553556,16.58112 20.7013667,15.03072 22.6011778,15.03072 C24.5009889,15.03072 26.0463222,16.58112 26.0463222,18.48716 C26.0463222,20.3932 24.5009889,21.9436 22.6011778,21.9436 C20.7013667,21.9436 19.1553556,20.3932 19.1553556,18.48716 Z M7.33491111,17.39372 C7.33491111,16.11396 8.37258889,15.07288 9.64884444,15.07288 C10.9251,15.07288 11.9627778,16.11396 11.9627778,17.39372 C11.9627778,18.67416 10.9251,19.71524 9.64884444,19.71524 C8.37258889,19.71524 7.33491111,18.67416 7.33491111,17.39372 Z" id="Shape"></path>
                        <ellipse id="Oval" cx="22.6011778" cy="18.48716" rx="2.11941111" ry="2.12636"></ellipse>
                        <path d="M0.0372777778,17.35496 C0.618811111,20.27216 8.07368889,25.25248 15.9176111,27.06944 C18.2945778,29.7398 22.3043111,33.89732 24.2278444,33.89732 C24.3667889,33.89732 24.4948889,33.87556 24.6107889,33.83 C24.9035889,33.7144 25.3895556,33.37508 25.3678667,32.39996 C25.3021222,29.5834 26.3764,27.63384 26.7478222,27.04632 C27.4249222,26.88788 28.0654222,26.7206 28.6774556,26.54856 C32.3462667,29.86152 33.4984889,30.53472 34.0251222,30.53472 C34.1993111,30.53472 34.3064,30.46128 34.4148444,30.38784 C34.5300667,30.30828 34.8906444,30.00364 34.6615556,29.39096 C34.4873667,28.9238 34.2142222,28.50084 33.9254889,28.0534 C33.3473444,27.15716 32.8085111,26.30172 32.9962556,25.0818 C33.4720556,24.8914 33.9254889,24.70168 34.3599444,24.51332 C35.1102444,24.89208 37.0093778,25.75704 38.7072111,25.75704 C39.4202333,25.75704 40.0966556,25.60472 40.6361667,25.19876 C42.1171111,24.08424 42.2858778,22.40464 42.2506333,21.47848 C42.5041222,21.43632 42.7630333,21.40232 43.0273667,21.3758 C46.6724556,21.60156 50.5330778,22.59572 53.3560222,23.32264 C55.4889889,23.87276 56.6662889,24.1638 57.3888,24.1638 C57.7554778,24.1638 58.0042222,24.08832 58.2021333,23.93532 C58.4122444,23.77144 58.5328889,23.52392 58.5328889,23.25532 C58.5328889,22.50528 57.8368111,21.80556 56.8730111,20.83656 C55.8583778,19.81656 54.5963556,18.54836 54.5963556,17.48008 C54.5963556,16.57568 56.7510111,15.0552 58.1770556,14.0488 C60.1419333,12.66296 61.4405556,11.74632 60.8617333,10.70252 C59.6776556,8.56324 51.0834333,12.9404 50.9973556,12.98596 C49.5902889,13.7394 44.7163889,13.6646 42.8477556,13.56804 C38.9173222,12.88192 33.8407667,12.12916 29.1830778,11.84152 C28.5798556,11.02688 28.0918556,10.22992 27.7441556,9.47172 C27.2798778,8.46192 27.6479111,7.5854 28.2857,6.23832 C28.9417889,4.85248 29.6873444,3.281 29.1824,1.1866 C28.9872,0.37264 28.4653111,0.1666 28.1711556,0.11628 C25.8728111,-0.2822 20.0222333,8.2212 17.4277,12.20328 C8.63353333,12.87308 2.02181111,13.702 0.412088889,15.81748 C0.0582888889,16.28056 -0.0711666667,16.81232 0.0372777778,17.35496 Z M27.0873889,5.6678 C26.4502778,7.01216 25.7914778,8.40208 26.5390667,10.02932 C26.7979778,10.59236 27.1273778,11.17172 27.5096444,11.75924 C25.9019556,11.70008 24.3701778,11.7062 22.9881889,11.80548 L20.9202889,11.95032 C20.3041889,11.99316 19.6982556,12.036 19.0991,12.07952 C22.5747444,6.85848 26.6698778,1.66396 27.8749667,1.43684 C27.8810667,1.45384 27.8864889,1.47424 27.8932667,1.4994 C28.2870556,3.13616 27.6770556,4.42272 27.0873889,5.6678 Z M47.5989778,20.62984 C49.0148556,20.2232 50.0179667,19.63908 50.4849556,18.73808 C50.9810889,17.78064 50.8299444,16.6226 50.0233889,15.198 C49.9305333,15.03412 49.7726111,14.91716 49.5896111,14.87704 C49.5340333,14.8648 49.3666222,14.82808 49.1205889,14.77572 C50.1426778,14.65536 51.0529333,14.46428 51.6215889,14.16032 C53.7396444,13.02608 58.0570889,11.40224 59.4573778,11.39272 C59.0317333,11.81976 58.0862333,12.48616 57.4145556,12.9608 C55.3771556,14.39832 53.2706222,15.88412 53.2706222,17.48008 C53.2706222,19.09848 54.7475,20.5836 55.9342889,21.77632 C56.2311556,22.07484 56.6208778,22.46652 56.8919889,22.78748 C56.1294889,22.6644 54.8512,22.3346 53.6861,22.03472 C51.9530222,21.5866 49.8329333,21.04396 47.5989778,20.62984 Z M35.9893222,23.783 C36.1716444,23.69936 36.3519333,23.6164 36.5281556,23.5348 C38.1222889,22.8004 39.4914,22.17548 40.931,21.77564 C40.9174444,22.45088 40.7303778,23.46272 39.8397778,24.13388 C39.0142444,24.75336 37.2791333,24.29232 35.9893222,23.783 Z M30.1706,26.09976 C30.6782556,25.93656 31.1621889,25.77064 31.6264667,25.60268 C31.6339222,26.50028 31.9179111,27.24556 32.2696778,27.88816 C31.6285,27.36456 30.8924333,26.73556 30.1706,26.09976 Z M18.1020889,27.48832 C19.2563444,27.6624 20.4065333,27.76032 21.5316444,27.76032 C22.6262556,27.76032 23.6971444,27.67056 24.7253333,27.47472 C24.8371667,27.45364 24.9429,27.43052 25.0527,27.40876 C24.5491111,28.51172 23.9906222,30.24096 24.0414556,32.43056 C24.0428111,32.4904 24.0407778,32.53732 24.0373889,32.57404 C23.2037222,32.4122 20.7176333,30.26612 18.1020889,27.48832 Z M1.46535556,16.62396 C3.0622,14.5248 13.4376222,13.80332 21.0124667,13.27632 L23.0830778,13.1308 C24.7693889,13.01044 26.7058,13.03424 28.7425222,13.15188 C28.7560778,13.15392 28.7696333,13.15324 28.7831889,13.1546 C37.1246,13.64216 47.1706222,15.71956 49.0094333,16.11124 C49.4527,16.97552 49.5536889,17.65144 49.3090111,18.12336 C48.678,19.34056 45.7405111,19.77712 42.9507778,20.04368 C42.4221111,20.094 41.9185222,20.18104 41.4257778,20.28644 C41.4169667,20.2878 41.4088333,20.2844 41.3993444,20.28644 C41.3905333,20.28848 41.3837556,20.2946 41.3749444,20.29664 C39.5076667,20.70396 37.8389778,21.46556 35.9744111,22.32508 C33.2524556,23.57968 29.8642444,25.14096 24.4772667,26.1664 C21.9322111,26.65192 19.2360111,26.49008 16.6170778,25.93384 C16.5262556,25.88828 16.4279778,25.86856 16.3276667,25.8672 C8.66538889,24.15292 1.74121111,19.1216 1.33725556,17.09384 C1.31353333,16.97552 1.31014444,16.82728 1.46535556,16.62396 Z" id="Shape" fill="#3C4145" fill-rule="nonzero"></path>
                        <path d="M7.33491111,17.39372 C7.33491111,18.67416 8.37258889,19.71524 9.64884444,19.71524 C10.9251,19.71524 11.9627778,18.67416 11.9627778,17.39372 C11.9627778,16.11396 10.9251,15.07288 9.64884444,15.07288 C8.37258889,15.07356 7.33491111,16.11464 7.33491111,17.39372 Z M8.66064444,17.39372 C8.66064444,16.84768 9.10391111,16.40296 9.64884444,16.40296 C10.1931,16.40296 10.6370444,16.847 10.6370444,17.39372 C10.6370444,17.94044 10.1937778,18.38516 9.64884444,18.38516 C9.10391111,18.38516 8.66064444,17.93976 8.66064444,17.39372 Z" id="Shape" fill="#3C4145" fill-rule="nonzero"></path>
                        <path d="M19.1553556,18.48716 C19.1553556,20.3932 20.7013667,21.9436 22.6011778,21.9436 C24.5009889,21.9436 26.0463222,20.3932 26.0463222,18.48716 C26.0463222,16.58112 24.5009889,15.03072 22.6011778,15.03072 C20.7013667,15.03072 19.1553556,16.58044 19.1553556,18.48716 Z M20.4810889,18.48716 C20.4810889,17.31484 21.4320111,16.3608 22.6011778,16.3608 C23.7696667,16.3608 24.7205889,17.31484 24.7205889,18.48716 C24.7205889,19.65948 23.7696667,20.61352 22.6011778,20.61352 C21.4320111,20.61352 20.4810889,19.65948 20.4810889,18.48716 Z" id="Shape" fill="#3C4145" fill-rule="nonzero"></path>
                        <path d="M28.0762667,17.97784 C28.0762667,19.49764 29.3084667,20.73388 30.8233,20.73388 C32.3381333,20.73388 33.5703333,19.49764 33.5703333,17.97784 C33.5703333,16.45804 32.3381333,15.2218 30.8233,15.2218 C29.3084667,15.22112 28.0762667,16.45804 28.0762667,17.97784 Z M29.4026778,17.97784 C29.4026778,17.19108 30.0397889,16.55188 30.8233,16.55188 C31.6068111,16.55188 32.2446,17.19176 32.2446,17.97784 C32.2446,18.76392 31.6068111,19.40312 30.8233,19.40312 C30.0397889,19.40312 29.4026778,18.76392 29.4026778,17.97784 Z" id="Shape" fill="#3C4145" fill-rule="nonzero"></path>
                        <path d="M35.3562778,17.39372 C35.3562778,18.632 36.3607444,19.64044 37.5956556,19.64044 C38.8298889,19.64044 39.8343556,18.63268 39.8343556,17.39372 C39.8343556,16.15476 38.8298889,15.14768 37.5956556,15.14768 C36.3607444,15.14768 35.3562778,16.15544 35.3562778,17.39372 Z M36.6820111,17.39372 C36.6820111,16.88916 37.0920667,16.47776 37.5956556,16.47776 C38.0992444,16.47776 38.5086222,16.88916 38.5086222,17.39372 C38.5086222,17.89896 38.0992444,18.31036 37.5956556,18.31036 C37.0920667,18.31036 36.6820111,17.89896 36.6820111,17.39372 Z" id="Shape" fill="#3C4145" fill-rule="nonzero"></path>
                    </g>
                </g>
            </g>
        </g>
    </g>
</svg>