<?xml version="1.0" encoding="utf-8"?>
<!-- Generator: Adobe Illustrator 21.0.2, SVG Export Plug-In . SVG Version: 6.00 Build 0)  -->
<svg version="1.1" id="Capa_1" xmlns="http://www.w3.org/2000/svg" xmlns:xlink="http://www.w3.org/1999/xlink" x="0px" y="0px"
	 viewBox="0 0 50 50" style="enable-background:new 0 0 50 50;" xml:space="preserve">
<style type="text/css">
	.st0{fill:#FFFFFF;stroke:#404346;stroke-width:2;stroke-linecap:round;stroke-miterlimit:10;}
	.st1{fill:#404346;}
	.st2{fill:none;stroke:#404346;stroke-width:2;stroke-linecap:round;stroke-miterlimit:10;}
</style>
<circle class="st0" cx="26" cy="24" r="22"/>
<path class="st0" d="M26,7c9.4,0,17,7.6,17,17s-7.6,17-17,17"/>
<g>
	<ellipse transform="matrix(0.7208 -0.6931 0.6931 0.7208 -3.1561 19.1037)" class="st0" cx="22.1" cy="13.5" rx="2.3" ry="2.3"/>
	<ellipse transform="matrix(0.5646 -0.8254 0.8254 0.5646 0.8686 20.1802)" class="st0" cx="19.6" cy="9.3" rx="2.3" ry="2.3"/>
	<ellipse transform="matrix(0.5646 -0.8254 0.8254 0.5646 2.8426 23.9219)" class="st0" cx="24.1" cy="9.3" rx="2.3" ry="2.3"/>
	<ellipse transform="matrix(0.5646 -0.8254 0.8254 0.5646 4.8166 27.6636)" class="st0" cx="28.6" cy="9.3" rx="2.3" ry="2.3"/>
	<ellipse transform="matrix(0.7208 -0.6931 0.6931 0.7208 -1.8796 22.462)" class="st0" cx="26.9" cy="13.6" rx="2.3" ry="2.3"/>
	<ellipse transform="matrix(0.1376 -0.9905 0.9905 0.1376 14.6266 42.9807)" class="st0" cx="32" cy="13.1" rx="2.3" ry="2.3"/>
	<ellipse transform="matrix(0.1376 -0.9905 0.9905 0.1376 18.9845 47.1374)" class="st0" cx="36.6" cy="12.7" rx="2.3" ry="2.3"/>
	<ellipse transform="matrix(0.1376 -0.9905 0.9905 0.1376 13.3288 49.1608)" class="st0" cx="34.9" cy="16.9" rx="2.3" ry="2.3"/>
	<ellipse transform="matrix(0.1376 -0.9905 0.9905 0.1376 18.5491 53.4372)" class="st0" cx="40" cy="16.1" rx="2.3" ry="2.3"/>
	<ellipse transform="matrix(0.1376 -0.9905 0.9905 0.1376 12.0309 55.3409)" class="st0" cx="37.8" cy="20.8" rx="2.3" ry="2.3"/>
	<ellipse transform="matrix(0.1376 -0.9905 0.9905 0.1376 16.0138 59.592)" class="st0" cx="42.2" cy="20.6" rx="2.3" ry="2.3"/>
	<ellipse transform="matrix(0.7208 -0.6931 0.6931 0.7208 -8.2951 14.0107)" class="st0" cx="13.2" cy="17.3" rx="2.3" ry="2.3"/>
	<ellipse transform="matrix(0.7208 -0.6931 0.6931 0.7208 -4.7272 15.7817)" class="st0" cx="17.2" cy="13.8" rx="2.3" ry="2.3"/>
	<ellipse transform="matrix(0.1376 -0.9905 0.9905 0.1376 -6.1822 60.2661)" class="st0" cx="31.5" cy="33.7" rx="2.3" ry="2.3"/>
	<ellipse transform="matrix(0.1376 -0.9905 0.9905 0.1376 -3.4663 66.6857)" class="st0" cx="36.6" cy="35.3" rx="2.3" ry="2.3"/>
	<ellipse transform="matrix(0.1376 -0.9905 0.9905 0.1376 1.8632 43.6591)" class="st0" cx="26" cy="20.8" rx="2.3" ry="2.3"/>
	<ellipse transform="matrix(0.7208 -0.6931 0.6931 0.7208 -6.9399 19.2609)" class="st0" cx="20.4" cy="18.2" rx="2.3" ry="2.3"/>
	<ellipse transform="matrix(0.7208 -0.6931 0.6931 0.7208 -5.6634 22.6191)" class="st0" cx="25.2" cy="18.3" rx="2.3" ry="2.3"/>
	<ellipse transform="matrix(0.1376 -0.9905 0.9905 0.1376 8.4328 45.4189)" class="st0" cx="30.3" cy="17.9" rx="2.3" ry="2.3"/>
	<ellipse transform="matrix(0.1376 -0.9905 0.9905 0.1376 7.1349 51.599)" class="st0" cx="33.2" cy="21.7" rx="2.3" ry="2.3"/>
	<ellipse transform="matrix(0.1376 -0.9905 0.9905 0.1376 5.8371 57.7791)" class="st0" cx="36.1" cy="25.5" rx="2.3" ry="2.3"/>
	<ellipse transform="matrix(0.1376 -0.9905 0.9905 0.1376 10.5462 62.3791)" class="st0" cx="41.1" cy="25.1" rx="2.3" ry="2.3"/>
	<ellipse transform="matrix(0.1376 -0.9905 0.9905 0.1376 3.9561 66.1437)" class="st0" cx="40" cy="30.8" rx="2.3" ry="2.3"/>
	
		<ellipse transform="matrix(0.9965 -8.359511e-02 8.359511e-02 0.9965 -1.9265 2.5103)" class="st0" cx="29" cy="24.3" rx="2.3" ry="2.3"/>
	
		<ellipse transform="matrix(0.9965 -8.359511e-02 8.359511e-02 0.9965 -1.8838 2.135)" class="st0" cx="24.6" cy="23.6" rx="2.3" ry="2.3"/>
	<ellipse transform="matrix(0.5508 -0.8346 0.8346 0.5508 -7.1209 26.5156)" class="st0" cx="21.1" cy="19.9" rx="2.3" ry="2.3"/>
	<ellipse transform="matrix(0.5508 -0.8346 0.8346 0.5508 -10.0422 23.0176)" class="st0" cx="16.4" cy="20.8" rx="2.3" ry="2.3"/>
	<ellipse transform="matrix(0.5508 -0.8346 0.8346 0.5508 -12.9634 19.5196)" class="st0" cx="11.7" cy="21.8" rx="2.3" ry="2.3"/>
	
		<ellipse transform="matrix(0.9965 -8.359511e-02 8.359511e-02 0.9965 -2.2858 2.6913)" class="st0" cx="31" cy="28.6" rx="2.3" ry="2.3"/>
	
		<ellipse transform="matrix(0.9965 -8.359511e-02 8.359511e-02 0.9965 -2.4047 3.0515)" class="st0" cx="35.2" cy="30.2" rx="2.3" ry="2.3"/>
	<ellipse transform="matrix(0.5508 -0.8346 0.8346 0.5508 -12.5621 33.9066)" class="st0" cx="25.2" cy="28.6" rx="2.3" ry="2.3"/>
	<ellipse transform="matrix(0.5508 -0.8346 0.8346 0.5508 -17.3683 32.1371)" class="st0" cx="21.2" cy="32.2" rx="2.3" ry="2.3"/>
	<ellipse transform="matrix(0.5508 -0.8346 0.8346 0.5508 -17.835 27.0816)" class="st0" cx="16.2" cy="30.1" rx="2.7" ry="2.7"/>
	
		<ellipse transform="matrix(0.9965 -8.359511e-02 8.359511e-02 0.9965 -2.5305 2.3122)" class="st0" cx="26.3" cy="31.4" rx="2.3" ry="2.3"/>
	
		<ellipse transform="matrix(0.9965 -8.359511e-02 8.359511e-02 0.9965 -2.2839 1.9943)" class="st0" cx="22.7" cy="28.3" rx="2.3" ry="2.3"/>
	<ellipse transform="matrix(0.5508 -0.8346 0.8346 0.5508 -11.8938 27.061)" class="st0" cx="19.2" cy="24.6" rx="2.3" ry="2.3"/>
	<ellipse transform="matrix(0.5508 -0.8346 0.8346 0.5508 -14.815 23.563)" class="st0" cx="14.5" cy="25.5" rx="2.3" ry="2.3"/>
	<ellipse transform="matrix(0.5508 -0.8346 0.8346 0.5508 -17.7363 20.065)" class="st0" cx="9.8" cy="26.5" rx="2.3" ry="2.3"/>
	<circle class="st0" cx="10.5" cy="30.8" r="2.3"/>
	<circle class="st0" cx="17.3" cy="35.3" r="2.3"/>
	<circle class="st0" cx="24.1" cy="36.5" r="2.3"/>
	<ellipse transform="matrix(0.1576 -0.9875 0.9875 0.1576 -13.0156 59.9412)" class="st0" cx="28.6" cy="37.6" rx="2.3" ry="2.3"/>
	<ellipse transform="matrix(0.1576 -0.9875 0.9875 0.1576 -10.3161 65.3724)" class="st0" cx="33.2" cy="38.7" rx="2.3" ry="2.3"/>
</g>
</svg>
