<?xml version="1.0" encoding="UTF-8"?>
<svg width="113px" height="123px" viewBox="0 0 113 123" version="1.1" xmlns="http://www.w3.org/2000/svg" xmlns:xlink="http://www.w3.org/1999/xlink">
    <!-- Generator: Sketch 42 (36781) - http://www.bohemiancoding.com/sketch -->
    <title>recursos-financieros</title>
    <desc>Created with Sketch.</desc>
    <defs>
        <path d="M98.5036483,72.0700493 C98.5288836,71.8788768 98.544413,71.6877044 98.5657659,71.496532 C98.6123542,71.0498128 98.6880601,70.6089458 98.7074718,70.1544236 C98.7152365,70.0373793 98.676413,69.9320394 98.6589424,69.822798 C98.6686483,69.5204335 98.7132954,69.2239212 98.709413,68.9196059 L98.3988248,37.5088079 C98.4007659,37.4756453 98.4162954,37.448335 98.4162954,37.4151724 C98.3405895,29.520532 94.0350601,22.2052611 87.1962954,18.3271921 L59.8878248,2.85002956 C58.3038248,1.95268966 56.6266483,1.28943842 54.9087071,0.817359606 C54.8000012,0.786147783 54.6932365,0.739330049 54.5825895,0.710068966 C54.027413,0.565714286 53.4625306,0.483783251 52.8995895,0.384295567 C52.5230012,0.317970443 52.1522365,0.222384236 51.7737071,0.173615764 C51.3194718,0.117044335 50.8652365,0.115093596 50.4110012,0.0877832512 C49.9490012,0.0585221675 49.4908836,0 49.0288836,0 C48.9958836,0 48.9628836,0.00585221675 48.9279424,0.00585221675 C48.4212954,0.00975369458 47.9185306,0.070226601 47.4118836,0.10729064 C46.9518248,0.140453202 46.4898248,0.148256158 46.0317071,0.210679803 C45.6298836,0.265300493 45.2358248,0.374541872 44.8378836,0.45062069 C44.2827071,0.55791133 43.7255895,0.645694581 43.1801189,0.795901478 C43.0151189,0.840768473 42.8559424,0.914896552 42.6928836,0.963665025 C41.0040601,1.47085714 39.3560012,2.1555665 37.8050012,3.07436453 L10.8168248,19.0996847 C5.74453065,22.1096749 2.1921777,26.9572611 0.736295351,32.5402759 C0.711060057,32.6300099 0.693589469,32.7236453 0.672236527,32.81533 C0.472295351,33.6170837 0.315060057,34.4324926 0.206354174,35.2615567 C0.18111888,35.4527291 0.165589469,35.6458522 0.144236527,35.8389754 C0.0976482921,36.2856946 0.0219424098,36.7246108 0.000589468604,37.179133 C-0.00523406081,37.2942266 0.0335894686,37.3995665 0.0510600568,37.5107586 C0.0413541745,37.8131232 -0.00329288434,38.1096355 0.000589468604,38.4139507 L0.311177704,69.8247488 C0.309236527,69.8579113 0.291765939,69.8852217 0.293707116,69.9183842 C0.369412998,77.8130246 4.67494241,85.1282956 11.5137071,89.0063645 L38.8202365,104.483527 C40.4061777,105.380867 42.0833542,106.042167 43.8012954,106.516197 C43.9100012,106.547409 44.0167659,106.594227 44.127413,106.623488 C44.6825895,106.767842 45.2474718,106.847823 45.810413,106.949261 C46.1870012,107.015586 46.5577659,107.111172 46.9362954,107.15799 C47.3885895,107.214562 47.8447659,107.216512 48.2990012,107.245773 C48.7590601,107.275034 49.2191189,107.333557 49.6811189,107.333557 C49.7141189,107.333557 49.7471189,107.325754 49.7801189,107.325754 C50.2887071,107.323803 50.7914718,107.26333 51.2981189,107.226266 C51.7581777,107.191153 52.2182365,107.1853 52.6782954,107.122877 C53.0781777,107.066305 53.4702954,106.959015 53.8682365,106.882936 C54.4253542,106.773695 54.9824718,106.687862 55.5298836,106.537655 C55.6910012,106.492788 55.8443542,106.420611 56.0054718,106.373793 C57.6981777,105.866601 59.3501189,105.179941 60.9050012,104.259192 L87.8931777,88.2338719 C92.9654718,85.221931 96.5178248,80.3743448 97.9737071,74.79133 C97.9970012,74.7015961 98.0144718,74.6118621 98.0377659,74.5221281 C98.2357659,73.7164729 98.3949424,72.901064 98.5036483,72.0700493" id="path-1"></path>
        <filter x="-50%" y="-50%" width="200%" height="200%" filterUnits="objectBoundingBox" id="filter-3">
            <feMorphology radius="6" operator="dilate" in="SourceAlpha" result="shadowSpreadOuter1"></feMorphology>
            <feOffset dx="0" dy="2" in="shadowSpreadOuter1" result="shadowOffsetOuter1"></feOffset>
            <feGaussianBlur stdDeviation="2" in="shadowOffsetOuter1" result="shadowBlurOuter1"></feGaussianBlur>
            <feComposite in="shadowBlurOuter1" in2="SourceAlpha" operator="out" result="shadowBlurOuter1"></feComposite>
            <feColorMatrix values="0 0 0 0 0.755102041   0 0 0 0 0.755102041   0 0 0 0 0.755102041  0 0 0 0.5 0" type="matrix" in="shadowBlurOuter1"></feColorMatrix>
        </filter>
    </defs>
    <g id="Page-1" stroke="none" stroke-width="1" fill="none" fill-rule="evenodd">
        <g id="Involucrados-Empresas" transform="translate(-315.000000, -394.000000)">
            <g id="Page-1" transform="translate(322.000000, 400.000000)">
                <g id="recursos-financieros">
                    <mask id="mask-2" fill="white">
                        <use xlink:href="#path-1"></use>
                    </mask>
                    <g id="Mask">
                        <use fill="black" fill-opacity="1" filter="url(#filter-3)" xlink:href="#path-1"></use>
                        <use stroke="#FEFEFE" stroke-width="12" fill="#B5BD00" fill-rule="evenodd" xlink:href="#path-1"></use>
                    </g>
                    <g id="Page-1" mask="url(#mask-2)" fill="#FFFFFF">
                        <g transform="translate(30.000000, 37.000000)">
                            <path d="M3.9178,30.2222222 C4.8564,22.7781111 11.2632,17 19,17 C26.7368,17 33.1436,22.7781111 34.0822,30.2222222 L3.9178,30.2222222 Z M19,13.2222222 C8.5234,13.2222222 0,21.6957778 0,32.1111111 C0,33.1537778 0.8512,34 1.9,34 L36.1,34 C37.1488,34 38,33.1537778 38,32.1111111 C38,21.6957778 29.4766,13.2222222 19,13.2222222 L19,13.2222222 Z" id="Fill-1"></path>
                            <path d="M15.2,3.77777778 C16.2469,3.77777778 17.1,4.62588889 17.1,5.66666667 C17.1,6.70933333 16.2469,7.55555556 15.2,7.55555556 C14.1531,7.55555556 13.3,6.70933333 13.3,5.66666667 C13.3,4.62588889 14.1531,3.77777778 15.2,3.77777778 M22.8,3.77777778 C23.8469,3.77777778 24.7,4.62588889 24.7,5.66666667 C24.7,6.70933333 23.8469,7.55555556 22.8,7.55555556 C21.7531,7.55555556 20.9,6.70933333 20.9,5.66666667 C20.9,4.62588889 21.7531,3.77777778 22.8,3.77777778 M19,11.3333333 C24.9071,11.3333333 30.5729,13.8587778 34.5458,18.2598889 L37.3749,15.7401111 C34.6142,12.6782222 31.1486,10.4134444 27.3505,9.04588889 C28.063,8.09955556 28.5,6.936 28.5,5.66666667 C28.5,2.54244444 25.9426,0 22.8,0 C21.3351,0 20.0108,0.566666667 19,1.47333333 C17.9892,0.566666667 16.6649,0 15.2,0 C12.0574,0 9.5,2.54244444 9.5,5.66666667 C9.5,6.936 9.937,8.09955556 10.6495,9.04588889 C6.8514,10.4134444 3.3858,12.6782222 0.6251,15.7401111 L3.4542,18.2598889 C7.4271,13.8587778 13.0929,11.3333333 19,11.3333333" id="Fill-3"></path>
                        </g>
                    </g>
                </g>
            </g>
        </g>
    </g>
</svg>