<?xml version="1.0" encoding="UTF-8"?>
<svg width="35px" height="41px" viewBox="0 0 35 41" version="1.1" xmlns="http://www.w3.org/2000/svg" xmlns:xlink="http://www.w3.org/1999/xlink">
    <!-- Generator: Sketch 42 (36781) - http://www.bohemiancoding.com/sketch -->
    <title>Page 1 Copy 2</title>
    <desc>Created with Sketch.</desc>
    <defs></defs>
    <g id="Page-1" stroke="none" stroke-width="1" fill="none" fill-rule="evenodd">
        <g id="Biodiversidad-en-números" transform="translate(-1093.000000, -1882.000000)" fill="#3C4145">
            <path d="M1104.41129,1912.08065 L1104.41129,1912.08065 C1104.41129,1912 1104.41129,1911.91935 1104.37097,1911.83871 L1104.37097,1911.79839 C1104.29032,1911.35484 1104.08871,1911.03226 1103.92742,1910.75 C1103.52419,1910.14516 1102.87903,1909.1371 1102.87903,1905.95161 C1102.87903,1903.41129 1103.48387,1901.55645 1104.08871,1899.78226 C1104.6129,1898.20968 1105.1371,1896.55645 1105.17742,1894.62097 L1105.17742,1894.54032 L1105.17742,1894.45968 L1105.17742,1894.33871 C1105.17742,1894.29839 1105.17742,1894.25806 1105.1371,1894.21774 C1105.1371,1894.17742 1105.09677,1894.1371 1105.09677,1894.09677 C1105.09677,1894.05645 1105.05645,1894.05645 1105.05645,1894.01613 C1105.05645,1893.97581 1105.01613,1893.93548 1105.01613,1893.93548 C1104.97581,1893.89516 1104.97581,1893.85484 1104.93548,1893.85484 L1104.89516,1893.81452 L1104.85484,1893.77419 L1104.81452,1893.73387 C1104.65323,1893.57258 1104.45161,1893.37097 1104.25,1893.20968 C1103.48387,1892.52419 1102.87903,1891.95968 1102.87903,1890.75 C1102.87903,1887.32258 1104.89516,1884.5 1105.54032,1884.29839 C1106.22581,1884.5 1108.20161,1887.32258 1108.20161,1890.75 C1108.20161,1891.95968 1107.59677,1892.52419 1106.83065,1893.20968 C1106.62903,1893.37097 1106.46774,1893.57258 1106.26613,1893.73387 L1106.22581,1893.77419 L1106.18548,1893.81452 L1106.14516,1893.85484 C1106.10484,1893.89516 1106.10484,1893.93548 1106.06452,1893.93548 C1106.06452,1893.97581 1106.02419,1894.01613 1106.02419,1894.01613 C1106.02419,1894.05645 1105.98387,1894.05645 1105.98387,1894.09677 C1105.98387,1894.1371 1105.94355,1894.17742 1105.94355,1894.21774 C1105.94355,1894.25806 1105.94355,1894.29839 1105.90323,1894.33871 L1105.90323,1894.45968 L1105.90323,1894.54032 L1105.90323,1894.62097 C1105.90323,1896.59677 1106.46774,1898.20968 1106.99194,1899.78226 C1107.59677,1901.55645 1108.20161,1903.37097 1108.20161,1905.95161 C1108.20161,1909.1371 1107.55645,1910.14516 1107.15323,1910.75 C1106.95161,1911.03226 1106.75,1911.35484 1106.70968,1911.79839 L1106.70968,1912 L1106.70968,1912.04032 C1106.70968,1914.09677 1107.15323,1916.19355 1108.04032,1917.96774 C1105.78226,1916.43548 1104.41129,1914.21774 1104.41129,1912.08065 M1122.79839,1882.3629 C1122.35484,1881.91935 1121.62903,1881.91935 1121.18548,1882.3629 C1120.74194,1882.80645 1120.74194,1883.53226 1121.18548,1883.97581 C1121.62903,1884.45968 1125.70161,1888.81452 1125.70161,1898.41129 C1125.70161,1910.99194 1121.06452,1920.10484 1114.65323,1920.10484 C1111.46774,1920.10484 1109.69355,1917.48387 1109.12903,1914.37903 L1114.00806,1917.60484 C1114.08871,1917.64516 1114.16935,1917.68548 1114.29032,1917.72581 C1114.33065,1917.72581 1114.33065,1917.72581 1114.37097,1917.76613 C1114.45161,1917.80645 1114.57258,1917.80645 1114.65323,1917.80645 C1114.73387,1917.80645 1114.81452,1917.80645 1114.89516,1917.76613 C1114.93548,1917.76613 1114.93548,1917.76613 1114.97581,1917.72581 C1115.01613,1917.72581 1115.09677,1917.68548 1115.1371,1917.64516 C1115.17742,1917.64516 1115.17742,1917.60484 1115.21774,1917.60484 C1115.25806,1917.56452 1115.29839,1917.52419 1115.37903,1917.52419 C1115.41935,1917.52419 1115.41935,1917.48387 1115.45968,1917.48387 C1115.54032,1917.44355 1115.58065,1917.3629 1115.62097,1917.28226 C1115.62097,1917.28226 1115.62097,1917.24194 1115.66129,1917.24194 C1115.70161,1917.20161 1115.74194,1917.12097 1115.74194,1917.08065 C1115.74194,1917.04032 1115.78226,1917 1115.78226,1916.95968 C1115.78226,1916.91935 1115.82258,1916.87903 1115.82258,1916.83871 L1115.82258,1916.6371 L1115.82258,1916.59677 L1115.82258,1910.14516 L1116.95161,1910.14516 C1117.59677,1910.14516 1118.08065,1909.62097 1118.08065,1909.01613 C1118.08065,1908.41129 1117.55645,1907.8871 1116.95161,1907.8871 L1116.26613,1907.8871 L1117.27419,1904.82258 C1117.47581,1904.21774 1117.15323,1903.57258 1116.54839,1903.37097 C1115.94355,1903.16935 1115.29839,1903.49194 1115.09677,1904.09677 L1114.69355,1905.42742 L1114.25,1904.09677 C1114.04839,1903.49194 1113.40323,1903.16935 1112.79839,1903.37097 C1112.19355,1903.57258 1111.87097,1904.21774 1112.07258,1904.82258 L1113.08065,1907.8871 L1112.39516,1907.8871 C1111.75,1907.8871 1111.26613,1908.41129 1111.26613,1909.01613 C1111.26613,1909.62097 1111.79032,1910.14516 1112.39516,1910.14516 L1113.52419,1910.14516 L1113.52419,1914.45968 L1109.29032,1911.6371 C1109.81452,1910.79032 1110.5,1909.29839 1110.5,1905.95161 C1110.5,1903.00806 1109.81452,1900.91129 1109.16935,1899.05645 C1109.00806,1898.53226 1108.84677,1898.00806 1108.68548,1897.48387 L1113.16129,1901.47581 L1113.20161,1901.47581 C1113.28226,1901.55645 1113.40323,1901.6371 1113.52419,1901.67742 L1113.56452,1901.67742 C1113.68548,1901.71774 1113.80645,1901.75806 1113.92742,1901.75806 C1114.00806,1901.75806 1114.08871,1901.75806 1114.16935,1901.71774 L1114.20968,1901.71774 C1114.29032,1901.71774 1114.33065,1901.67742 1114.41129,1901.6371 C1114.45161,1901.6371 1114.45161,1901.59677 1114.49194,1901.59677 C1114.53226,1901.55645 1114.57258,1901.55645 1114.6129,1901.51613 C1114.65323,1901.51613 1114.65323,1901.47581 1114.69355,1901.47581 C1114.73387,1901.43548 1114.77419,1901.39516 1114.81452,1901.39516 L1114.85484,1901.35484 L1114.89516,1901.31452 C1114.93548,1901.27419 1114.93548,1901.23387 1114.97581,1901.23387 C1114.97581,1901.19355 1115.01613,1901.15323 1115.01613,1901.15323 C1115.01613,1901.1129 1115.05645,1901.07258 1115.05645,1901.03226 C1115.05645,1900.99194 1115.09677,1900.95161 1115.09677,1900.91129 C1115.09677,1900.87097 1115.09677,1900.83065 1115.1371,1900.79032 L1115.1371,1900.66935 L1115.1371,1900.58871 L1115.1371,1894.1371 L1116.26613,1894.1371 C1116.91129,1894.1371 1117.39516,1893.6129 1117.39516,1893.00806 C1117.39516,1892.40323 1116.87097,1891.87903 1116.26613,1891.87903 L1115.58065,1891.87903 L1116.58871,1888.81452 C1116.79032,1888.20968 1116.46774,1887.56452 1115.8629,1887.3629 C1115.25806,1887.16129 1114.6129,1887.48387 1114.41129,1888.08871 L1113.96774,1889.41935 L1113.52419,1888.08871 C1113.32258,1887.48387 1112.67742,1887.16129 1112.07258,1887.3629 C1111.46774,1887.56452 1111.14516,1888.20968 1111.34677,1888.81452 L1112.35484,1891.87903 L1111.66935,1891.87903 C1111.02419,1891.87903 1110.54032,1892.40323 1110.54032,1893.00806 C1110.54032,1893.6129 1111.06452,1894.1371 1111.66935,1894.1371 L1112.79839,1894.1371 L1112.79839,1898.04839 L1108.80645,1894.5 C1109.6129,1893.73387 1110.54032,1892.64516 1110.54032,1890.70968 C1110.54032,1886.67742 1108.12097,1882.28226 1105.8629,1882 C1105.74194,1882.04032 1105.66129,1882.04032 1105.54032,1882.04032 C1105.45968,1882.04032 1105.37903,1882.04032 1105.29839,1882.08065 C1103,1882.40323 1100.62097,1886.75806 1100.62097,1890.79032 C1100.62097,1892.68548 1101.50806,1893.77419 1102.35484,1894.58065 L1098.3629,1898.12903 L1098.3629,1894.21774 L1099.49194,1894.21774 C1100.1371,1894.21774 1100.62097,1893.69355 1100.62097,1893.08871 C1100.62097,1892.48387 1100.09677,1891.95968 1099.49194,1891.95968 L1098.80645,1891.95968 L1099.81452,1888.89516 C1100.01613,1888.29032 1099.69355,1887.64516 1099.08871,1887.44355 C1098.48387,1887.24194 1097.83871,1887.56452 1097.6371,1888.16935 L1097.19355,1889.45968 L1096.75,1888.12903 C1096.54839,1887.52419 1095.90323,1887.20161 1095.29839,1887.40323 C1094.69355,1887.60484 1094.37097,1888.25 1094.57258,1888.85484 L1095.58065,1891.91935 L1094.89516,1891.91935 C1094.25,1891.91935 1093.76613,1892.44355 1093.76613,1893.04839 C1093.76613,1893.65323 1094.29032,1894.17742 1094.89516,1894.17742 L1096.02419,1894.17742 L1096.02419,1900.62903 L1096.02419,1900.70968 L1096.02419,1900.83065 C1096.02419,1900.87097 1096.02419,1900.91129 1096.06452,1900.95161 C1096.06452,1900.99194 1096.10484,1901.03226 1096.10484,1901.07258 C1096.10484,1901.1129 1096.14516,1901.15323 1096.14516,1901.19355 C1096.14516,1901.23387 1096.18548,1901.27419 1096.18548,1901.27419 C1096.22581,1901.31452 1096.22581,1901.35484 1096.26613,1901.35484 L1096.30645,1901.39516 L1096.34677,1901.43548 C1096.3871,1901.47581 1096.42742,1901.51613 1096.46774,1901.51613 C1096.50806,1901.51613 1096.50806,1901.55645 1096.54839,1901.55645 C1096.58871,1901.59677 1096.62903,1901.59677 1096.66935,1901.6371 C1096.70968,1901.6371 1096.70968,1901.67742 1096.75,1901.67742 C1096.79032,1901.71774 1096.87097,1901.71774 1096.95161,1901.71774 L1096.99194,1901.71774 C1097.07258,1901.71774 1097.15323,1901.75806 1097.23387,1901.75806 C1097.35484,1901.75806 1097.47581,1901.71774 1097.59677,1901.67742 L1097.6371,1901.67742 C1097.75806,1901.6371 1097.87903,1901.55645 1097.95968,1901.47581 L1098,1901.47581 L1102.43548,1897.56452 C1102.27419,1898.08871 1102.1129,1898.57258 1101.95161,1899.1371 C1101.34677,1900.99194 1100.62097,1903.08871 1100.62097,1906.03226 C1100.62097,1909.37903 1101.30645,1910.87097 1101.83065,1911.71774 L1097.59677,1914.54032 L1097.59677,1910.18548 L1098.72581,1910.18548 C1099.37097,1910.18548 1099.85484,1909.66129 1099.85484,1909.05645 C1099.85484,1908.45161 1099.33065,1907.92742 1098.72581,1907.92742 L1098,1907.92742 L1099.00806,1904.8629 C1099.20968,1904.25806 1098.8871,1903.6129 1098.28226,1903.41129 C1097.67742,1903.20968 1097.03226,1903.53226 1096.83065,1904.1371 L1096.42742,1905.42742 L1095.98387,1904.1371 C1095.78226,1903.53226 1095.1371,1903.20968 1094.53226,1903.41129 C1093.92742,1903.6129 1093.60484,1904.25806 1093.80645,1904.8629 L1094.81452,1907.92742 L1094.12903,1907.92742 C1093.48387,1907.92742 1093,1908.45161 1093,1909.05645 C1093,1909.66129 1093.52419,1910.18548 1094.12903,1910.18548 L1095.25806,1910.18548 L1095.25806,1916.6371 L1095.25806,1916.67742 L1095.25806,1916.87903 C1095.25806,1916.91935 1095.25806,1916.95968 1095.29839,1916.95968 C1095.29839,1917 1095.29839,1917.04032 1095.33871,1917.08065 C1095.37903,1917.12097 1095.37903,1917.20161 1095.41935,1917.24194 C1095.41935,1917.24194 1095.41935,1917.28226 1095.45968,1917.28226 C1095.5,1917.3629 1095.58065,1917.40323 1095.62097,1917.48387 C1095.66129,1917.48387 1095.66129,1917.52419 1095.70161,1917.52419 C1095.74194,1917.56452 1095.78226,1917.60484 1095.8629,1917.60484 C1095.90323,1917.60484 1095.90323,1917.64516 1095.94355,1917.64516 C1095.98387,1917.68548 1096.06452,1917.68548 1096.10484,1917.72581 C1096.14516,1917.72581 1096.14516,1917.72581 1096.18548,1917.76613 C1096.26613,1917.76613 1096.34677,1917.80645 1096.42742,1917.80645 C1096.50806,1917.80645 1096.62903,1917.80645 1096.70968,1917.76613 C1096.75,1917.76613 1096.75,1917.76613 1096.79032,1917.72581 C1096.87097,1917.68548 1096.99194,1917.64516 1097.07258,1917.60484 L1102.39516,1914.05645 C1103.60484,1918.65323 1108.80645,1922.3629 1114.69355,1922.3629 C1122.51613,1922.3629 1128,1912.52419 1128,1898.41129 C1128,1888.08871 1123.64516,1883.25 1122.79839,1882.3629" id="Page-1-Copy-2"></path>
        </g>
    </g>
</svg>