<?xml version="1.0" encoding="utf-8"?>
<!-- Generator: Adobe Illustrator 21.0.2, SVG Export Plug-In . SVG Version: 6.00 Build 0)  -->
<svg version="1.1" id="Capa_1" xmlns="http://www.w3.org/2000/svg" xmlns:xlink="http://www.w3.org/1999/xlink" x="0px" y="0px"
	 viewBox="0 0 50 50" style="enable-background:new 0 0 50 50;" xml:space="preserve">
<style type="text/css">
	.st0{fill:#404346;}
	.st1{fill:none;stroke:#404346;stroke-width:2;stroke-linecap:round;stroke-miterlimit:10;}
	.st2{fill:#FFFFFF;stroke:#404346;stroke-width:2;stroke-linecap:round;stroke-miterlimit:10;}
</style>
<path class="st0" d="M32.4,32.9c0,0.3-0.2,0.5-0.5,0.5h-9.2c-0.3,0-0.5-0.2-0.5-0.5c0-0.3,0.2-0.5,0.5-0.5h9.2
	C32.2,32.3,32.4,32.6,32.4,32.9z M39.6,29.9h-31c-0.3,0-0.5,0.2-0.5,0.5C8,30.7,8.2,31,8.5,31h31c0.3,0,0.5-0.2,0.5-0.5
	C40.1,30.1,39.9,29.9,39.6,29.9z M13,23.6h22.5c0.3,0,0.5-0.2,0.5-0.5s-0.2-0.5-0.5-0.5H13c-0.3,0-0.5,0.2-0.5,0.5
	S12.7,23.6,13,23.6z M12.4,28.5h18.5c0.3,0,0.5-0.2,0.5-0.5c0-0.3-0.2-0.5-0.5-0.5H12.4c-0.3,0-0.5,0.2-0.5,0.5
	C11.9,28.2,12.1,28.5,12.4,28.5z M40.2,24.9H15.5c-0.3,0-0.5,0.2-0.5,0.5c0,0.3,0.2,0.5,0.5,0.5h24.7c0.3,0,0.5-0.2,0.5-0.5
	C40.7,25.2,40.5,24.9,40.2,24.9z M30.2,35.3c0-0.3-0.2-0.5-0.5-0.5H12.9c-0.3,0-0.5,0.2-0.5,0.5s0.2,0.5,0.5,0.5h16.8
	C29.9,35.9,30.2,35.6,30.2,35.3z M21.5,37.3c-0.3,0-0.5,0.2-0.5,0.5s0.2,0.5,0.5,0.5h2.9c0.3,0,0.5-0.2,0.5-0.5s-0.2-0.5-0.5-0.5
	H21.5z M35.9,37.3h-7.2c-0.3,0-0.5,0.2-0.5,0.5s0.2,0.5,0.5,0.5h7.2c0.3,0,0.5-0.2,0.5-0.5S36.2,37.3,35.9,37.3z M10.6,28.5
	c0.7,0,0.7-1.1,0-1.1C9.9,27.4,9.9,28.5,10.6,28.5z M38.8,23.6c0.7,0,0.7-1.1,0-1.1S38.1,23.6,38.8,23.6z M41.5,22.5
	c-0.7,0-0.7,1.1,0,1.1S42.2,22.5,41.5,22.5z M11,23.6c0.7,0,0.7-1.1,0-1.1S10.3,23.6,11,23.6z M20.6,32.3c-0.7,0-0.7,1.1,0,1.1
	C21.2,33.4,21.2,32.3,20.6,32.3z M18.2,32.3c-0.7,0-0.7,1.1,0,1.1C18.9,33.4,18.9,32.3,18.2,32.3z M25.2,42.4c-0.7,0-0.7,1.1,0,1.1
	C25.9,43.5,25.9,42.4,25.2,42.4z M27.2,42.4c-0.7,0-0.7,1.1,0,1.1C27.9,43.5,27.9,42.4,27.2,42.4z M33,39.8H20.9
	c-0.3,0-0.5,0.2-0.5,0.5s0.2,0.5,0.5,0.5H33c0.3,0,0.5-0.2,0.5-0.5S33.3,39.8,33,39.8z M32.3,35.9c0.7,0,0.7-1.1,0-1.1
	C31.6,34.8,31.6,35.9,32.3,35.9z M26.6,38.3c0.7,0,0.7-1.1,0-1.1C25.9,37.3,25.9,38.3,26.6,38.3z M18.8,37.3c-0.7,0-0.7,1.1,0,1.1
	C19.5,38.3,19.5,37.3,18.8,37.3z M34.6,34.8c-0.7,0-0.7,1.1,0,1.1C35.3,35.9,35.3,34.8,34.6,34.8z M35.9,27.4c-0.7,0-0.7,1.1,0,1.1
	C36.6,28.5,36.6,27.4,35.9,27.4z M33.5,27.4c-0.7,0-0.7,1.1,0,1.1C34.2,28.5,34.2,27.4,33.5,27.4z"/>
</svg>
