<?xml version="1.0" encoding="UTF-8"?>
<svg width="21px" height="20px" viewBox="0 0 21 20" version="1.1" xmlns="http://www.w3.org/2000/svg" xmlns:xlink="http://www.w3.org/1999/xlink">
    <!-- Generator: Sketch 42 (36781) - http://www.bohemiancoding.com/sketch -->
    <title>Page 1</title>
    <desc>Created with Sketch.</desc>
    <defs>
        <polygon id="path-1" points="0.0004 21 20.077 21 20.077 0.923 0.0004 0.923 0.0004 21"></polygon>
    </defs>
    <g id="Page-1" stroke="none" stroke-width="1" fill="none" fill-rule="evenodd">
        <g id="Eventos_Interna" transform="translate(-970.000000, -809.000000)">
            <g id="Page-1" transform="translate(970.000000, 808.000000)">
                <g id="Group-3" transform="translate(0.000000, 0.077200)">
                    <mask id="mask-2" fill="white">
                        <use xlink:href="#path-1"></use>
                    </mask>
                    <g id="Clip-2"></g>
                    <path d="M8.1564,6.8292 L8.6534,7.3272 C8.7764,7.4492 8.9374,7.5102 9.0974,7.5102 C9.2584,7.5102 9.4184,7.4492 9.5414,7.3272 C9.7864,7.0822 9.7864,6.6842 9.5414,6.4392 L9.0434,5.9422 L12.5484,2.4372 L13.3814,3.2702 C13.0434,3.7792 12.8624,4.3762 12.8624,5.0012 C12.8624,6.7302 14.2694,8.1382 15.9994,8.1382 C16.6234,8.1382 17.2204,7.9562 17.7294,7.6192 L18.5624,8.4522 L15.0584,11.9562 L14.5604,11.4592 C14.3154,11.2142 13.9184,11.2142 13.6734,11.4592 C13.4284,11.7042 13.4284,12.1012 13.6734,12.3462 L14.1704,12.8432 L7.5294,19.4852 L6.6954,18.6522 C7.0334,18.1432 7.2154,17.5462 7.2154,16.9222 C7.2154,15.1922 5.8084,13.7852 4.0784,13.7852 C3.4534,13.7852 2.8564,13.9662 2.3474,14.3042 L1.5144,13.4712 L8.1564,6.8292 Z M0.1834,13.9142 L1.8604,15.5912 C2.1054,15.8362 2.5024,15.8362 2.7474,15.5912 C3.1034,15.2352 3.5754,15.0392 4.0784,15.0392 C5.1164,15.0392 5.9604,15.8842 5.9604,16.9222 C5.9604,17.4242 5.7644,17.8972 5.4094,18.2532 C5.2914,18.3702 5.2254,18.5302 5.2254,18.6962 C5.2254,18.8632 5.2914,19.0222 5.4094,19.1402 L7.0854,20.8162 C7.2074,20.9392 7.3684,21.0002 7.5294,21.0002 C7.6894,21.0002 7.8504,20.9392 7.9724,20.8162 L19.8934,8.8952 C20.0114,8.7782 20.0774,8.6182 20.0774,8.4522 C20.0774,8.2852 20.0114,8.1262 19.8934,8.0082 L18.2174,6.3322 C17.9724,6.0872 17.5744,6.0872 17.3294,6.3322 C16.9744,6.6872 16.5014,6.8832 15.9994,6.8832 C14.9614,6.8832 14.1164,6.0392 14.1164,5.0012 C14.1164,4.4982 14.3124,4.0252 14.6684,3.6702 C14.7864,3.5522 14.8524,3.3922 14.8524,3.2262 C14.8524,3.0602 14.7864,2.9002 14.6684,2.7822 L12.9914,1.1062 C12.7464,0.8612 12.3494,0.8612 12.1044,1.1062 L0.1834,13.0272 C0.0664,13.1452 0.0004,13.3052 0.0004,13.4712 C0.0004,13.6372 0.0664,13.7972 0.1834,13.9142 L0.1834,13.9142 Z" id="Fill-1" fill="#B6BE34" mask="url(#mask-2)"></path>
                </g>
                <path d="M10.5361,9.2862 C10.6581,9.4092 10.8191,9.4702 10.9801,9.4702 C11.1401,9.4702 11.3011,9.4092 11.4231,9.2862 C11.6681,9.0412 11.6681,8.6442 11.4231,8.3992 L10.7961,7.7712 C10.5511,7.5262 10.1531,7.5262 9.9091,7.7712 C9.6641,8.0162 9.6641,8.4142 9.9091,8.6592 L10.5361,9.2862 Z" id="Fill-4" fill="#B6BE34"></path>
                <path d="M11.791,10.5411 L12.418,11.1681 C12.541,11.2911 12.702,11.3521 12.862,11.3521 C13.023,11.3521 13.183,11.2911 13.306,11.1681 C13.551,10.9231 13.551,10.5261 13.306,10.2811 L12.678,9.6541 C12.433,9.4091 12.036,9.4091 11.791,9.6541 C11.546,9.8991 11.546,10.2961 11.791,10.5411" id="Fill-6" fill="#B6BE34"></path>
            </g>
        </g>
    </g>
</svg>