<?xml version="1.0" encoding="UTF-8"?>
<svg width="74px" height="89px" viewBox="0 0 74 89" version="1.1" xmlns="http://www.w3.org/2000/svg" xmlns:xlink="http://www.w3.org/1999/xlink">
    <!-- Generator: Sketch 42 (36781) - http://www.bohemiancoding.com/sketch -->
    <title>Page 1 Copy 4</title>
    <desc>Created with Sketch.</desc>
    <defs>
        <polygon id="path-1" points="36.6678949 88.6330935 0 88.6330935 0 0 36.6678949 0 73.3357898 0 73.3357898 88.6330935 36.6678949 88.6330935"></polygon>
    </defs>
    <g id="Page-1" stroke="none" stroke-width="1" fill="none" fill-rule="evenodd">
        <g id="Home" transform="translate(-398.000000, -2637.000000)">
            <g id="item_chart-copy-8" transform="translate(303.000000, 2538.000000)">
                <g id="Page-1-Copy-4" transform="translate(95.000000, 99.000000)">
                    <mask id="mask-2" fill="white">
                        <use xlink:href="#path-1"></use>
                    </mask>
                    <g id="Clip-2"></g>
                    <path d="M58.1639103,33.4146763 C56.7425069,31.6420144 55.1538796,30.1352518 53.3144164,28.8057554 C53.8160882,23.9309353 61.5920008,15.156259 66.6923306,15.156259 C67.6956742,15.156259 68.2809579,15.2448921 68.5317938,15.3335252 C68.3645699,16.2198561 67.5284503,17.992518 66.9431665,19.1447482 C65.6889871,21.7151079 64.2675837,24.64 64.2675837,27.5648921 C64.2675837,31.6420144 60.6722692,33.148777 58.1639103,33.4146763 L58.1639103,33.4146763 Z M60.3378214,69.3997122 C62.0100606,69.3997122 65.6889871,75.781295 65.856211,80.7447482 C65.2709272,80.3902158 64.6856435,80.0356835 64.1839717,79.6811511 C62.0100606,78.2630216 59.2508658,76.5789928 56.0736112,75.6926619 C57.5786265,73.7427338 59.0000299,71.6155396 60.2542094,69.3110791 C60.2542094,69.3997122 60.2542094,69.3997122 60.3378214,69.3997122 L60.3378214,69.3997122 Z M39.0167705,83.2264748 L39.0167705,78.7948201 C42.1104132,77.8198561 45.7057276,75.1608633 48.7993703,71.2610072 C48.8829823,71.1723741 48.9665942,70.9951079 49.0502062,70.9064748 L51.893013,73.0336691 C47.7960267,78.0857554 42.8629209,81.9856115 39.0167705,83.2264748 L39.0167705,83.2264748 Z M21.3746461,72.945036 L24.2174529,70.8178417 C27.3110956,74.8063309 31.0736339,77.731223 34.3345005,78.7948201 L34.3345005,83.3151079 C30.4883502,81.9856115 25.5552443,78.0857554 21.3746461,72.945036 L21.3746461,72.945036 Z M8.74923953,79.6811511 C8.24756775,80.0356835 7.57867203,80.3902158 7.07700025,80.7447482 C7.24422418,75.781295 10.9231506,69.3997122 12.5953899,69.3997122 C12.7626138,69.3997122 13.0134497,69.3997122 13.1806736,69.3110791 C14.3512411,71.5269065 15.7726445,73.6541007 17.2776599,75.6040288 C13.9331813,76.4017266 11.0067626,78.2630216 8.74923953,79.6811511 L8.74923953,79.6811511 Z M9.08368739,27.5648921 C9.08368739,24.64 7.662284,21.7151079 6.40810454,19.1447482 C5.82282079,17.9038849 4.98670115,16.131223 4.81947722,15.3335252 C5.07031311,15.2448921 5.65559686,15.156259 6.65894043,15.156259 C11.7592702,15.156259 19.4515709,23.9309353 20.0368547,28.8057554 C18.1973915,30.1352518 16.6087642,31.7306475 15.1873608,33.4146763 C12.6790018,33.148777 9.08368739,31.6420144 9.08368739,27.5648921 L9.08368739,27.5648921 Z M31.4080818,22.9559712 C30.2375143,20.9174101 29.5686186,19.6765468 29.5686186,17.5493525 C29.5686186,11.1677698 35.0033962,5.14071942 36.6756355,4.96345324 C38.3478748,5.14071942 43.7826525,11.1677698 43.7826525,17.5493525 C43.7826525,19.6765468 43.1137568,20.9174101 41.9431893,22.9559712 C41.7759653,23.2218705 41.6923534,23.5764029 41.6087414,23.8423022 C40.1037261,23.5764029 38.5150987,23.3991367 36.8428595,23.3991367 L36.7592475,23.3991367 L36.6756355,23.3991367 C35.0033962,23.3991367 33.331157,23.5764029 31.7425296,23.8423022 C31.6589177,23.5764029 31.5753057,23.2218705 31.4080818,22.9559712 L31.4080818,22.9559712 Z M44.7023841,61.3341007 L46.2910114,52.9139568 L50.6388335,50.7867626 C50.8060575,51.7617266 50.8896694,52.8253237 50.8896694,53.8889209 C50.8896694,57.4342446 49.7191019,60.8023022 48.1304746,63.8158273 L44.7023841,61.3341007 Z M39.0167705,64.8794245 L41.1070696,64.8794245 L45.2040559,67.9815827 C43.1137568,70.5519424 40.8562337,72.4132374 39.0167705,73.3882014 L39.0167705,64.8794245 Z M31.9933655,64.8794245 L34.2508886,64.8794245 L34.2508886,73.3882014 C32.3278134,72.4132374 30.0702904,70.4633094 27.9799913,67.8929496 L31.9933655,64.8794245 Z M22.5452136,53.977554 C22.5452136,52.9139568 22.6288256,51.8503597 22.7960495,50.8753957 L27.4783195,53.1798561 L28.8161109,61.1568345 L25.3044084,63.8158273 C23.7157811,60.8023022 22.5452136,57.4342446 22.5452136,53.977554 L22.5452136,53.977554 Z M44.4515482,48.305036 L39.1003825,42.8984173 L39.1003825,42.632518 L39.1003825,38.1122302 C43.6154285,38.9099281 47.210743,41.7461871 49.1338182,45.9119424 L44.4515482,48.305036 Z M34.4181125,43.0756835 L29.1505588,48.4823022 L24.2174529,46.0005755 C26.22414,41.7461871 29.8194545,38.821295 34.4181125,38.1122302 L34.4181125,42.632518 L34.4181125,43.0756835 Z M33.4147689,59.8273381 L32.1605895,52.2935252 L36.8428595,47.5073381 L41.5251294,52.2935252 L40.1037261,59.8273381 L33.4147689,59.8273381 Z M34.4181125,28.5398561 L34.4181125,33.0601439 C27.8963793,33.8578417 22.7124375,37.8463309 19.9532427,43.8733813 L15.6890325,41.7461871 C18.9498991,34.2123741 25.7224682,29.2489209 34.4181125,28.5398561 L34.4181125,28.5398561 Z M13.4315095,53.0025899 C13.4315095,50.6981295 13.6823454,48.5709353 14.1840172,46.5323741 L18.4482274,48.6595683 C18.1137795,50.3435971 17.8629436,52.116259 17.8629436,53.977554 C17.8629436,58.4092086 19.367959,62.8408633 21.54187,66.6520863 L18.6154513,68.8679137 C15.5218086,64.0817266 13.4315095,58.4978417 13.4315095,53.0025899 L13.4315095,53.0025899 Z M59.9197615,53.0025899 C59.9197615,58.4978417 57.8294624,64.0817266 54.8194317,68.8679137 L51.893013,66.6520863 C54.234148,62.4863309 55.5719394,58.0546763 55.5719394,53.8889209 C55.5719394,52.0276259 55.4047155,50.254964 54.9866557,48.5709353 L59.2508658,46.443741 C59.6689256,48.5709353 59.9197615,50.6981295 59.9197615,53.0025899 L59.9197615,53.0025899 Z M57.6622385,41.7461871 L53.3980283,43.8733813 C50.7224455,37.934964 45.5385037,33.9464748 39.1003825,33.0601439 L39.1003825,28.5398561 C47.7124148,29.337554 54.4013719,34.3010072 57.6622385,41.7461871 L57.6622385,41.7461871 Z M69.0334656,27.5648921 C69.0334656,25.8808633 70.2040331,23.4877698 71.2073767,21.3605755 C72.712392,18.1697842 74.2174074,15.156259 72.712392,12.5858993 C71.3746006,10.2814388 68.6154058,10.0155396 66.6923306,10.0155396 C59.7525376,10.0155396 51.2241173,18.967482 49.0502062,26.1467626 C48.1304746,25.7035971 47.210743,25.3490647 46.2910114,24.9945324 C47.6288028,22.6900719 48.5485344,20.6515108 48.5485344,17.5493525 C48.5485344,9.04057554 41.5251294,0 36.6756355,0 C31.8261416,0 24.8027366,9.04057554 24.8027366,17.5493525 C24.8027366,20.6515108 25.7224682,22.6900719 27.0602597,24.9945324 C26.1405281,25.3490647 25.2207965,25.7035971 24.3010648,26.1467626 C22.1271538,19.0561151 13.5987334,10.0155396 6.65894043,10.0155396 C4.73586526,10.0155396 1.97667044,10.2814388 0.638879017,12.5858993 C-0.866136336,15.156259 0.555267053,18.1697842 2.14389437,21.3605755 C3.14723794,23.4877698 4.31780544,25.7922302 4.31780544,27.5648921 C4.31780544,33.0601439 7.91311989,36.6054676 12.260942,37.8463309 C10.003419,42.1893525 8.66562757,47.3300719 8.66562757,53.0025899 C8.66562757,56.9910791 9.50174721,60.8909353 11.0067626,64.7021583 C6.07365668,66.297554 2.3111183,75.1608633 2.3111183,81.0992806 C2.3111183,81.9856115 2.3111183,84.6446043 4.23419347,85.8854676 C4.81947722,86.24 5.321149,86.3286331 5.90643275,86.3286331 C7.49506007,86.3286331 9.16729935,85.265036 11.0903745,84.0241727 C13.6823454,82.3401439 16.943212,80.3015827 20.3713025,80.3015827 C20.6221384,80.3015827 20.8729743,80.2129496 21.1238102,80.1243165 C26.307752,85.3536691 32.1605895,88.6330935 36.5920236,88.6330935 C41.0234577,88.6330935 46.7926832,85.3536691 51.9766249,80.2129496 L52.3946848,80.2129496 C55.8227753,80.2129496 59.0836419,82.2515108 61.6756128,83.9355396 C63.6822999,85.1764029 65.3545392,86.24 66.8595546,86.24 C67.4448383,86.24 68.030122,86.0627338 68.5317938,85.7968345 C70.454869,84.6446043 70.454869,81.8969784 70.454869,81.0106475 C70.454869,75.1608633 66.8595546,66.6520863 62.1772846,64.7021583 C63.6822999,60.8909353 64.5184196,56.902446 64.5184196,52.9139568 C64.5184196,47.2414388 63.1806281,42.1007194 60.9231051,37.7576978 C65.4381512,36.6054676 69.0334656,33.148777 69.0334656,27.5648921 L69.0334656,27.5648921 Z" id="Fill-1" fill="#3C4145" mask="url(#mask-2)"></path>
                </g>
            </g>
        </g>
    </g>
</svg>