<?xml version="1.0" encoding="UTF-8"?>
<svg width="16px" height="16px" viewBox="0 0 16 16" version="1.1" xmlns="http://www.w3.org/2000/svg" xmlns:xlink="http://www.w3.org/1999/xlink">
    <!-- Generator: Sketch 42 (36781) - http://www.bohemiancoding.com/sketch -->
    <title>Page 1</title>
    <desc>Created with Sketch.</desc>
    <defs></defs>
    <g id="Page-1" stroke="none" stroke-width="1" fill="none" fill-rule="evenodd">
        <g id="Noticas_Interna" transform="translate(-1030.000000, -343.000000)" fill="#757575">
            <g id="informacion" transform="translate(1030.000000, 341.000000)">
                <path d="M12.4,15.674784 C11.2976,15.674784 10.4,14.7722482 10.4,13.6637863 C10.4,12.5553244 11.2976,11.6527887 12.4,11.6527887 C13.5024,11.6527887 14.4,12.5553244 14.4,13.6637863 C14.4,14.7722482 13.5024,15.674784 12.4,15.674784 L12.4,15.674784 Z M10.4,5.21759623 L10.4,4.19279183 C10.4,3.87022781 10.6608,3.60879811 10.9808,3.60879811 C11.2368,3.60879811 11.46,3.77450432 11.5352,4.02145483 L13.4304,10.2129144 C13.1016,10.1131689 12.7608,10.0439906 12.4,10.0439906 C11.66,10.0439906 10.9728,10.2708311 10.4,10.6569427 L10.4,10.0439906 L10.4,5.21759623 Z M7.2,8.43519246 L8.8,8.43519246 L8.8,6.82639434 L7.2,6.82639434 L7.2,8.43519246 Z M5.6,10.6569427 C5.0272,10.2708311 4.34,10.0439906 3.6,10.0439906 C3.2392,10.0439906 2.8984,10.1131689 2.5696,10.2129144 L4.4648,4.02145483 C4.54,3.77450432 4.7632,3.60879811 5.0192,3.60879811 C5.3392,3.60879811 5.6,3.87022781 5.6,4.19279183 L5.6,5.21759623 L5.6,10.0439906 L5.6,10.6569427 Z M3.6,15.674784 C2.4976,15.674784 1.6,14.7722482 1.6,13.6637863 C1.6,12.5553244 2.4976,11.6527887 3.6,11.6527887 C4.7024,11.6527887 5.6,12.5553244 5.6,13.6637863 C5.6,14.7722482 4.7024,15.674784 3.6,15.674784 L3.6,15.674784 Z M15.9648,13.0250935 L13.0648,3.54846819 C12.7808,2.62260487 11.9432,2 10.9808,2 C9.7784,2 8.8,2.98378005 8.8,4.19279183 L8.8,5.21759623 L7.2,5.21759623 L7.2,4.19279183 C7.2,2.98378005 6.2216,2 5.0192,2 C4.0568,2 3.2192,2.62260487 2.9352,3.54846819 L0.0352,13.0250935 C0.012,13.1015114 0,13.1811469 0,13.2615868 L0,13.6637863 C0,15.6603048 1.6152,17.2835821 3.6,17.2835821 C5.5848,17.2835821 7.2,15.6603048 7.2,13.6637863 L7.2,10.0439906 L8.8,10.0439906 L8.8,13.6637863 C8.8,15.6603048 10.4152,17.2835821 12.4,17.2835821 C14.3848,17.2835821 16,15.6603048 16,13.6637863 L16,13.2615868 C16,13.1811469 15.988,13.1015114 15.9648,13.0250935 L15.9648,13.0250935 Z" id="Page-1"></path>
            </g>
        </g>
    </g>
</svg>