<?xml version="1.0" encoding="utf-8"?>
<!-- Generator: Adobe Illustrator 21.0.2, SVG Export Plug-In . SVG Version: 6.00 Build 0)  -->
<svg version="1.1" id="Capa_1" xmlns="http://www.w3.org/2000/svg" xmlns:xlink="http://www.w3.org/1999/xlink" x="0px" y="0px"
	 viewBox="0 0 50 50" style="enable-background:new 0 0 50 50;" xml:space="preserve">
<style type="text/css">
	.st0{fill:#404346;}
	.st1{fill:none;stroke:#404346;stroke-width:2;stroke-linecap:round;stroke-miterlimit:10;}
	.st2{fill:#FFFFFF;stroke:#404346;stroke-width:2;stroke-linecap:round;stroke-miterlimit:10;}
</style>
<path class="st0" d="M47.6,38.6c-4.7-9.9,0-25.2,0-25.4l0.1-0.5l-13-4c-0.1,0-0.3-0.1-0.4,0l-19,3.8c-0.1,0-0.3,0-0.4,0l-13-3.9
	L2,9.4C3.4,29,2,39,2,39l-0.1,0.6h13.2c0.1,0,0.1,0,0.2,0l17.2-3c0.1,0,0.2,0,0.3,0L48,39.4L47.6,38.6z M18.4,13l15.9-3.2
	c0.1,0,0.3,0,0.4,0l11,3.4c0.5,0.1,0.7,0.6,0.6,1.1c-0.4,1.6-1.1,4.4-1.5,7.8c-0.1,0.8-0.2,1.7-0.2,2.6c0,0.5-0.5,0.9-1,0.8l-6-0.6
	c-0.2,0-0.4-0.1-0.5-0.2c-1.2-1.1-1.6-2.2-1.9-3.2c-0.2-0.8-0.4-1.6-1.1-1.9c-1-0.5-3-0.3-6.7,1c-3.1,1-5.5,0.8-7.2-0.4
	c-2.1-1.6-2.6-4.7-2.6-6.2C17.6,13.4,17.9,13.1,18.4,13z M16.5,13.4L16.5,13.4c0.5-0.1,1,0.3,1.1,0.8c0.1,1.6,0.6,4.5,2.7,6.1
	c1.7,1.3,4.2,1.5,7.4,0.5c3.6-1.2,5.6-1.5,6.5-1c0.6,0.3,0.8,1,1,1.8c0.2,0.5,0.3,1.2,0.7,1.8c0.3,0.6-0.2,1.4-0.9,1.3l-1.7-0.2
	c0,0-0.1,0-0.1,0l-11.1,0.4c-0.4,0-0.8-0.3-0.9-0.7c-0.5-2.3-2.3-4-4.6-4.4c-0.4-0.1-0.7-0.4-0.7-0.9v-4.7
	C15.8,13.8,16,13.5,16.5,13.4z M14.8,14.2V19c0,0.4-0.3,0.8-0.7,0.9c-2.3,0.4-3.8,2-4.4,4c-0.1,0.4-0.5,0.6-0.9,0.6l-4.3-0.5
	C4,23.8,3.6,23.5,3.6,23c0-3.4-0.1-7.3-0.4-11.8c0-0.6,0.5-1.1,1.1-0.9l9.8,2.9C14.5,13.4,14.8,13.8,14.8,14.2z M14.8,38.6H4
	c-0.5,0-0.9-0.4-0.9-1c0.2-2,0.5-6,0.5-11.9c0-0.5,0.5-1,1-0.9l4,0.5c0.3,0.3,0.6,0.5,0.8,0.8c0.3,2.4,2.3,4.4,4.6,4.9
	c0.4,0.1,0.7,0.5,0.7,0.9L14.8,38.6L14.8,38.6z M10.3,25.5c0-2.7,2.2-4.8,4.9-4.8s4.9,2.2,4.9,4.8s-2.2,4.8-4.9,4.8
	S10.3,28.1,10.3,25.5z M15.8,37.5V32c0-0.4,0.3-0.8,0.7-0.9c2.4-0.4,4.2-2.3,4.6-4.6c0.1-0.4,0.4-0.7,0.8-0.7L33,25.4
	c0,0,0.1,0,0.1,0l10.6,1.1c0.5,0,0.8,0.4,0.8,0.9c0,0,0,0.1,0,0.1c0,0.3-0.2,0.6-0.4,0.7c-1.1,0.8-1.5,1.7-1.7,2.4
	c-0.5,1.5-0.9,2.3-7.6,0.6c-3.6-0.9-6.3-0.6-8.1,0.9c-1.5,1.2-1.8,3-1.9,4.1c0,0.4-0.3,0.7-0.7,0.8l-7.3,1.3
	C16.3,38.5,15.8,38,15.8,37.5z M32.4,35.6l-6.3,1.1c-0.6,0.1-1.1-0.4-1-1c0.2-1,0.7-2.4,1.8-3.3c1.7-1.4,4.3-1.7,7.9-0.8
	c6.9,1.7,7.3,0.8,7.8-0.8c0.1-0.3,0.2-0.5,0.4-0.8c0.4-0.8,1.6-0.5,1.7,0.4c0.2,2.1,0.5,4.3,1.2,6.4c0.2,0.6-0.3,1.3-1,1.1
	l-12.1-2.3C32.6,35.6,32.5,35.6,32.4,35.6z"/>
<ellipse class="st0" cx="15.2" cy="25.4" rx="2.4" ry="2.3"/>
</svg>
