<?xml version="1.0" encoding="UTF-8"?>
<svg width="43px" height="38px" viewBox="0 0 43 38" version="1.1" xmlns="http://www.w3.org/2000/svg" xmlns:xlink="http://www.w3.org/1999/xlink">
    <!-- Generator: Sketch 43.2 (39069) - http://www.bohemiancoding.com/sketch -->
    <title>noun_195244_cc</title>
    <desc>Created with Sketch.</desc>
    <defs></defs>
    <g id="Page-1" stroke="none" stroke-width="1" fill="none" fill-rule="evenodd">
        <g id="Desktop-HD" transform="translate(-499.000000, -791.000000)" fill-rule="nonzero" fill="#B5BD00">
            <g id="noun_195244_cc" transform="translate(499.000000, 791.000000)">
                <path d="M25.7541802,0.21156 C21.3295714,0.21156 17.7094369,3.82510043 17.7094369,8.24191627 C17.7094369,10.0822562 18.3802318,11.7721319 19.4358796,13.1269098 C18.9497181,13.3774838 18.4971264,13.6454421 18.061919,13.9469701 C16.7544983,13.043585 15.1623345,12.491483 13.4694616,12.491483 C9.04485276,12.491483 5.42471828,16.1050234 5.42471828,20.5218392 C5.42471828,21.3413001 5.55899715,22.1277906 5.79338573,22.8807114 L1.65352006,22.8807114 C0.899400314,22.864526 0.21242,23.549708 0.21242,24.3026288 C0.21242,25.0393642 0.899400314,25.7245462 1.65352006,25.7083608 L6.59786005,25.7083608 C2.79249266,27.9491395 0.228005941,31.9475328 0.228005941,36.5651675 C0.228005941,37.3180883 0.914986255,37.9870848 1.65232115,37.9870848 L25.2842042,37.9870848 C26.021539,37.9870848 26.692334,37.3180883 26.692334,36.5651675 C26.692334,31.9643176 24.1284467,27.9491395 20.3236788,25.7077613 L41.3413199,25.7077613 C42.0954397,25.7239467 42.78242,25.0387648 42.78242,24.3020293 C42.78242,23.5491085 42.0954397,22.8639266 41.3413199,22.880112 L38.8943272,22.880112 C38.4081658,18.6473301 35.7597548,15.0673594 32.0724808,13.1269098 C33.1287281,11.7721319 33.7827381,10.0822562 33.7827381,8.24191627 C33.7821386,3.82510043 30.1620042,0.21156 25.7541802,0.21156 L25.7541802,0.21156 Z M25.7541802,3.05539474 C28.6369798,3.05539474 30.9496936,5.36391235 30.9496936,8.24131681 C30.9496936,9.98094759 30.0780799,11.5035741 28.7706592,12.4405289 C28.3522367,12.7414575 28.133434,13.2935595 28.2011729,13.8120917 C28.2850972,14.330624 28.6705495,14.7826163 29.156711,14.9330805 C32.7936303,16.1373942 35.4750116,19.1820478 36.0283125,22.8795125 L21.1281531,22.8795125 C21.3625417,22.1271911 21.4968205,21.3407006 21.4968205,20.5212398 C21.4968205,18.848149 20.9770894,17.2925522 20.0886907,16.0043142 C20.7924559,15.5691068 21.5297908,15.2010388 22.3180797,14.93368 C22.821026,14.7832157 23.2058789,14.3312234 23.2736178,13.8126912 C23.3575421,13.2941589 23.1225541,12.7420569 22.703532,12.4411284 C21.3961114,11.5041736 20.5580673,9.98154704 20.5580673,8.24191627 C20.5580673,5.36391235 22.8545958,3.05539474 25.7541802,3.05539474 L25.7541802,3.05539474 Z M13.4682627,15.3179334 C16.3510622,15.3179334 18.6637761,17.6270505 18.6637761,20.5212398 C18.6637761,22.2608706 17.7921623,23.7828976 16.4847417,24.7204519 C16.0657196,25.0213805 15.8313311,25.5734824 15.9146559,26.0920147 C15.9985802,26.5937621 16.3840325,27.0457544 16.870194,27.2130035 C20.4903284,28.4173172 23.189094,31.4619708 23.7417955,35.1594355 L3.17794497,35.1594355 C3.74803072,31.4619708 6.41262714,28.4173172 10.0327616,27.2130035 C10.5357079,27.0457544 10.9211602,26.5937621 10.9882997,26.0920147 C11.072224,25.5734824 10.8378354,25.0213805 10.4182139,24.7204519 C9.11079328,23.7834971 8.27274923,22.2608706 8.27274923,20.5212398 C8.27274923,17.6270505 10.5692777,15.3179334 13.4682627,15.3179334 L13.4682627,15.3179334 Z" id="Shape"></path>
            </g>
        </g>
    </g>
</svg>