<?xml version="1.0" encoding="UTF-8"?>
<svg width="113px" height="123px" viewBox="0 0 113 123" version="1.1" xmlns="http://www.w3.org/2000/svg" xmlns:xlink="http://www.w3.org/1999/xlink">
    <!-- Generator: Sketch 43.2 (39069) - http://www.bohemiancoding.com/sketch -->
    <title>Page 1</title>
    <desc>Created with Sketch.</desc>
    <defs>
        <polygon id="path-1" points="0 0.000195073892 0 107.333167 98.7088235 107.333167 98.7088235 0.000195073892 0 0.000195073892"></polygon>
        <path d="M98.5036483,72.0700493 C98.5288836,71.8788768 98.544413,71.6877044 98.5657659,71.496532 C98.6123542,71.0498128 98.6880601,70.6089458 98.7074718,70.1544236 C98.7152365,70.0373793 98.676413,69.9320394 98.6589424,69.822798 C98.6686483,69.5204335 98.7132954,69.2239212 98.709413,68.9196059 L98.3988248,37.5088079 C98.4007659,37.4756453 98.4162954,37.448335 98.4162954,37.4151724 C98.3405895,29.520532 94.0350601,22.2052611 87.1962954,18.3271921 L59.8878248,2.85002956 C58.3038248,1.95268966 56.6266483,1.28943842 54.9087071,0.817359606 C54.8000012,0.786147783 54.6932365,0.739330049 54.5825895,0.710068966 C54.027413,0.565714286 53.4625306,0.483783251 52.8995895,0.384295567 C52.5230012,0.317970443 52.1522365,0.222384236 51.7737071,0.173615764 C51.3194718,0.117044335 50.8652365,0.115093596 50.4110012,0.0877832512 C49.9490012,0.0585221675 49.4908836,0 49.0288836,0 C48.9958836,0 48.9628836,0.00585221675 48.9279424,0.00585221675 C48.4212954,0.00975369458 47.9185306,0.070226601 47.4118836,0.10729064 C46.9518248,0.140453202 46.4898248,0.148256158 46.0317071,0.210679803 C45.6298836,0.265300493 45.2358248,0.374541872 44.8378836,0.45062069 C44.2827071,0.55791133 43.7255895,0.645694581 43.1801189,0.795901478 C43.0151189,0.840768473 42.8559424,0.914896552 42.6928836,0.963665025 C41.0040601,1.47085714 39.3560012,2.1555665 37.8050012,3.07436453 L10.8168248,19.0996847 C5.74453065,22.1096749 2.1921777,26.9572611 0.736295351,32.5402759 C0.711060057,32.6300099 0.693589469,32.7236453 0.672236527,32.81533 C0.472295351,33.6170837 0.315060057,34.4324926 0.206354174,35.2615567 C0.18111888,35.4527291 0.165589469,35.6458522 0.144236527,35.8389754 C0.0976482921,36.2856946 0.0219424098,36.7246108 0.000589468604,37.179133 C-0.00523406081,37.2942266 0.0335894686,37.3995665 0.0510600568,37.5107586 C0.0413541745,37.8131232 -0.00329288434,38.1096355 0.000589468604,38.4139507 L0.311177704,69.8247488 C0.309236527,69.8579113 0.291765939,69.8852217 0.293707116,69.9183842 C0.369412998,77.8130246 4.67494241,85.1282956 11.5137071,89.0063645 L38.8202365,104.483527 C40.4061777,105.380867 42.0833542,106.042167 43.8012954,106.516197 C43.9100012,106.547409 44.0167659,106.594227 44.127413,106.623488 C44.6825895,106.767842 45.2474718,106.847823 45.810413,106.949261 C46.1870012,107.015586 46.5577659,107.111172 46.9362954,107.15799 C47.3885895,107.214562 47.8447659,107.216512 48.2990012,107.245773 C48.7590601,107.275034 49.2191189,107.333557 49.6811189,107.333557 C49.7141189,107.333557 49.7471189,107.325754 49.7801189,107.325754 C50.2887071,107.323803 50.7914718,107.26333 51.2981189,107.226266 C51.7581777,107.191153 52.2182365,107.1853 52.6782954,107.122877 C53.0781777,107.066305 53.4702954,106.959015 53.8682365,106.882936 C54.4253542,106.773695 54.9824718,106.687862 55.5298836,106.537655 C55.6910012,106.492788 55.8443542,106.420611 56.0054718,106.373793 C57.6981777,105.866601 59.3501189,105.179941 60.9050012,104.259192 L87.8931777,88.2338719 C92.9654718,85.221931 96.5178248,80.3743448 97.9737071,74.79133 C97.9970012,74.7015961 98.0144718,74.6118621 98.0377659,74.5221281 C98.2357659,73.7164729 98.3949424,72.901064 98.5036483,72.0700493" id="path-3"></path>
        <filter x="-13.2%" y="-10.2%" width="126.3%" height="124.2%" filterUnits="objectBoundingBox" id="filter-5">
            <feMorphology radius="6" operator="dilate" in="SourceAlpha" result="shadowSpreadOuter1"></feMorphology>
            <feOffset dx="0" dy="2" in="shadowSpreadOuter1" result="shadowOffsetOuter1"></feOffset>
            <feGaussianBlur stdDeviation="2" in="shadowOffsetOuter1" result="shadowBlurOuter1"></feGaussianBlur>
            <feComposite in="shadowBlurOuter1" in2="SourceAlpha" operator="out" result="shadowBlurOuter1"></feComposite>
            <feColorMatrix values="0 0 0 0 0.755102041   0 0 0 0 0.755102041   0 0 0 0 0.755102041  0 0 0 0.5 0" type="matrix" in="shadowBlurOuter1"></feColorMatrix>
        </filter>
        <polygon id="path-6" points="0 16.331993 0 0.0524097703 17.3975171 0.0524097703 17.3975171 16.331993 3.74020034e-16 16.331993"></polygon>
    </defs>
    <g id="Page-1" stroke="none" stroke-width="1" fill="none" fill-rule="evenodd">
        <g id="Desktop-HD" transform="translate(-315.000000, -394.000000)">
            <g id="Page-1" transform="translate(322.000000, 400.000000)">
                <mask id="mask-2" fill="white">
                    <use xlink:href="#path-1"></use>
                </mask>
                <g id="Clip-2"></g>
                <g id="recursos-financieros">
                    <mask id="mask-4" fill="white">
                        <use xlink:href="#path-3"></use>
                    </mask>
                    <g id="Mask">
                        <use fill="black" fill-opacity="1" filter="url(#filter-5)" xlink:href="#path-3"></use>
                        <use stroke="#FEFEFE" stroke-width="12" fill="#B5BD00" fill-rule="evenodd" xlink:href="#path-3"></use>
                    </g>
                    <g id="Emprendedores" mask="url(#mask-4)">
                        <g transform="translate(31.000000, 31.000000)">
                            <g id="Group-3" stroke-width="1" fill="none" transform="translate(0.000000, 4.600102)">
                                <mask id="mask-7" fill="white">
                                    <use xlink:href="#path-6"></use>
                                </mask>
                                <g id="Clip-2"></g>
                                <path d="M12.2078168,6.87973885 C13.4271603,7.94611464 13.5918237,9.83277952 12.5037942,11.0989693 C11.4762107,12.2915434 9.51275504,12.4324649 8.32884548,11.3934321 C7.32835852,10.5184571 6.22990722,7.67899487 5.43993939,4.98045414 C8.53728026,5.49786725 11.4824637,6.24454064 12.2078168,6.87973885 M10.267289,16.331993 C12.334962,16.331993 14.2963333,15.4317783 15.6511594,13.8542993 C16.8996837,12.4051219 17.5145663,10.5500066 17.3790837,8.63179218 C17.2456855,6.71568103 16.3785968,4.965731 14.9424811,3.70374781 C12.1807203,1.28494669 3.35142287,0.426798118 -0.000208434783,0.0524097703 C0.450010696,2.15571509 2.18210374,11.5785229 5.59626548,14.5715264 C6.89272983,15.705208 8.5518707,16.331993 10.267289,16.331993" id="Fill-1" fill="#FFFFFF" mask="url(#mask-7)"></path>
                            </g>
                            <path d="M24.6284455,8.33308536 C25.7956803,7.1236848 29.4953977,5.9416272 32.8303542,5.18443729 C32.0112055,8.97880009 30.881489,12.7079604 30.0081472,13.614485 C28.5511881,15.1246582 26.1750316,15.1372781 24.6993133,13.6881007 C23.217342,12.2305101 23.1860768,9.82853544 24.6284455,8.33308536 L24.6284455,8.33308536 Z M26.9587463,38.7468803 L13.287509,38.7468803 L10.5090733,30.333659 L29.737182,30.333659 L26.9587463,38.7468803 Z M22.8671716,17.5708023 C24.1719733,18.4731203 25.7081377,18.9673971 27.3172542,18.9673971 C29.4745542,18.9673971 31.4901185,18.1050419 32.9950177,16.5485959 C35.825562,13.6165883 37.3763168,3.7268467 37.9995368,-0.000210330532 C35.915189,0.330008605 25.182882,1.72660334 21.641575,5.39687113 C20.1658568,6.9259741 19.3696359,8.9451472 19.3967324,11.0800021 C19.4134072,12.1632043 19.6406011,13.2043405 20.0574707,14.1676543 C18.7797655,16.0122531 18.0377377,18.0545626 18.0377377,19.9664671 L18.0377377,26.1270484 L7.61599852,26.1270484 C6.94692287,26.1270484 6.31744983,26.4530607 5.92559243,27.0020234 C5.53373504,27.5509861 5.4274333,28.2534901 5.64003678,28.8949982 L9.80873243,41.5148301 C10.0922037,42.375082 10.8884246,42.953491 11.7846942,42.953491 L28.4594768,42.953491 C29.3578307,42.953491 30.1540516,42.375082 30.4375229,41.5148301 L34.6062185,28.8949982 C34.818822,28.2534901 34.7104359,27.5509861 34.3185785,27.0020234 C33.9288055,26.4530607 33.2993324,26.1270484 32.6281724,26.1270484 L22.2064333,26.1270484 L22.2064333,19.9664671 C22.2064333,19.2240003 22.4544707,18.395298 22.8671716,17.5708023 L22.8671716,17.5708023 Z" id="Fill-4" fill="#FFFFFF"></path>
                        </g>
                    </g>
                </g>
            </g>
        </g>
    </g>
</svg>