<?xml version="1.0" encoding="UTF-8"?>
<svg width="113px" height="123px" viewBox="0 0 113 123" version="1.1" xmlns="http://www.w3.org/2000/svg" xmlns:xlink="http://www.w3.org/1999/xlink">
    <!-- Generator: Sketch 43.2 (39069) - http://www.bohemiancoding.com/sketch -->
    <title>Page 1</title>
    <desc>Created with Sketch.</desc>
    <defs>
        <polygon id="path-1" points="0 0.000195073892 0 107.333167 98.7088235 107.333167 98.7088235 0.000195073892 0 0.000195073892"></polygon>
        <path d="M98.5036483,72.0700493 C98.5288836,71.8788768 98.544413,71.6877044 98.5657659,71.496532 C98.6123542,71.0498128 98.6880601,70.6089458 98.7074718,70.1544236 C98.7152365,70.0373793 98.676413,69.9320394 98.6589424,69.822798 C98.6686483,69.5204335 98.7132954,69.2239212 98.709413,68.9196059 L98.3988248,37.5088079 C98.4007659,37.4756453 98.4162954,37.448335 98.4162954,37.4151724 C98.3405895,29.520532 94.0350601,22.2052611 87.1962954,18.3271921 L59.8878248,2.85002956 C58.3038248,1.95268966 56.6266483,1.28943842 54.9087071,0.817359606 C54.8000012,0.786147783 54.6932365,0.739330049 54.5825895,0.710068966 C54.027413,0.565714286 53.4625306,0.483783251 52.8995895,0.384295567 C52.5230012,0.317970443 52.1522365,0.222384236 51.7737071,0.173615764 C51.3194718,0.117044335 50.8652365,0.115093596 50.4110012,0.0877832512 C49.9490012,0.0585221675 49.4908836,0 49.0288836,0 C48.9958836,0 48.9628836,0.00585221675 48.9279424,0.00585221675 C48.4212954,0.00975369458 47.9185306,0.070226601 47.4118836,0.10729064 C46.9518248,0.140453202 46.4898248,0.148256158 46.0317071,0.210679803 C45.6298836,0.265300493 45.2358248,0.374541872 44.8378836,0.45062069 C44.2827071,0.55791133 43.7255895,0.645694581 43.1801189,0.795901478 C43.0151189,0.840768473 42.8559424,0.914896552 42.6928836,0.963665025 C41.0040601,1.47085714 39.3560012,2.1555665 37.8050012,3.07436453 L10.8168248,19.0996847 C5.74453065,22.1096749 2.1921777,26.9572611 0.736295351,32.5402759 C0.711060057,32.6300099 0.693589469,32.7236453 0.672236527,32.81533 C0.472295351,33.6170837 0.315060057,34.4324926 0.206354174,35.2615567 C0.18111888,35.4527291 0.165589469,35.6458522 0.144236527,35.8389754 C0.0976482921,36.2856946 0.0219424098,36.7246108 0.000589468604,37.179133 C-0.00523406081,37.2942266 0.0335894686,37.3995665 0.0510600568,37.5107586 C0.0413541745,37.8131232 -0.00329288434,38.1096355 0.000589468604,38.4139507 L0.311177704,69.8247488 C0.309236527,69.8579113 0.291765939,69.8852217 0.293707116,69.9183842 C0.369412998,77.8130246 4.67494241,85.1282956 11.5137071,89.0063645 L38.8202365,104.483527 C40.4061777,105.380867 42.0833542,106.042167 43.8012954,106.516197 C43.9100012,106.547409 44.0167659,106.594227 44.127413,106.623488 C44.6825895,106.767842 45.2474718,106.847823 45.810413,106.949261 C46.1870012,107.015586 46.5577659,107.111172 46.9362954,107.15799 C47.3885895,107.214562 47.8447659,107.216512 48.2990012,107.245773 C48.7590601,107.275034 49.2191189,107.333557 49.6811189,107.333557 C49.7141189,107.333557 49.7471189,107.325754 49.7801189,107.325754 C50.2887071,107.323803 50.7914718,107.26333 51.2981189,107.226266 C51.7581777,107.191153 52.2182365,107.1853 52.6782954,107.122877 C53.0781777,107.066305 53.4702954,106.959015 53.8682365,106.882936 C54.4253542,106.773695 54.9824718,106.687862 55.5298836,106.537655 C55.6910012,106.492788 55.8443542,106.420611 56.0054718,106.373793 C57.6981777,105.866601 59.3501189,105.179941 60.9050012,104.259192 L87.8931777,88.2338719 C92.9654718,85.221931 96.5178248,80.3743448 97.9737071,74.79133 C97.9970012,74.7015961 98.0144718,74.6118621 98.0377659,74.5221281 C98.2357659,73.7164729 98.3949424,72.901064 98.5036483,72.0700493" id="path-3"></path>
        <filter x="-13.2%" y="-10.2%" width="126.3%" height="124.2%" filterUnits="objectBoundingBox" id="filter-5">
            <feMorphology radius="6" operator="dilate" in="SourceAlpha" result="shadowSpreadOuter1"></feMorphology>
            <feOffset dx="0" dy="2" in="shadowSpreadOuter1" result="shadowOffsetOuter1"></feOffset>
            <feGaussianBlur stdDeviation="2" in="shadowOffsetOuter1" result="shadowBlurOuter1"></feGaussianBlur>
            <feComposite in="shadowBlurOuter1" in2="SourceAlpha" operator="out" result="shadowBlurOuter1"></feComposite>
            <feColorMatrix values="0 0 0 0 0.755102041   0 0 0 0 0.755102041   0 0 0 0 0.755102041  0 0 0 0.5 0" type="matrix" in="shadowBlurOuter1"></feColorMatrix>
        </filter>
        <polygon id="path-6" points="0.000832 36.6931522 41.76016 36.6931522 41.76016 0.0599425014 0.000832 0.0599425014 0.000832 36.6931522"></polygon>
        <polygon id="path-8" points="0 37.0335733 41.76016 37.0335733 41.76016 0.400363554 0 0.400363554"></polygon>
    </defs>
    <g id="Page-1" stroke="none" stroke-width="1" fill="none" fill-rule="evenodd">
        <g id="Desktop-HD" transform="translate(-315.000000, -394.000000)">
            <g id="Page-1" transform="translate(322.000000, 400.000000)">
                <mask id="mask-2" fill="white">
                    <use xlink:href="#path-1"></use>
                </mask>
                <g id="Clip-2"></g>
                <g id="recursos-financieros">
                    <mask id="mask-4" fill="white">
                        <use xlink:href="#path-3"></use>
                    </mask>
                    <g id="Mask">
                        <use fill="black" fill-opacity="1" filter="url(#filter-5)" xlink:href="#path-3"></use>
                        <use stroke="#FEFEFE" stroke-width="12" fill="#B5BD00" fill-rule="evenodd" xlink:href="#path-3"></use>
                    </g>
                    <g id="Eventos" mask="url(#mask-4)">
                        <g transform="translate(29.000000, 33.000000)">
                            <g id="Group-3" stroke="none" stroke-width="1" fill="none" fill-rule="evenodd" transform="translate(0.000000, 0.340421)">
                                <mask id="mask-7" fill="white">
                                    <use xlink:href="#path-6"></use>
                                </mask>
                                <g id="Clip-2"></g>
                                <path d="M39.150592,34.0764646 L2.609152,34.0764646 L2.609152,5.29248362 L6.525792,5.29248362 L6.525792,6.5999933 C6.525792,7.32360711 7.110272,7.90958832 7.829952,7.90958832 L11.744512,7.90958832 C12.466272,7.90958832 13.050752,7.32360711 13.050752,6.5999933 L13.050752,5.29248362 L28.711072,5.29248362 L28.711072,6.5999933 C28.711072,7.32360711 29.295552,7.90958832 30.015232,7.90958832 L33.929792,7.90958832 C34.651552,7.90958832 35.236032,7.32360711 35.236032,6.5999933 L35.236032,5.29248362 L39.150592,5.29248362 L39.150592,34.0764646 Z M9.134112,5.29248362 L10.440352,5.29248362 L10.440352,2.67537892 L9.134112,2.67537892 L9.134112,5.29248362 Z M31.321472,5.29248362 L32.625632,5.29248362 L32.625632,2.67537892 L31.321472,2.67537892 L31.321472,5.29248362 Z M40.454752,2.67537892 L35.236032,2.67537892 L35.236032,1.36786925 C35.236032,0.644255439 34.651552,0.0582742275 33.929792,0.0582742275 L30.015232,0.0582742275 C29.295552,0.0582742275 28.711072,0.644255439 28.711072,1.36786925 L28.711072,2.67537892 L13.050752,2.67537892 L13.050752,1.36786925 C13.050752,0.644255439 12.466272,0.0582742275 11.744512,0.0582742275 L7.829952,0.0582742275 C7.110272,0.0582742275 6.525792,0.644255439 6.525792,1.36786925 L6.525792,2.67537892 L1.304992,2.67537892 C0.583232,2.67537892 0.000832,3.26136014 0.000832,3.98497394 L0.000832,35.3839743 C0.000832,36.1075881 0.583232,36.6935693 1.304992,36.6935693 L40.454752,36.6935693 C41.176512,36.6935693 41.760992,36.1075881 41.760992,35.3839743 L41.760992,3.98497394 C41.760992,3.26136014 41.176512,2.67537892 40.454752,2.67537892 L40.454752,2.67537892 Z" id="Fill-1" fill="#FFFFFF" mask="url(#mask-7)"></path>
                            </g>
                            <mask id="mask-9" fill="white">
                                <use xlink:href="#path-8"></use>
                            </mask>
                            <g id="Clip-5" stroke="none" fill="none"></g>
                            <path d="M9.13536,18.7159257 L11.74576,18.7159257 L11.74576,16.0988211 L9.13536,16.0988211 L9.13536,18.7159257 Z M13.04992,13.4838017 L7.82912,13.4838017 C7.10944,13.4838017 6.52496,14.0697829 6.52496,14.7913114 L6.52496,20.0255208 C6.52496,20.7470492 7.10944,21.3330304 7.82912,21.3330304 L13.04992,21.3330304 C13.77168,21.3330304 14.35616,20.7470492 14.35616,20.0255208 L14.35616,14.7913114 C14.35616,14.0697829 13.77168,13.4838017 13.04992,13.4838017 L13.04992,13.4838017 Z" id="Fill-4" stroke="none" fill="#FFFFFF" fill-rule="evenodd" mask="url(#mask-9)"></path>
                            <path d="M19.57488,18.7159257 L22.18528,18.7159257 L22.18528,16.0988211 L19.57488,16.0988211 L19.57488,18.7159257 Z M23.48944,13.4838017 L18.27072,13.4838017 C17.54896,13.4838017 16.96448,14.0697829 16.96448,14.7913114 L16.96448,20.0255208 C16.96448,20.7470492 17.54896,21.3330304 18.27072,21.3330304 L23.48944,21.3330304 C24.2112,21.3330304 24.79568,20.7470492 24.79568,20.0255208 L24.79568,14.7913114 C24.79568,14.0697829 24.2112,13.4838017 23.48944,13.4838017 L23.48944,13.4838017 Z" id="Fill-6" stroke="none" fill="#FFFFFF" fill-rule="evenodd" mask="url(#mask-9)"></path>
                            <path d="M30.0144,18.7159257 L32.6248,18.7159257 L32.6248,16.0988211 L30.0144,16.0988211 L30.0144,18.7159257 Z M33.93104,13.4838017 L28.71024,13.4838017 C27.99056,13.4838017 27.40608,14.0697829 27.40608,14.7913114 L27.40608,20.0255208 C27.40608,20.7470492 27.99056,21.3330304 28.71024,21.3330304 L33.93104,21.3330304 C34.65072,21.3330304 35.2352,20.7470492 35.2352,20.0255208 L35.2352,14.7913114 C35.2352,14.0697829 34.65072,13.4838017 33.93104,13.4838017 L33.93104,13.4838017 Z" id="Fill-7" stroke="none" fill="#FFFFFF" fill-rule="evenodd" mask="url(#mask-9)"></path>
                            <path d="M9.13536,29.1843445 L11.74576,29.1843445 L11.74576,26.5672398 L9.13536,26.5672398 L9.13536,29.1843445 Z M13.04992,23.9501351 L7.82912,23.9501351 C7.10944,23.9501351 6.52496,24.5361164 6.52496,25.2576448 L6.52496,30.4918542 C6.52496,31.215468 7.10944,31.7993639 7.82912,31.7993639 L13.04992,31.7993639 C13.77168,31.7993639 14.35616,31.215468 14.35616,30.4918542 L14.35616,25.2576448 C14.35616,24.5361164 13.77168,23.9501351 13.04992,23.9501351 L13.04992,23.9501351 Z" id="Fill-8" stroke="none" fill="#FFFFFF" fill-rule="evenodd" mask="url(#mask-9)"></path>
                            <path d="M19.57488,29.1843445 L22.18528,29.1843445 L22.18528,26.5672398 L19.57488,26.5672398 L19.57488,29.1843445 Z M23.48944,23.9501351 L18.27072,23.9501351 C17.54896,23.9501351 16.96448,24.5361164 16.96448,25.2576448 L16.96448,30.4918542 C16.96448,31.215468 17.54896,31.7993639 18.27072,31.7993639 L23.48944,31.7993639 C24.2112,31.7993639 24.79568,31.215468 24.79568,30.4918542 L24.79568,25.2576448 C24.79568,24.5361164 24.2112,23.9501351 23.48944,23.9501351 L23.48944,23.9501351 Z" id="Fill-9" stroke="none" fill="#FFFFFF" fill-rule="evenodd" mask="url(#mask-9)"></path>
                            <path d="M30.0144,29.1843445 L32.6248,29.1843445 L32.6248,26.5672398 L30.0144,26.5672398 L30.0144,29.1843445 Z M33.93104,23.9501351 L28.71024,23.9501351 C27.99056,23.9501351 27.40608,24.5361164 27.40608,25.2576448 L27.40608,30.4918542 C27.40608,31.215468 27.99056,31.7993639 28.71024,31.7993639 L33.93104,31.7993639 C34.65072,31.7993639 35.2352,31.215468 35.2352,30.4918542 L35.2352,25.2576448 C35.2352,24.5361164 34.65072,23.9501351 33.93104,23.9501351 L33.93104,23.9501351 Z" id="Fill-10" stroke="none" fill="#FFFFFF" fill-rule="evenodd" mask="url(#mask-9)"></path>
                        </g>
                    </g>
                </g>
            </g>
        </g>
    </g>
</svg>