<?xml version="1.0" encoding="UTF-8"?>
<svg width="35px" height="46px" viewBox="0 0 35 46" version="1.1" xmlns="http://www.w3.org/2000/svg" xmlns:xlink="http://www.w3.org/1999/xlink">
    <!-- Generator: Sketch 43.2 (39069) - http://www.bohemiancoding.com/sketch -->
    <title>informacion</title>
    <desc>Created with Sketch.</desc>
    <defs></defs>
    <g id="Page-1" stroke="none" stroke-width="1" fill="none" fill-rule="evenodd">
        <g id="Desktop-HD" transform="translate(-759.000000, -691.000000)" fill="#B5BD00">
            <g id="Page-1-Copy-3" transform="translate(728.000000, 659.000000)">
                <g id="informacion">
                    <g id="icon" transform="translate(31.000000, 32.000000)">
                        <polygon id="Fill-1" points="7.77777778 28.75 27.2222222 28.75 27.2222222 24.9166667 7.77777778 24.9166667"></polygon>
                        <polygon id="Fill-2" points="7.77777778 21.0833333 23.3333333 21.0833333 23.3333333 17.25 7.77777778 17.25"></polygon>
                        <polygon id="Fill-3" points="7.77777778 36.4166667 27.2222222 36.4166667 27.2222222 32.5833333 7.77777778 32.5833333"></polygon>
                        <path d="M3.88888889,42.1666667 L3.88888889,7.66666667 L7.77777778,7.66666667 L7.77777778,9.58333333 C7.77777778,10.64325 8.64888889,11.5 9.72222222,11.5 C10.7955556,11.5 11.6666667,10.64325 11.6666667,9.58333333 L11.6666667,7.66666667 L15.5555556,7.66666667 L15.5555556,9.58333333 C15.5555556,10.64325 16.4266667,11.5 17.5,11.5 C18.5733333,11.5 19.4444444,10.64325 19.4444444,9.58333333 L19.4444444,7.66666667 L23.3333333,7.66666667 L23.3333333,9.58333333 C23.3333333,10.64325 24.2044444,11.5 25.2777778,11.5 C26.3511111,11.5 27.2222222,10.64325 27.2222222,9.58333333 L27.2222222,7.66666667 L31.1111111,7.66666667 L31.1130556,42.1666667 L3.88888889,42.1666667 Z M31.1111111,3.83333333 L27.2222222,3.83333333 L27.2222222,1.91666667 C27.2222222,0.858666667 26.3511111,0 25.2777778,0 C24.2044444,0 23.3333333,0.858666667 23.3333333,1.91666667 L23.3333333,3.83333333 L19.4444444,3.83333333 L19.4444444,1.91666667 C19.4444444,0.858666667 18.5733333,0 17.5,0 C16.4266667,0 15.5555556,0.858666667 15.5555556,1.91666667 L15.5555556,3.83333333 L11.6666667,3.83333333 L11.6666667,1.91666667 C11.6666667,0.858666667 10.7955556,0 9.72222222,0 C8.64888889,0 7.77777778,0.858666667 7.77777778,1.91666667 L7.77777778,3.83333333 L3.88888889,3.83333333 C1.74416667,3.83333333 0,5.55066667 0,7.66666667 L0,42.1666667 C0,44.2788333 1.74416667,46 3.88888889,46 L31.1111111,46 C33.2558333,46 35,44.2788333 35,42.1666667 L35,7.66666667 C35,5.55066667 33.2558333,3.83333333 31.1111111,3.83333333 L31.1111111,3.83333333 Z" id="Fill-4"></path>
                    </g>
                </g>
            </g>
        </g>
    </g>
</svg>