<?xml version="1.0" encoding="UTF-8"?>
<svg width="29px" height="38px" viewBox="0 0 29 38" version="1.1" xmlns="http://www.w3.org/2000/svg" xmlns:xlink="http://www.w3.org/1999/xlink">
    <!-- Generator: Sketch 43.2 (39069) - http://www.bohemiancoding.com/sketch -->
    <title>icon</title>
    <desc>Created with Sketch.</desc>
    <defs></defs>
    <g id="Page-1" stroke="none" stroke-width="1" fill="none" fill-rule="evenodd">
        <g id="Desktop-HD" transform="translate(-759.000000, -691.000000)" fill="#B5BD00">
            <g id="Page-1-Copy-3" transform="translate(728.000000, 659.000000)">
                <g id="informacion">
                    <g id="icon" transform="translate(31.000000, 32.000000)">
                        <polygon id="Fill-1" points="6.42512077 23.75 22.4879227 23.75 22.4879227 20.5833333 6.42512077 20.5833333"></polygon>
                        <polygon id="Fill-2" points="6.42512077 17.4166667 19.2753623 17.4166667 19.2753623 14.25 6.42512077 14.25"></polygon>
                        <polygon id="Fill-3" points="6.42512077 30.0833333 22.4879227 30.0833333 22.4879227 26.9166667 6.42512077 26.9166667"></polygon>
                        <path d="M3.21256039,34.8333333 L3.21256039,6.33333333 L6.42512077,6.33333333 L6.42512077,7.91666667 C6.42512077,8.79225 7.1447343,9.5 8.03140097,9.5 C8.91806763,9.5 9.63768116,8.79225 9.63768116,7.91666667 L9.63768116,6.33333333 L12.8502415,6.33333333 L12.8502415,7.91666667 C12.8502415,8.79225 13.5698551,9.5 14.4565217,9.5 C15.3431884,9.5 16.0628019,8.79225 16.0628019,7.91666667 L16.0628019,6.33333333 L19.2753623,6.33333333 L19.2753623,7.91666667 C19.2753623,8.79225 19.9949758,9.5 20.8816425,9.5 C21.7683092,9.5 22.4879227,8.79225 22.4879227,7.91666667 L22.4879227,6.33333333 L25.7004831,6.33333333 L25.7020894,34.8333333 L3.21256039,34.8333333 Z M25.7004831,3.16666667 L22.4879227,3.16666667 L22.4879227,1.58333333 C22.4879227,0.709333333 21.7683092,0 20.8816425,0 C19.9949758,0 19.2753623,0.709333333 19.2753623,1.58333333 L19.2753623,3.16666667 L16.0628019,3.16666667 L16.0628019,1.58333333 C16.0628019,0.709333333 15.3431884,0 14.4565217,0 C13.5698551,0 12.8502415,0.709333333 12.8502415,1.58333333 L12.8502415,3.16666667 L9.63768116,3.16666667 L9.63768116,1.58333333 C9.63768116,0.709333333 8.91806763,0 8.03140097,0 C7.1447343,0 6.42512077,0.709333333 6.42512077,1.58333333 L6.42512077,3.16666667 L3.21256039,3.16666667 C1.44083333,3.16666667 0,4.58533333 0,6.33333333 L0,34.8333333 C0,36.5781667 1.44083333,38 3.21256039,38 L25.7004831,38 C27.4722101,38 28.9130435,36.5781667 28.9130435,34.8333333 L28.9130435,6.33333333 C28.9130435,4.58533333 27.4722101,3.16666667 25.7004831,3.16666667 L25.7004831,3.16666667 Z" id="Fill-4"></path>
                    </g>
                </g>
            </g>
        </g>
    </g>
</svg>