<?xml version="1.0" encoding="UTF-8"?>
<svg width="113px" height="123px" viewBox="0 0 113 123" version="1.1" xmlns="http://www.w3.org/2000/svg" xmlns:xlink="http://www.w3.org/1999/xlink">
    <!-- Generator: Sketch 43.2 (39069) - http://www.bohemiancoding.com/sketch -->
    <title>recursos-financieros</title>
    <desc>Created with Sketch.</desc>
    <defs>
        <path d="M98.5036483,72.0700493 C98.5288836,71.8788768 98.544413,71.6877044 98.5657659,71.496532 C98.6123542,71.0498128 98.6880601,70.6089458 98.7074718,70.1544236 C98.7152365,70.0373793 98.676413,69.9320394 98.6589424,69.822798 C98.6686483,69.5204335 98.7132954,69.2239212 98.709413,68.9196059 L98.3988248,37.5088079 C98.4007659,37.4756453 98.4162954,37.448335 98.4162954,37.4151724 C98.3405895,29.520532 94.0350601,22.2052611 87.1962954,18.3271921 L59.8878248,2.85002956 C58.3038248,1.95268966 56.6266483,1.28943842 54.9087071,0.817359606 C54.8000012,0.786147783 54.6932365,0.739330049 54.5825895,0.710068966 C54.027413,0.565714286 53.4625306,0.483783251 52.8995895,0.384295567 C52.5230012,0.317970443 52.1522365,0.222384236 51.7737071,0.173615764 C51.3194718,0.117044335 50.8652365,0.115093596 50.4110012,0.0877832512 C49.9490012,0.0585221675 49.4908836,0 49.0288836,0 C48.9958836,0 48.9628836,0.00585221675 48.9279424,0.00585221675 C48.4212954,0.00975369458 47.9185306,0.070226601 47.4118836,0.10729064 C46.9518248,0.140453202 46.4898248,0.148256158 46.0317071,0.210679803 C45.6298836,0.265300493 45.2358248,0.374541872 44.8378836,0.45062069 C44.2827071,0.55791133 43.7255895,0.645694581 43.1801189,0.795901478 C43.0151189,0.840768473 42.8559424,0.914896552 42.6928836,0.963665025 C41.0040601,1.47085714 39.3560012,2.1555665 37.8050012,3.07436453 L10.8168248,19.0996847 C5.74453065,22.1096749 2.1921777,26.9572611 0.736295351,32.5402759 C0.711060057,32.6300099 0.693589469,32.7236453 0.672236527,32.81533 C0.472295351,33.6170837 0.315060057,34.4324926 0.206354174,35.2615567 C0.18111888,35.4527291 0.165589469,35.6458522 0.144236527,35.8389754 C0.0976482921,36.2856946 0.0219424098,36.7246108 0.000589468604,37.179133 C-0.00523406081,37.2942266 0.0335894686,37.3995665 0.0510600568,37.5107586 C0.0413541745,37.8131232 -0.00329288434,38.1096355 0.000589468604,38.4139507 L0.311177704,69.8247488 C0.309236527,69.8579113 0.291765939,69.8852217 0.293707116,69.9183842 C0.369412998,77.8130246 4.67494241,85.1282956 11.5137071,89.0063645 L38.8202365,104.483527 C40.4061777,105.380867 42.0833542,106.042167 43.8012954,106.516197 C43.9100012,106.547409 44.0167659,106.594227 44.127413,106.623488 C44.6825895,106.767842 45.2474718,106.847823 45.810413,106.949261 C46.1870012,107.015586 46.5577659,107.111172 46.9362954,107.15799 C47.3885895,107.214562 47.8447659,107.216512 48.2990012,107.245773 C48.7590601,107.275034 49.2191189,107.333557 49.6811189,107.333557 C49.7141189,107.333557 49.7471189,107.325754 49.7801189,107.325754 C50.2887071,107.323803 50.7914718,107.26333 51.2981189,107.226266 C51.7581777,107.191153 52.2182365,107.1853 52.6782954,107.122877 C53.0781777,107.066305 53.4702954,106.959015 53.8682365,106.882936 C54.4253542,106.773695 54.9824718,106.687862 55.5298836,106.537655 C55.6910012,106.492788 55.8443542,106.420611 56.0054718,106.373793 C57.6981777,105.866601 59.3501189,105.179941 60.9050012,104.259192 L87.8931777,88.2338719 C92.9654718,85.221931 96.5178248,80.3743448 97.9737071,74.79133 C97.9970012,74.7015961 98.0144718,74.6118621 98.0377659,74.5221281 C98.2357659,73.7164729 98.3949424,72.901064 98.5036483,72.0700493" id="path-1"></path>
        <filter x="-13.2%" y="-10.2%" width="126.3%" height="124.2%" filterUnits="objectBoundingBox" id="filter-3">
            <feMorphology radius="6" operator="dilate" in="SourceAlpha" result="shadowSpreadOuter1"></feMorphology>
            <feOffset dx="0" dy="2" in="shadowSpreadOuter1" result="shadowOffsetOuter1"></feOffset>
            <feGaussianBlur stdDeviation="2" in="shadowOffsetOuter1" result="shadowBlurOuter1"></feGaussianBlur>
            <feComposite in="shadowBlurOuter1" in2="SourceAlpha" operator="out" result="shadowBlurOuter1"></feComposite>
            <feColorMatrix values="0 0 0 0 0.755102041   0 0 0 0 0.755102041   0 0 0 0 0.755102041  0 0 0 0.5 0" type="matrix" in="shadowBlurOuter1"></feColorMatrix>
        </filter>
        <polygon id="path-4" points="0 47.9673197 38 47.9673197 38 0.000106593808 0 0.000106593808"></polygon>
    </defs>
    <g id="Page-1" stroke="none" stroke-width="1" fill="none" fill-rule="evenodd">
        <g id="Desktop-HD" transform="translate(-315.000000, -394.000000)">
            <g id="Page-1" transform="translate(322.000000, 400.000000)">
                <g id="recursos-financieros">
                    <mask id="mask-2" fill="white">
                        <use xlink:href="#path-1"></use>
                    </mask>
                    <g id="Mask">
                        <use fill="black" fill-opacity="1" filter="url(#filter-3)" xlink:href="#path-1"></use>
                        <use stroke="#FEFEFE" stroke-width="12" fill="#B5BD00" fill-rule="evenodd" xlink:href="#path-1"></use>
                    </g>
                    <g id="Libro" mask="url(#mask-2)">
                        <g transform="translate(31.000000, 30.000000)">
                            <mask id="mask-5" fill="white">
                                <use xlink:href="#path-4"></use>
                            </mask>
                            <g id="Clip-2" stroke="none" fill="none"></g>
                            <path d="M19,12.7914167 L26.3888889,12.7914167 L26.3888889,21.9686105 L23.6016944,20.0030207 C23.0570278,19.6187501 22.3318611,19.6187501 21.7871944,20.0030207 L19,21.9686105 L19,12.7914167 Z M3.16666667,11.90882 C4.10241667,12.4652397 5.18858333,12.7914167 6.33333333,12.7914167 L15.8333333,12.7914167 L15.8333333,25.0497045 C15.8396667,25.9328342 16.55375,26.6432819 17.4282778,26.6368863 C17.7486389,26.6347544 18.0610833,26.5340233 18.3239167,26.3485501 L22.6944444,23.250934 L27.0649722,26.3485501 C27.7816944,26.8548706 28.7691667,26.6779249 29.2700278,25.954153 C29.4536944,25.6887344 29.5534444,25.3732167 29.5555556,25.0497045 L29.5555556,12.7914167 L34.8333333,12.7914167 L34.8333333,44.7695588 L5.27777778,44.7695588 C4.08077778,44.7695588 3.16666667,43.8464564 3.16666667,42.6376827 L3.16666667,11.90882 Z M6.33333333,3.1979741 L30.9573333,3.1979741 C30.40475,4.14399413 30.0833333,5.23817956 30.0833333,6.39578831 C30.0833333,7.55339705 30.40475,8.64758248 30.9573333,9.59360251 L6.33333333,9.59360251 C4.81016667,9.59360251 3.16666667,7.93393694 3.16666667,6.39578831 C3.16666667,4.85763967 4.81016667,3.1979741 6.33333333,3.1979741 L6.33333333,3.1979741 Z M6.33333333,0.00015989071 C2.88641667,0.00015989071 0,2.91496754 0,6.39578831 L0,42.6376827 C0,45.5626167 2.38133333,47.967373 5.27777778,47.967373 L36.4166667,47.967373 C37.2458056,47.967373 38,47.2057603 38,46.3684659 L38,11.1925096 C37.9947222,10.2539511 37.3223333,9.58507501 36.4166667,9.59360251 C34.8935,9.59360251 33.25,7.93393694 33.25,6.39578831 C33.25,4.85763967 34.8935,3.1979741 36.4166667,3.1979741 C37.2531944,3.20969942 38,2.44382291 38,1.59906699 C38,0.754311075 37.2531944,-0.0115654281 36.4166667,0.00015989071 L6.33333333,0.00015989071 Z" id="Fill-1" stroke="none" fill="#FFFFFF" fill-rule="evenodd" mask="url(#mask-5)"></path>
                        </g>
                    </g>
                </g>
            </g>
        </g>
    </g>
</svg>