<?xml version="1.0" encoding="UTF-8"?>
<svg width="43px" height="38px" viewBox="0 0 43 38" version="1.1" xmlns="http://www.w3.org/2000/svg" xmlns:xlink="http://www.w3.org/1999/xlink">
    <!-- Generator: Sketch 43.2 (39069) - http://www.bohemiancoding.com/sketch -->
    <title>Page 1</title>
    <desc>Created with Sketch.</desc>
    <defs></defs>
    <g id="Page-1" stroke="none" stroke-width="1" fill="none" fill-rule="evenodd">
        <g id="Desktop-HD" transform="translate(-132.000000, -701.000000)" fill="#B5BD00">
            <g id="Page-1" transform="translate(102.000000, 664.000000)">
                <g id="recursos-financieros">
                    <g id="Page-1" transform="translate(30.000000, 37.000000)">
                        <path d="M4.37871765,33.7777778 C5.42774118,25.4578889 12.5882824,19 21.2352941,19 C29.8823059,19 37.0428471,25.4578889 38.0918706,33.7777778 L4.37871765,33.7777778 Z M21.2352941,14.7777778 C9.52615294,14.7777778 0,24.2482222 0,35.8888889 C0,37.0542222 0.951341176,38 2.12352941,38 L40.3470588,38 C41.5192471,38 42.4705882,37.0542222 42.4705882,35.8888889 C42.4705882,24.2482222 32.9444353,14.7777778 21.2352941,14.7777778 L21.2352941,14.7777778 Z" id="Fill-1"></path>
                        <path d="M16.9882353,4.22222222 C18.1583,4.22222222 19.1117647,5.17011111 19.1117647,6.33333333 C19.1117647,7.49866667 18.1583,8.44444444 16.9882353,8.44444444 C15.8181706,8.44444444 14.8647059,7.49866667 14.8647059,6.33333333 C14.8647059,5.17011111 15.8181706,4.22222222 16.9882353,4.22222222 M25.4823529,4.22222222 C26.6524176,4.22222222 27.6058824,5.17011111 27.6058824,6.33333333 C27.6058824,7.49866667 26.6524176,8.44444444 25.4823529,8.44444444 C24.3122882,8.44444444 23.3588235,7.49866667 23.3588235,6.33333333 C23.3588235,5.17011111 24.3122882,4.22222222 25.4823529,4.22222222 M21.2352941,12.6666667 C27.8373471,12.6666667 34.1697118,15.4892222 38.6100118,20.4081111 L41.7719471,17.5918889 C38.6864588,14.1697778 34.8131412,11.6385556 30.5682059,10.1101111 C31.3645294,9.05244444 31.8529412,7.752 31.8529412,6.33333333 C31.8529412,2.84155556 28.9946706,0 25.4823529,0 C23.8451118,0 22.3650118,0.633333333 21.2352941,1.64666667 C20.1055765,0.633333333 18.6254765,0 16.9882353,0 C13.4759176,0 10.6176471,2.84155556 10.6176471,6.33333333 C10.6176471,7.752 11.1060588,9.05244444 11.9023824,10.1101111 C7.65744706,11.6385556 3.78412941,14.1697778 0.698641176,17.5918889 L3.86057647,20.4081111 C8.30087647,15.4892222 14.6332412,12.6666667 21.2352941,12.6666667" id="Fill-3"></path>
                    </g>
                </g>
            </g>
        </g>
    </g>
</svg>