<?xml version="1.0" encoding="UTF-8"?>
<svg width="38px" height="34px" viewBox="0 0 38 34" version="1.1" xmlns="http://www.w3.org/2000/svg" xmlns:xlink="http://www.w3.org/1999/xlink">
    <!-- Generator: Sketch 43.2 (39069) - http://www.bohemiancoding.com/sketch -->
    <title>Page 1</title>
    <desc>Created with Sketch.</desc>
    <defs>
        <polygon id="path-1" points="0 0.000195073892 0 107.333167 98.7088235 107.333167 98.7088235 0.000195073892 0 0.000195073892"></polygon>
    </defs>
    <g id="Page-1" stroke="none" stroke-width="1" fill="none" fill-rule="evenodd">
        <g id="Desktop-HD" transform="translate(-132.000000, -701.000000)">
            <g id="Page-1" transform="translate(102.000000, 664.000000)">
                <mask id="mask-2" fill="white">
                    <use xlink:href="#path-1"></use>
                </mask>
                <g id="Clip-2"></g>
                <g id="recursos-financieros" fill="#B5BD00">
                    <g id="Page-1" transform="translate(30.000000, 37.000000)">
                        <path d="M3.9178,30.2222222 C4.8564,22.7781111 11.2632,17 19,17 C26.7368,17 33.1436,22.7781111 34.0822,30.2222222 L3.9178,30.2222222 Z M19,13.2222222 C8.5234,13.2222222 0,21.6957778 0,32.1111111 C0,33.1537778 0.8512,34 1.9,34 L36.1,34 C37.1488,34 38,33.1537778 38,32.1111111 C38,21.6957778 29.4766,13.2222222 19,13.2222222 L19,13.2222222 Z" id="Fill-1"></path>
                        <path d="M15.2,3.77777778 C16.2469,3.77777778 17.1,4.62588889 17.1,5.66666667 C17.1,6.70933333 16.2469,7.55555556 15.2,7.55555556 C14.1531,7.55555556 13.3,6.70933333 13.3,5.66666667 C13.3,4.62588889 14.1531,3.77777778 15.2,3.77777778 M22.8,3.77777778 C23.8469,3.77777778 24.7,4.62588889 24.7,5.66666667 C24.7,6.70933333 23.8469,7.55555556 22.8,7.55555556 C21.7531,7.55555556 20.9,6.70933333 20.9,5.66666667 C20.9,4.62588889 21.7531,3.77777778 22.8,3.77777778 M19,11.3333333 C24.9071,11.3333333 30.5729,13.8587778 34.5458,18.2598889 L37.3749,15.7401111 C34.6142,12.6782222 31.1486,10.4134444 27.3505,9.04588889 C28.063,8.09955556 28.5,6.936 28.5,5.66666667 C28.5,2.54244444 25.9426,0 22.8,0 C21.3351,0 20.0108,0.566666667 19,1.47333333 C17.9892,0.566666667 16.6649,0 15.2,0 C12.0574,0 9.5,2.54244444 9.5,5.66666667 C9.5,6.936 9.937,8.09955556 10.6495,9.04588889 C6.8514,10.4134444 3.3858,12.6782222 0.6251,15.7401111 L3.4542,18.2598889 C7.4271,13.8587778 13.0929,11.3333333 19,11.3333333" id="Fill-3"></path>
                    </g>
                </g>
            </g>
        </g>
    </g>
</svg>