<?xml version="1.0" encoding="UTF-8"?>
<svg width="40px" height="50px" viewBox="0 0 40 50" version="1.1" xmlns="http://www.w3.org/2000/svg" xmlns:xlink="http://www.w3.org/1999/xlink">
    <!-- Generator: Sketch 43.2 (39069) - http://www.bohemiancoding.com/sketch -->
    <title>redes</title>
    <desc>Created with Sketch.</desc>
    <defs>
        <polygon id="path-1" points="0 0.000195073892 0 107.333167 98.7088235 107.333167 98.7088235 0.000195073892 0 0.000195073892"></polygon>
        <polygon id="path-3" points="14.7502408 37 29.5 37 29.5 0.000251697227 0.000481566164 0.000251697227 0.000481566164 37 14.7502408 37"></polygon>
    </defs>
    <g id="Page-1" stroke="none" stroke-width="1" fill="none" fill-rule="evenodd">
        <g id="Desktop-HD" transform="translate(-429.000000, -813.000000)">
            <g id="redes" transform="translate(400.000000, 781.000000)">
                <mask id="mask-2" fill="white">
                    <use xlink:href="#path-1"></use>
                </mask>
                <g id="Clip-2"></g>
                <g id="mask"></g>
                <g id="icon" transform="translate(29.000000, 32.000000)">
                    <g id="Group-3" transform="translate(9.833333, 12.333333)">
                        <mask id="mask-4" fill="white">
                            <use xlink:href="#path-3"></use>
                        </mask>
                        <g id="Clip-2"></g>
                        <path d="M11.353075,32.0666667 L24.583825,32.0666667 L24.583825,21.6598 L16.61145,19.6618 C15.5174917,19.3855333 14.7504917,18.3988667 14.7504917,17.2666667 L14.7504917,6.7118 L12.2921583,5.8904 L12.2921583,19.7333333 C12.2921583,21.0949333 11.190825,22.2 9.833825,22.2 L6.43640833,22.2 L11.353075,32.0666667 Z M27.0421583,37 L9.833825,37 C8.90211667,37 8.05153333,36.4721333 7.63361667,35.6359333 L0.258616667,20.8359333 C-0.119966667,20.0712667 -0.0806333333,19.1635333 0.366783333,18.4383333 C0.8142,17.7106667 1.60578333,17.2666667 2.458825,17.2666667 L7.37549167,17.2666667 L7.37549167,2.46666667 C7.37549167,1.67486667 7.754075,0.929933333 8.3957,0.4662 C9.037325,0.00246666667 9.86086667,-0.123333333 10.6106583,0.1258 L17.9856583,2.59246667 C18.9886583,2.92793333 19.6671583,3.8702 19.6671583,4.93333333 L19.6671583,15.3402 L27.6395333,17.3406667 C28.7310333,17.6144667 29.5004917,18.5986667 29.5004917,19.7333333 L29.5004917,34.5333333 C29.5004917,35.8949333 28.3991583,37 27.0421583,37 L27.0421583,37 Z" id="Fill-1" fill="#B5BD00" mask="url(#mask-4)"></path>
                    </g>
                    <path d="M34.4166667,0 L4.91666667,0 C2.205125,0 0,2.21506667 0,4.93333333 L0,22.2 C0,24.9182667 2.205125,27.1333333 4.91666667,27.1333333 L12.2916667,27.1333333 L12.2916667,22.2 L4.91666667,22.2 L4.91666667,4.93333333 L34.4166667,4.93333333 L34.4166667,22.2 L39.3333333,22.2 L39.3333333,4.93333333 C39.3333333,2.21506667 37.1282083,0 34.4166667,0" id="Fill-4" fill="#B5BD00"></path>
                </g>
            </g>
        </g>
    </g>
</svg>