<?xml version="1.0" encoding="UTF-8"?>
<svg width="30px" height="38px" viewBox="0 0 30 38" version="1.1" xmlns="http://www.w3.org/2000/svg" xmlns:xlink="http://www.w3.org/1999/xlink">
    <!-- Generator: Sketch 43.2 (39069) - http://www.bohemiancoding.com/sketch -->
    <title>icon</title>
    <desc>Created with Sketch.</desc>
    <defs>
        <polygon id="path-1" points="11.210183 28.12 22.42 28.12 22.42 0.000191289893 0.000365990284 0.000191289893 0.000365990284 28.12 11.210183 28.12"></polygon>
    </defs>
    <g id="Page-1" stroke="none" stroke-width="1" fill="none" fill-rule="evenodd">
        <g id="Desktop-HD" transform="translate(-429.000000, -813.000000)">
            <g id="redes" transform="translate(400.000000, 781.000000)">
                <g id="icon" transform="translate(29.000000, 32.000000)">
                    <g id="Group-3" transform="translate(7.473333, 9.373333)">
                        <mask id="mask-2" fill="white">
                            <use xlink:href="#path-1"></use>
                        </mask>
                        <g id="Clip-2"></g>
                        <path d="M8.628337,24.3706667 L18.683707,24.3706667 L18.683707,16.461448 L12.624702,14.942968 C11.7932937,14.7330053 11.2103737,13.9831387 11.2103737,13.1226667 L11.2103737,5.100968 L9.34204033,4.476704 L9.34204033,14.9973333 C9.34204033,16.0321493 8.505027,16.872 7.473707,16.872 L4.89167033,16.872 L8.628337,24.3706667 Z M20.5520403,28.12 L7.473707,28.12 C6.76560867,28.12 6.11916533,27.7188213 5.80154867,27.0833093 L0.196548667,15.8353093 C-0.0911746667,15.2541627 -0.0612813333,14.5642853 0.278755333,14.0131333 C0.618792,13.4601067 1.22039533,13.1226667 1.868707,13.1226667 L5.60537367,13.1226667 L5.60537367,1.87466667 C5.60537367,1.27289867 5.893097,0.706749333 6.380732,0.354312 C6.868367,0.00187466667 7.49425867,-0.0937333333 8.06410033,0.095608 L13.6691003,1.97027467 C14.4313803,2.22522933 14.9470403,2.941352 14.9470403,3.74933333 L14.9470403,11.658552 L21.0060453,13.1789067 C21.8355853,13.3869947 22.4203737,14.1349867 22.4203737,14.9973333 L22.4203737,26.2453333 C22.4203737,27.2801493 21.5833603,28.12 20.5520403,28.12 L20.5520403,28.12 Z" id="Fill-1" fill="#B5BD00" mask="url(#mask-2)"></path>
                    </g>
                    <path d="M26.1566667,0 L3.73666667,0 C1.675895,0 0,1.68345067 0,3.74933333 L0,16.872 C0,18.9378827 1.675895,20.6213333 3.73666667,20.6213333 L9.34166667,20.6213333 L9.34166667,16.872 L3.73666667,16.872 L3.73666667,3.74933333 L26.1566667,3.74933333 L26.1566667,16.872 L29.8933333,16.872 L29.8933333,3.74933333 C29.8933333,1.68345067 28.2174383,0 26.1566667,0" id="Fill-4" fill="#B5BD00"></path>
                </g>
            </g>
        </g>
    </g>
</svg>